<svg xmlns="http://www.w3.org/2000/svg" xmlns:xlink="http://www.w3.org/1999/xlink" width="250" zoomAndPan="magnify" viewBox="0 0 187.5 187.499992" height="250" preserveAspectRatio="xMidYMid meet" version="1.0"><defs><clipPath id="c2c9e5508f"><path d="M 86 10.664062 L 116 10.664062 L 116 41 L 86 41 Z M 86 10.664062 " clip-rule="nonzero"/></clipPath><clipPath id="7a836963c7"><path d="M 174 124 L 177.742188 124 L 177.742188 128 L 174 128 Z M 174 124 " clip-rule="nonzero"/></clipPath><clipPath id="c2265bc30d"><path d="M 174 128 L 177.742188 128 L 177.742188 132 L 174 132 Z M 174 128 " clip-rule="nonzero"/></clipPath><clipPath id="459eb5ef4d"><path d="M 5.242188 52 L 10 52 L 10 57 L 5.242188 57 Z M 5.242188 52 " clip-rule="nonzero"/></clipPath></defs><path fill="#e5e0fc" d="M 170.066406 115.4375 C 169.488281 108.785156 166.675781 101.433594 160.421875 99.082031 C 158.371094 98.304688 156.042969 98.121094 154.242188 96.859375 C 151.46875 94.910156 150.824219 91.007812 151.339844 87.667969 C 151.863281 84.3125 153.269531 81.132812 153.652344 77.765625 C 154.402344 71.070312 150.429688 64.207031 144.488281 61.171875 C 143.503906 60.65625 142.453125 60.25 141.363281 59.972656 C 140.390625 59.722656 139.402344 59.566406 138.402344 59.472656 C 134.304688 59.066406 130.042969 59.671875 126.007812 59.160156 C 125.429688 59.078125 124.867188 58.988281 124.3125 58.871094 C 123.617188 58.710938 122.945312 58.527344 122.277344 58.277344 C 116.320312 56.082031 112.589844 50.21875 109.84375 44.484375 C 107.949219 40.511719 106.226562 36.320312 103.757812 32.730469 C 103.453125 32.28125 103.140625 31.847656 102.808594 31.425781 C 102.613281 31.175781 102.414062 30.925781 102.21875 30.691406 C 101.875 30.28125 101.523438 29.886719 101.140625 29.507812 C 100.773438 29.113281 100.378906 28.746094 99.957031 28.375 C 97.328125 26.0625 94.054688 24.550781 90.613281 23.933594 C 90.074219 23.839844 89.507812 23.761719 88.957031 23.707031 C 88.640625 23.683594 88.324219 23.65625 87.996094 23.640625 C 87.445312 23.617188 86.894531 23.628906 86.339844 23.65625 C 85.144531 23.695312 83.960938 23.867188 82.804688 24.140625 C 76.851562 25.574219 71.710938 30.03125 69.464844 35.726562 C 67.347656 41.050781 67.714844 46.996094 68.453125 52.675781 C 69.554688 61.222656 72.316406 74.832031 63.878906 80.894531 C 60.789062 83.117188 57.398438 82.394531 54.230469 80.722656 C 49.746094 78.355469 46.027344 75.898438 40.796875 75.4375 C 34.078125 74.847656 27.035156 77.421875 22.59375 82.421875 C 22.316406 82.722656 22.054688 83.039062 21.804688 83.367188 C 21.722656 83.457031 21.660156 83.539062 21.605469 83.628906 C 21.410156 83.878906 21.226562 84.128906 21.054688 84.390625 C 21.039062 84.40625 21.027344 84.433594 21.015625 84.445312 C 16.808594 90.742188 16.886719 99.789062 21.738281 105.601562 C 25.878906 110.558594 32.816406 112.925781 35.984375 118.554688 C 39.71875 125.246094 36.667969 133.53125 36.917969 141.199219 C 37.3125 153.964844 47.65625 165.023438 59.84375 168.863281 C 72.039062 172.714844 85.472656 170.351562 97.15625 165.167969 C 100.117188 163.855469 103.113281 162.210938 105.742188 160.226562 C 106.570312 159.605469 107.359375 158.949219 108.105469 158.253906 C 110.328125 156.175781 112.140625 153.769531 113.21875 151.019531 C 113.484375 150.375 113.695312 149.71875 113.863281 149.046875 C 113.941406 148.746094 114.007812 148.441406 114.0625 148.128906 C 114.390625 146.351562 114.402344 144.539062 114.417969 142.722656 C 114.417969 142.066406 114.429688 141.40625 114.457031 140.75 C 114.46875 140.121094 114.496094 139.5 114.5625 138.871094 C 114.707031 137.371094 115.074219 135.804688 115.71875 134.4375 C 116.058594 133.730469 116.480469 133.058594 116.980469 132.464844 C 117.480469 131.886719 118.070312 131.386719 118.765625 130.992188 C 120.921875 129.785156 123.445312 130.007812 125.757812 130.992188 C 126.429688 131.28125 127.101562 131.636719 127.730469 132.046875 C 128.507812 132.558594 129.242188 133.136719 129.886719 133.753906 C 132.621094 136.371094 134.644531 139.699219 137.496094 142.15625 C 137.734375 142.367188 137.96875 142.566406 138.21875 142.761719 C 138.363281 142.878906 138.523438 142.984375 138.679688 143.105469 C 140.152344 144.144531 141.769531 144.878906 143.476562 145.339844 C 143.871094 145.445312 144.265625 145.535156 144.660156 145.601562 C 149.722656 146.589844 155.320312 145.261719 159.699219 142.25 C 159.894531 142.132812 160.078125 142 160.25 141.855469 C 161.011719 141.304688 161.734375 140.683594 162.40625 140.015625 C 168.675781 133.753906 170.832031 124.273438 170.066406 115.4375 Z M 82.542969 139.460938 L 82.542969 127.429688 C 82.542969 126.71875 83.121094 126.140625 83.828125 126.140625 L 87.601562 126.140625 C 88.324219 126.140625 88.902344 126.71875 88.902344 127.429688 L 88.902344 139.460938 C 88.902344 140.171875 88.324219 140.75 87.601562 140.75 L 83.828125 140.75 C 83.121094 140.75 82.542969 140.171875 82.542969 139.460938 Z M 82.542969 139.460938 " fill-opacity="1" fill-rule="nonzero"/><path fill="#000000" d="M 116.925781 36.542969 L 110.367188 29.953125 L 109.132812 31.203125 L 107.632812 29.71875 C 107.699219 29.652344 107.753906 29.558594 107.832031 29.46875 C 111.128906 24.957031 110.867188 18.765625 106.9375 14.84375 C 104.835938 12.769531 102.035156 11.597656 99.078125 11.597656 C 96.09375 11.597656 93.292969 12.753906 91.203125 14.84375 C 86.867188 19.199219 86.867188 26.273438 91.203125 30.597656 C 93.320312 32.703125 96.121094 33.847656 99.078125 33.847656 C 101.46875 33.847656 103.769531 32.964844 105.820312 31.503906 C 105.910156 31.453125 105.992188 31.386719 106.070312 31.308594 L 107.527344 32.792969 L 106.292969 34.003906 L 112.878906 40.578125 C 113.429688 41.132812 114.128906 41.40625 114.902344 41.40625 C 115.679688 41.40625 116.386719 41.105469 116.914062 40.578125 C 118.03125 39.460938 118.03125 37.648438 116.925781 36.542969 Z M 105.125 28.769531 C 103.53125 30.386719 101.390625 31.296875 99.078125 31.296875 C 96.765625 31.296875 94.609375 30.414062 93.019531 28.796875 C 91.402344 27.191406 90.519531 25.023438 90.519531 22.734375 C 90.519531 20.421875 91.402344 18.277344 93.019531 16.6875 C 94.609375 15.070312 96.75 14.160156 99.078125 14.160156 C 101.390625 14.160156 103.53125 15.042969 105.125 16.660156 C 106.738281 18.265625 107.621094 20.433594 107.621094 22.722656 C 107.621094 25.035156 106.738281 27.179688 105.125 28.769531 Z M 107.976562 32.347656 L 106.53125 30.902344 C 106.910156 30.585938 106.882812 30.597656 107.226562 30.175781 L 108.710938 31.636719 Z M 107.976562 32.347656 " fill-opacity="0.098" fill-rule="nonzero"/><g clip-path="url(#c2c9e5508f)"><path fill="#6644a8" d="M 115.164062 35.660156 L 108.605469 29.074219 L 107.371094 30.324219 L 105.886719 28.835938 C 105.953125 28.769531 106.003906 28.679688 106.082031 28.585938 C 109.382812 24.078125 109.121094 17.882812 105.1875 13.964844 C 103.085938 11.886719 100.285156 10.714844 97.328125 10.714844 C 94.34375 10.714844 91.546875 11.875 89.457031 13.964844 C 85.117188 18.316406 85.117188 25.390625 89.457031 29.71875 C 91.570312 31.820312 94.371094 32.964844 97.328125 32.964844 C 99.722656 32.964844 102.019531 32.085938 104.070312 30.625 C 104.164062 30.570312 104.242188 30.507812 104.320312 30.425781 L 105.78125 31.914062 L 104.546875 33.125 L 111.128906 39.699219 C 111.683594 40.25 112.378906 40.527344 113.15625 40.527344 C 113.929688 40.527344 114.640625 40.222656 115.164062 39.699219 C 116.269531 38.582031 116.269531 36.765625 115.164062 35.660156 Z M 103.363281 27.890625 C 101.773438 29.507812 99.628906 30.414062 97.316406 30.414062 C 95.003906 30.414062 92.847656 29.535156 91.257812 27.917969 C 89.640625 26.3125 88.757812 24.140625 88.757812 21.855469 C 88.757812 19.539062 89.640625 17.398438 91.257812 15.804688 C 92.847656 14.1875 94.988281 13.28125 97.316406 13.28125 C 99.628906 13.28125 101.773438 14.160156 103.363281 15.777344 C 104.980469 17.382812 105.859375 19.554688 105.859375 21.839844 C 105.859375 24.15625 104.980469 26.296875 103.363281 27.890625 Z M 106.214844 31.464844 L 104.769531 30.019531 C 105.148438 29.703125 105.125 29.71875 105.464844 29.296875 L 106.949219 30.757812 Z M 106.214844 31.464844 " fill-opacity="1" fill-rule="nonzero"/></g><path fill="#6644a8" d="M 133.238281 91.03125 C 133.066406 91.03125 132.898438 90.96875 132.777344 90.835938 C 132.515625 90.574219 132.515625 90.164062 132.777344 89.902344 L 138.984375 83.695312 C 139.246094 83.433594 139.652344 83.433594 139.914062 83.695312 C 140.179688 83.957031 140.179688 84.367188 139.914062 84.628906 L 133.710938 90.835938 C 133.582031 90.96875 133.410156 91.03125 133.238281 91.03125 Z M 133.238281 91.03125 " fill-opacity="1" fill-rule="nonzero"/><path fill="#6644a8" d="M 139.457031 91.03125 C 139.285156 91.03125 139.113281 90.96875 138.996094 90.835938 L 132.792969 84.628906 C 132.527344 84.367188 132.527344 83.957031 132.792969 83.695312 C 133.054688 83.433594 133.460938 83.433594 133.726562 83.695312 L 139.929688 89.902344 C 140.191406 90.164062 140.191406 90.574219 139.929688 90.835938 C 139.785156 90.96875 139.613281 91.03125 139.457031 91.03125 Z M 139.457031 91.03125 " fill-opacity="1" fill-rule="nonzero"/><path fill="#6644a8" d="M 107.410156 54.492188 C 105.320312 54.492188 103.625 52.792969 103.625 50.703125 C 103.625 48.613281 105.320312 46.902344 107.410156 46.902344 C 109.5 46.902344 111.210938 48.613281 111.210938 50.703125 C 111.222656 52.792969 109.511719 54.492188 107.410156 54.492188 Z M 107.410156 48.21875 C 106.042969 48.21875 104.9375 49.335938 104.9375 50.703125 C 104.9375 52.070312 106.042969 53.175781 107.410156 53.175781 C 108.777344 53.175781 109.894531 52.070312 109.894531 50.703125 C 109.90625 49.335938 108.789062 48.21875 107.410156 48.21875 Z M 107.410156 48.21875 " fill-opacity="1" fill-rule="nonzero"/><path fill="#6644a8" d="M 76.089844 61.878906 C 74.457031 61.878906 73.128906 60.550781 73.128906 58.921875 C 73.128906 57.292969 74.457031 55.964844 76.089844 55.964844 C 77.71875 55.964844 79.046875 57.292969 79.046875 58.921875 C 79.058594 60.550781 77.730469 61.878906 76.089844 61.878906 Z M 76.089844 56.988281 C 75.023438 56.988281 74.15625 57.855469 74.15625 58.921875 C 74.15625 59.988281 75.023438 60.855469 76.089844 60.855469 C 77.152344 60.855469 78.019531 59.988281 78.019531 58.921875 C 78.035156 57.855469 77.164062 56.988281 76.089844 56.988281 Z M 76.089844 56.988281 " fill-opacity="1" fill-rule="nonzero"/><path fill="#6644a8" d="M 127.0625 32.347656 C 124.972656 32.347656 123.277344 30.652344 123.277344 28.558594 C 123.277344 26.46875 124.972656 24.761719 127.0625 24.761719 C 129.152344 24.761719 130.859375 26.46875 130.859375 28.558594 C 130.859375 30.636719 129.152344 32.347656 127.0625 32.347656 Z M 127.0625 26.0625 C 125.695312 26.0625 124.589844 27.179688 124.589844 28.546875 C 124.589844 29.914062 125.695312 31.019531 127.0625 31.019531 C 128.429688 31.019531 129.546875 29.914062 129.546875 28.546875 C 129.546875 27.179688 128.429688 26.0625 127.0625 26.0625 Z M 127.0625 26.0625 " fill-opacity="1" fill-rule="nonzero"/><path fill="#6644a8" d="M 76.441406 38.582031 C 76.3125 38.582031 76.191406 38.527344 76.101562 38.433594 L 74.3125 36.648438 C 74.117188 36.449219 74.117188 36.148438 74.3125 35.949219 C 74.511719 35.753906 74.8125 35.753906 75.011719 35.949219 L 76.796875 37.738281 C 76.996094 37.9375 76.996094 38.238281 76.796875 38.433594 C 76.691406 38.527344 76.574219 38.582031 76.441406 38.582031 Z M 76.441406 38.582031 " fill-opacity="1" fill-rule="nonzero"/><path fill="#6644a8" d="M 80.519531 34.503906 C 80.386719 34.503906 80.269531 34.453125 80.175781 34.359375 L 78.386719 32.570312 C 78.191406 32.375 78.191406 32.070312 78.386719 31.875 C 78.585938 31.675781 78.886719 31.675781 79.085938 31.875 L 80.871094 33.664062 C 81.070312 33.859375 81.070312 34.160156 80.871094 34.359375 C 80.765625 34.453125 80.648438 34.503906 80.519531 34.503906 Z M 80.519531 34.503906 " fill-opacity="1" fill-rule="nonzero"/><path fill="#6644a8" d="M 74.65625 34.503906 C 74.523438 34.503906 74.40625 34.453125 74.3125 34.359375 C 74.117188 34.160156 74.117188 33.859375 74.3125 33.664062 L 76.101562 31.875 C 76.296875 31.675781 76.601562 31.675781 76.796875 31.875 C 76.996094 32.070312 76.996094 32.375 76.796875 32.570312 L 75.011719 34.359375 C 74.90625 34.453125 74.785156 34.503906 74.65625 34.503906 Z M 74.65625 34.503906 " fill-opacity="1" fill-rule="nonzero"/><path fill="#6644a8" d="M 78.730469 38.582031 C 78.597656 38.582031 78.480469 38.527344 78.386719 38.433594 C 78.191406 38.238281 78.191406 37.9375 78.386719 37.738281 L 80.175781 35.949219 C 80.375 35.753906 80.675781 35.753906 80.871094 35.949219 C 81.070312 36.148438 81.070312 36.449219 80.871094 36.648438 L 79.085938 38.433594 C 78.980469 38.527344 78.863281 38.582031 78.730469 38.582031 Z M 78.730469 38.582031 " fill-opacity="1" fill-rule="nonzero"/><path fill="#6644a8" d="M 164.601562 51.636719 C 164.46875 51.636719 164.351562 51.585938 164.257812 51.492188 L 162.472656 49.703125 C 162.273438 49.507812 162.273438 49.203125 162.472656 49.007812 C 162.667969 48.808594 162.96875 48.808594 163.167969 49.007812 L 164.957031 50.796875 C 165.152344 50.992188 165.152344 51.296875 164.957031 51.492188 C 164.851562 51.585938 164.730469 51.636719 164.601562 51.636719 Z M 164.601562 51.636719 " fill-opacity="1" fill-rule="nonzero"/><path fill="#6644a8" d="M 168.675781 47.5625 C 168.542969 47.5625 168.425781 47.507812 168.332031 47.417969 L 166.546875 45.628906 C 166.347656 45.429688 166.347656 45.128906 166.546875 44.929688 C 166.742188 44.734375 167.046875 44.734375 167.242188 44.929688 L 169.03125 46.71875 C 169.226562 46.917969 169.226562 47.21875 169.03125 47.417969 C 168.925781 47.523438 168.792969 47.5625 168.675781 47.5625 Z M 168.675781 47.5625 " fill-opacity="1" fill-rule="nonzero"/><path fill="#6644a8" d="M 162.8125 47.5625 C 162.679688 47.5625 162.5625 47.507812 162.472656 47.417969 C 162.273438 47.21875 162.273438 46.917969 162.472656 46.71875 L 164.257812 44.929688 C 164.457031 44.734375 164.757812 44.734375 164.957031 44.929688 C 165.152344 45.128906 165.152344 45.429688 164.957031 45.628906 L 163.167969 47.417969 C 163.0625 47.523438 162.945312 47.5625 162.8125 47.5625 Z M 162.8125 47.5625 " fill-opacity="1" fill-rule="nonzero"/><path fill="#6644a8" d="M 166.886719 51.636719 C 166.757812 51.636719 166.636719 51.585938 166.546875 51.492188 C 166.347656 51.296875 166.347656 50.992188 166.546875 50.796875 L 168.332031 49.007812 C 168.53125 48.808594 168.832031 48.808594 169.03125 49.007812 C 169.226562 49.203125 169.226562 49.507812 169.03125 49.703125 L 167.242188 51.492188 C 167.136719 51.585938 167.003906 51.636719 166.886719 51.636719 Z M 166.886719 51.636719 " fill-opacity="1" fill-rule="nonzero"/><path fill="#6644a8" d="M 172.605469 131.625 C 172.472656 131.625 172.355469 131.574219 172.261719 131.480469 L 170.476562 129.691406 C 170.277344 129.496094 170.277344 129.191406 170.476562 128.996094 C 170.671875 128.796875 170.976562 128.796875 171.171875 128.996094 L 172.960938 130.785156 C 173.15625 130.980469 173.15625 131.28125 172.960938 131.480469 C 172.855469 131.585938 172.722656 131.625 172.605469 131.625 Z M 172.605469 131.625 " fill-opacity="1" fill-rule="nonzero"/><g clip-path="url(#7a836963c7)"><path fill="#6644a8" d="M 176.679688 127.546875 C 176.546875 127.546875 176.429688 127.496094 176.339844 127.402344 L 174.550781 125.617188 C 174.351562 125.417969 174.351562 125.117188 174.550781 124.917969 C 174.746094 124.722656 175.050781 124.722656 175.246094 124.917969 L 177.035156 126.707031 C 177.230469 126.90625 177.230469 127.207031 177.035156 127.402344 C 176.929688 127.507812 176.796875 127.546875 176.679688 127.546875 Z M 176.679688 127.546875 " fill-opacity="1" fill-rule="nonzero"/></g><path fill="#6644a8" d="M 170.816406 127.546875 C 170.6875 127.546875 170.566406 127.496094 170.476562 127.402344 C 170.277344 127.207031 170.277344 126.90625 170.476562 126.707031 L 172.261719 124.917969 C 172.460938 124.722656 172.761719 124.722656 172.960938 124.917969 C 173.15625 125.117188 173.15625 125.417969 172.960938 125.617188 L 171.171875 127.402344 C 171.066406 127.507812 170.9375 127.546875 170.816406 127.546875 Z M 170.816406 127.546875 " fill-opacity="1" fill-rule="nonzero"/><g clip-path="url(#c2265bc30d)"><path fill="#6644a8" d="M 174.878906 131.625 C 174.746094 131.625 174.628906 131.574219 174.539062 131.480469 C 174.339844 131.28125 174.339844 130.980469 174.539062 130.785156 L 176.324219 128.996094 C 176.523438 128.796875 176.824219 128.796875 177.023438 128.996094 C 177.21875 129.191406 177.21875 129.496094 177.023438 129.691406 L 175.234375 131.480469 C 175.140625 131.585938 175.011719 131.625 174.878906 131.625 Z M 174.878906 131.625 " fill-opacity="1" fill-rule="nonzero"/></g><path fill="#000000" d="M 148.734375 46.628906 L 126.523438 46.628906 C 126.234375 46.628906 126.007812 46.851562 126.007812 47.140625 L 126.007812 60.65625 C 126.007812 60.945312 126.234375 61.171875 126.523438 61.171875 L 129.058594 61.171875 L 129.058594 66.71875 C 129.058594 66.941406 129.191406 67.128906 129.386719 67.191406 C 129.453125 67.234375 129.503906 67.234375 129.558594 67.234375 C 129.714844 67.234375 129.859375 67.167969 129.964844 67.046875 L 134.539062 61.183594 L 148.75 61.183594 C 149.023438 61.183594 149.234375 60.960938 149.234375 60.671875 L 149.234375 47.140625 C 149.222656 46.851562 149 46.628906 148.734375 46.628906 Z M 131.6875 55.359375 C 130.476562 55.359375 129.492188 54.410156 129.492188 53.230469 C 129.492188 52.070312 130.476562 51.125 131.6875 51.125 C 132.882812 51.125 133.855469 52.070312 133.855469 53.230469 C 133.855469 54.398438 132.871094 55.359375 131.6875 55.359375 Z M 137.785156 55.359375 C 136.578125 55.359375 135.589844 54.410156 135.589844 53.230469 C 135.589844 52.070312 136.578125 51.125 137.785156 51.125 C 138.984375 51.125 139.96875 52.070312 139.96875 53.230469 C 139.96875 54.398438 138.984375 55.359375 137.785156 55.359375 Z M 143.570312 55.359375 C 142.359375 55.359375 141.386719 54.410156 141.386719 53.230469 C 141.386719 52.070312 142.359375 51.125 143.570312 51.125 C 144.777344 51.125 145.738281 52.070312 145.738281 53.230469 C 145.738281 54.398438 144.777344 55.359375 143.570312 55.359375 Z M 143.570312 55.359375 " fill-opacity="0.098" fill-rule="nonzero"/><path fill="#6644a8" d="M 147.039062 44.929688 L 124.828125 44.929688 C 124.539062 44.929688 124.3125 45.15625 124.3125 45.445312 L 124.3125 58.960938 C 124.3125 59.25 124.539062 59.472656 124.828125 59.472656 L 127.363281 59.472656 L 127.363281 65.023438 C 127.363281 65.246094 127.496094 65.429688 127.691406 65.496094 C 127.757812 65.535156 127.808594 65.535156 127.863281 65.535156 C 128.019531 65.535156 128.164062 65.46875 128.269531 65.351562 L 132.84375 59.488281 L 147.054688 59.488281 C 147.328125 59.488281 147.539062 59.265625 147.539062 58.976562 L 147.539062 45.445312 C 147.527344 45.15625 147.304688 44.929688 147.039062 44.929688 Z M 129.992188 53.648438 C 128.78125 53.648438 127.796875 52.703125 127.796875 51.519531 C 127.796875 50.363281 128.78125 49.414062 129.992188 49.414062 C 131.1875 49.414062 132.160156 50.363281 132.160156 51.519531 C 132.160156 52.703125 131.175781 53.648438 129.992188 53.648438 Z M 136.089844 53.648438 C 134.882812 53.648438 133.894531 52.703125 133.894531 51.519531 C 133.894531 50.363281 134.882812 49.414062 136.089844 49.414062 C 137.285156 49.414062 138.273438 50.363281 138.273438 51.519531 C 138.257812 52.703125 137.273438 53.648438 136.089844 53.648438 Z M 141.859375 53.648438 C 140.652344 53.648438 139.679688 52.703125 139.679688 51.519531 C 139.679688 50.363281 140.652344 49.414062 141.859375 49.414062 C 143.070312 49.414062 144.03125 50.363281 144.03125 51.519531 C 144.042969 52.703125 143.070312 53.648438 141.859375 53.648438 Z M 141.859375 53.648438 " fill-opacity="1" fill-rule="nonzero"/><path fill="#000000" d="M 23.367188 74.820312 C 23.511719 74.660156 23.511719 74.414062 23.367188 74.265625 C 23.210938 74.109375 22.960938 74.109375 22.816406 74.265625 C 21.5 75.59375 19.332031 75.59375 18.019531 74.265625 C 17.859375 74.109375 17.609375 74.109375 17.464844 74.265625 C 17.320312 74.425781 17.320312 74.675781 17.464844 74.820312 C 18.28125 75.636719 19.34375 76.042969 20.421875 76.042969 C 21.5 76.042969 22.550781 75.636719 23.367188 74.820312 Z M 23.367188 74.820312 " fill-opacity="0.098" fill-rule="nonzero"/><path fill="#000000" d="M 29.152344 80.054688 C 24.328125 84.878906 16.480469 84.878906 11.667969 80.054688 C 11.511719 79.894531 11.261719 79.894531 11.117188 80.054688 C 10.960938 80.210938 10.960938 80.460938 11.117188 80.605469 C 13.679688 83.167969 17.046875 84.445312 20.410156 84.445312 C 23.773438 84.445312 27.140625 83.167969 29.703125 80.605469 C 29.847656 80.449219 29.847656 80.199219 29.703125 80.054688 C 29.546875 79.910156 29.308594 79.910156 29.152344 80.054688 Z M 29.152344 80.054688 " fill-opacity="0.098" fill-rule="nonzero"/><path fill="#000000" d="M 14.007812 77.160156 C 13.863281 77.316406 13.863281 77.566406 14.007812 77.710938 C 15.769531 79.476562 18.097656 80.355469 20.410156 80.355469 C 22.722656 80.355469 25.050781 79.476562 26.8125 77.710938 C 26.96875 77.554688 26.96875 77.316406 26.8125 77.160156 C 26.652344 77.003906 26.417969 77.003906 26.257812 77.160156 C 23.027344 80.394531 17.78125 80.394531 14.5625 77.160156 C 14.402344 77.015625 14.152344 77.015625 14.007812 77.160156 Z M 14.007812 77.160156 " fill-opacity="0.098" fill-rule="nonzero"/><path fill="#6644a8" d="M 22.75 73.871094 C 22.894531 73.714844 22.894531 73.464844 22.75 73.320312 C 22.59375 73.164062 22.34375 73.164062 22.199219 73.320312 C 20.882812 74.648438 18.714844 74.648438 17.398438 73.320312 C 17.242188 73.164062 16.992188 73.164062 16.847656 73.320312 C 16.703125 73.480469 16.703125 73.726562 16.847656 73.871094 C 17.664062 74.6875 18.726562 75.097656 19.804688 75.097656 C 20.871094 75.097656 21.933594 74.6875 22.75 73.871094 Z M 22.75 73.871094 " fill-opacity="1" fill-rule="nonzero"/><path fill="#6644a8" d="M 28.546875 79.105469 C 23.722656 83.933594 15.875 83.933594 11.066406 79.105469 C 10.90625 78.949219 10.65625 78.949219 10.511719 79.105469 C 10.355469 79.265625 10.355469 79.515625 10.511719 79.660156 C 13.074219 82.222656 16.441406 83.5 19.804688 83.5 C 23.171875 83.5 26.535156 82.222656 29.097656 79.660156 C 29.242188 79.5 29.242188 79.25 29.097656 79.105469 C 28.941406 78.960938 28.691406 78.960938 28.546875 79.105469 Z M 28.546875 79.105469 " fill-opacity="1" fill-rule="nonzero"/><path fill="#6644a8" d="M 13.402344 76.226562 C 13.257812 76.382812 13.257812 76.632812 13.402344 76.777344 C 15.164062 78.542969 17.492188 79.421875 19.804688 79.421875 C 22.117188 79.421875 24.445312 78.542969 26.207031 76.777344 C 26.363281 76.621094 26.363281 76.382812 26.207031 76.226562 C 26.046875 76.070312 25.8125 76.070312 25.65625 76.226562 C 22.421875 79.460938 17.175781 79.460938 13.957031 76.226562 C 13.796875 76.070312 13.546875 76.070312 13.402344 76.226562 Z M 13.402344 76.226562 " fill-opacity="1" fill-rule="nonzero"/><path fill="#6644a8" d="M 14.46875 100.488281 C 14.46875 100.644531 14.4375 100.796875 14.378906 100.941406 C 14.320312 101.085938 14.234375 101.214844 14.121094 101.324219 C 14.011719 101.433594 13.882812 101.519531 13.738281 101.582031 C 13.59375 101.640625 13.441406 101.671875 13.285156 101.671875 C 13.128906 101.671875 12.976562 101.640625 12.832031 101.582031 C 12.6875 101.519531 12.558594 101.433594 12.449219 101.324219 C 12.339844 101.214844 12.253906 101.085938 12.191406 100.941406 C 12.132812 100.796875 12.101562 100.644531 12.101562 100.488281 C 12.101562 100.332031 12.132812 100.179688 12.191406 100.035156 C 12.253906 99.890625 12.339844 99.761719 12.449219 99.652344 C 12.558594 99.539062 12.6875 99.453125 12.832031 99.394531 C 12.976562 99.332031 13.128906 99.304688 13.285156 99.304688 C 13.441406 99.304688 13.59375 99.332031 13.738281 99.394531 C 13.882812 99.453125 14.011719 99.539062 14.121094 99.652344 C 14.234375 99.761719 14.320312 99.890625 14.378906 100.035156 C 14.4375 100.179688 14.46875 100.332031 14.46875 100.488281 Z M 14.46875 100.488281 " fill-opacity="1" fill-rule="nonzero"/><path fill="#6644a8" d="M 14.46875 104.957031 C 14.46875 105.113281 14.4375 105.265625 14.378906 105.410156 C 14.320312 105.554688 14.234375 105.683594 14.121094 105.792969 C 14.011719 105.90625 13.882812 105.992188 13.738281 106.050781 C 13.59375 106.113281 13.441406 106.140625 13.285156 106.140625 C 13.128906 106.140625 12.976562 106.113281 12.832031 106.050781 C 12.6875 105.992188 12.558594 105.90625 12.449219 105.792969 C 12.339844 105.683594 12.253906 105.554688 12.191406 105.410156 C 12.132812 105.265625 12.101562 105.113281 12.101562 104.957031 C 12.101562 104.800781 12.132812 104.648438 12.191406 104.503906 C 12.253906 104.359375 12.339844 104.230469 12.449219 104.121094 C 12.558594 104.011719 12.6875 103.925781 12.832031 103.863281 C 12.976562 103.804688 13.128906 103.773438 13.285156 103.773438 C 13.441406 103.773438 13.59375 103.804688 13.738281 103.863281 C 13.882812 103.925781 14.011719 104.011719 14.121094 104.121094 C 14.234375 104.230469 14.320312 104.359375 14.378906 104.503906 C 14.4375 104.648438 14.46875 104.800781 14.46875 104.957031 Z M 14.46875 104.957031 " fill-opacity="1" fill-rule="nonzero"/><path fill="#6644a8" d="M 14.46875 109.429688 C 14.46875 109.585938 14.4375 109.738281 14.378906 109.882812 C 14.320312 110.027344 14.234375 110.15625 14.121094 110.265625 C 14.011719 110.375 13.882812 110.460938 13.738281 110.523438 C 13.59375 110.582031 13.441406 110.613281 13.285156 110.613281 C 13.128906 110.613281 12.976562 110.582031 12.832031 110.523438 C 12.6875 110.460938 12.558594 110.375 12.449219 110.265625 C 12.339844 110.15625 12.253906 110.027344 12.191406 109.882812 C 12.132812 109.738281 12.101562 109.585938 12.101562 109.429688 C 12.101562 109.273438 12.132812 109.121094 12.191406 108.976562 C 12.253906 108.832031 12.339844 108.703125 12.449219 108.59375 C 12.558594 108.480469 12.6875 108.394531 12.832031 108.335938 C 12.976562 108.277344 13.128906 108.246094 13.285156 108.246094 C 13.441406 108.246094 13.59375 108.277344 13.738281 108.335938 C 13.882812 108.394531 14.011719 108.480469 14.121094 108.59375 C 14.234375 108.703125 14.320312 108.832031 14.378906 108.976562 C 14.4375 109.121094 14.46875 109.273438 14.46875 109.429688 Z M 14.46875 109.429688 " fill-opacity="1" fill-rule="nonzero"/><path fill="#6644a8" d="M 161.957031 63.0625 C 161.957031 63.222656 161.929688 63.371094 161.867188 63.515625 C 161.808594 63.664062 161.722656 63.789062 161.613281 63.902344 C 161.5 64.011719 161.371094 64.097656 161.226562 64.15625 C 161.082031 64.21875 160.933594 64.246094 160.777344 64.246094 C 160.617188 64.246094 160.46875 64.21875 160.324219 64.15625 C 160.179688 64.097656 160.050781 64.011719 159.9375 63.902344 C 159.828125 63.789062 159.742188 63.664062 159.683594 63.515625 C 159.621094 63.371094 159.59375 63.222656 159.59375 63.0625 C 159.59375 62.90625 159.621094 62.757812 159.683594 62.613281 C 159.742188 62.464844 159.828125 62.339844 159.9375 62.226562 C 160.050781 62.117188 160.179688 62.03125 160.324219 61.972656 C 160.46875 61.910156 160.617188 61.878906 160.777344 61.878906 C 160.933594 61.878906 161.082031 61.910156 161.226562 61.972656 C 161.371094 62.03125 161.5 62.117188 161.613281 62.226562 C 161.722656 62.339844 161.808594 62.464844 161.867188 62.613281 C 161.929688 62.757812 161.957031 62.90625 161.957031 63.0625 Z M 161.957031 63.0625 " fill-opacity="1" fill-rule="nonzero"/><path fill="#6644a8" d="M 161.957031 67.535156 C 161.957031 67.691406 161.929688 67.84375 161.867188 67.988281 C 161.808594 68.132812 161.722656 68.261719 161.613281 68.371094 C 161.5 68.484375 161.371094 68.566406 161.226562 68.628906 C 161.082031 68.6875 160.933594 68.71875 160.777344 68.71875 C 160.617188 68.71875 160.46875 68.6875 160.324219 68.628906 C 160.179688 68.566406 160.050781 68.484375 159.9375 68.371094 C 159.828125 68.261719 159.742188 68.132812 159.683594 67.988281 C 159.621094 67.84375 159.59375 67.691406 159.59375 67.535156 C 159.59375 67.378906 159.621094 67.226562 159.683594 67.082031 C 159.742188 66.9375 159.828125 66.808594 159.9375 66.699219 C 160.050781 66.585938 160.179688 66.5 160.324219 66.441406 C 160.46875 66.382812 160.617188 66.351562 160.777344 66.351562 C 160.933594 66.351562 161.082031 66.382812 161.226562 66.441406 C 161.371094 66.5 161.5 66.585938 161.613281 66.699219 C 161.722656 66.808594 161.808594 66.9375 161.867188 67.082031 C 161.929688 67.226562 161.957031 67.378906 161.957031 67.535156 Z M 161.957031 67.535156 " fill-opacity="1" fill-rule="nonzero"/><path fill="#6644a8" d="M 161.957031 72.003906 C 161.957031 72.164062 161.929688 72.3125 161.867188 72.457031 C 161.808594 72.605469 161.722656 72.730469 161.613281 72.84375 C 161.5 72.953125 161.371094 73.039062 161.226562 73.097656 C 161.082031 73.160156 160.933594 73.1875 160.777344 73.1875 C 160.617188 73.1875 160.46875 73.160156 160.324219 73.097656 C 160.179688 73.039062 160.050781 72.953125 159.9375 72.84375 C 159.828125 72.730469 159.742188 72.605469 159.683594 72.457031 C 159.621094 72.3125 159.59375 72.164062 159.59375 72.003906 C 159.59375 71.847656 159.621094 71.699219 159.683594 71.554688 C 159.742188 71.40625 159.828125 71.28125 159.9375 71.167969 C 160.050781 71.058594 160.179688 70.972656 160.324219 70.914062 C 160.46875 70.851562 160.617188 70.824219 160.777344 70.824219 C 160.933594 70.824219 161.082031 70.851562 161.226562 70.914062 C 161.371094 70.972656 161.5 71.058594 161.613281 71.167969 C 161.722656 71.28125 161.808594 71.40625 161.867188 71.554688 C 161.929688 71.699219 161.957031 71.847656 161.957031 72.003906 Z M 161.957031 72.003906 " fill-opacity="1" fill-rule="nonzero"/><path fill="#6644a8" d="M 29.808594 48.363281 C 29.453125 48.363281 29.152344 48.074219 29.152344 47.707031 L 29.152344 33.425781 C 29.152344 33.070312 29.441406 32.769531 29.808594 32.769531 C 30.175781 32.769531 30.464844 33.058594 30.464844 33.425781 L 30.464844 47.707031 C 30.464844 48.0625 30.175781 48.363281 29.808594 48.363281 Z M 29.808594 48.363281 " fill-opacity="1" fill-rule="nonzero"/><path fill="#6644a8" d="M 174.433594 118.382812 C 174.128906 118.382812 173.894531 118.132812 173.894531 117.832031 L 173.894531 105.929688 C 173.894531 105.628906 174.144531 105.390625 174.433594 105.390625 C 174.734375 105.390625 174.984375 105.640625 174.984375 105.929688 L 174.984375 117.832031 C 174.984375 118.148438 174.734375 118.382812 174.433594 118.382812 Z M 174.433594 118.382812 " fill-opacity="1" fill-rule="nonzero"/><path fill="#6644a8" d="M 174.433594 104.578125 C 174.128906 104.578125 173.894531 104.328125 173.894531 104.023438 L 173.894531 99.699219 C 173.894531 99.394531 174.144531 99.160156 174.433594 99.160156 C 174.734375 99.160156 174.984375 99.410156 174.984375 99.699219 L 174.984375 104.023438 C 174.984375 104.339844 174.734375 104.578125 174.433594 104.578125 Z M 174.433594 104.578125 " fill-opacity="1" fill-rule="nonzero"/><path fill="#6644a8" d="M 120.503906 73.769531 C 120.503906 73.925781 120.472656 74.074219 120.410156 74.21875 C 120.351562 74.367188 120.265625 74.492188 120.15625 74.605469 C 120.042969 74.714844 119.917969 74.800781 119.773438 74.859375 C 119.625 74.921875 119.476562 74.953125 119.320312 74.953125 C 119.164062 74.953125 119.011719 74.921875 118.867188 74.859375 C 118.722656 74.800781 118.59375 74.714844 118.484375 74.605469 C 118.371094 74.492188 118.285156 74.367188 118.226562 74.21875 C 118.167969 74.074219 118.136719 73.925781 118.136719 73.769531 C 118.136719 73.609375 118.167969 73.460938 118.226562 73.316406 C 118.285156 73.171875 118.371094 73.042969 118.484375 72.929688 C 118.59375 72.820312 118.722656 72.734375 118.867188 72.675781 C 119.011719 72.613281 119.164062 72.585938 119.320312 72.585938 C 119.476562 72.585938 119.625 72.613281 119.773438 72.675781 C 119.917969 72.734375 120.042969 72.820312 120.15625 72.929688 C 120.265625 73.042969 120.351562 73.171875 120.410156 73.316406 C 120.472656 73.460938 120.503906 73.609375 120.503906 73.769531 Z M 120.503906 73.769531 " fill-opacity="1" fill-rule="nonzero"/><path fill="#6644a8" d="M 120.503906 69.296875 C 120.503906 69.453125 120.472656 69.605469 120.410156 69.75 C 120.351562 69.894531 120.265625 70.023438 120.15625 70.132812 C 120.042969 70.246094 119.917969 70.332031 119.773438 70.390625 C 119.625 70.449219 119.476562 70.480469 119.320312 70.480469 C 119.164062 70.480469 119.011719 70.449219 118.867188 70.390625 C 118.722656 70.332031 118.59375 70.246094 118.484375 70.132812 C 118.371094 70.023438 118.285156 69.894531 118.226562 69.75 C 118.167969 69.605469 118.136719 69.453125 118.136719 69.296875 C 118.136719 69.140625 118.167969 68.988281 118.226562 68.84375 C 118.285156 68.699219 118.371094 68.570312 118.484375 68.460938 C 118.59375 68.347656 118.722656 68.265625 118.867188 68.203125 C 119.011719 68.144531 119.164062 68.113281 119.320312 68.113281 C 119.476562 68.113281 119.625 68.144531 119.773438 68.203125 C 119.917969 68.265625 120.042969 68.347656 120.15625 68.460938 C 120.265625 68.570312 120.351562 68.699219 120.410156 68.84375 C 120.472656 68.988281 120.503906 69.140625 120.503906 69.296875 Z M 120.503906 69.296875 " fill-opacity="1" fill-rule="nonzero"/><path fill="#6644a8" d="M 120.503906 64.828125 C 120.503906 64.984375 120.472656 65.132812 120.410156 65.277344 C 120.351562 65.425781 120.265625 65.550781 120.15625 65.664062 C 120.042969 65.773438 119.917969 65.859375 119.773438 65.917969 C 119.625 65.980469 119.476562 66.007812 119.320312 66.007812 C 119.164062 66.007812 119.011719 65.980469 118.867188 65.917969 C 118.722656 65.859375 118.59375 65.773438 118.484375 65.664062 C 118.371094 65.550781 118.285156 65.425781 118.226562 65.277344 C 118.167969 65.132812 118.136719 64.984375 118.136719 64.828125 C 118.136719 64.667969 118.167969 64.519531 118.226562 64.375 C 118.285156 64.226562 118.371094 64.101562 118.484375 63.988281 C 118.59375 63.878906 118.722656 63.792969 118.867188 63.734375 C 119.011719 63.671875 119.164062 63.644531 119.320312 63.644531 C 119.476562 63.644531 119.625 63.671875 119.773438 63.734375 C 119.917969 63.792969 120.042969 63.878906 120.15625 63.988281 C 120.265625 64.101562 120.351562 64.226562 120.410156 64.375 C 120.472656 64.519531 120.503906 64.667969 120.503906 64.828125 Z M 120.503906 64.828125 " fill-opacity="1" fill-rule="nonzero"/><path fill="#6644a8" d="M 86.355469 47.5625 C 86.355469 47.71875 86.324219 47.867188 86.261719 48.015625 C 86.203125 48.160156 86.117188 48.285156 86.007812 48.398438 C 85.894531 48.507812 85.769531 48.59375 85.625 48.65625 C 85.476562 48.714844 85.328125 48.746094 85.171875 48.746094 C 85.015625 48.746094 84.863281 48.714844 84.71875 48.65625 C 84.574219 48.59375 84.445312 48.507812 84.335938 48.398438 C 84.222656 48.285156 84.136719 48.160156 84.078125 48.015625 C 84.019531 47.867188 83.988281 47.71875 83.988281 47.5625 C 83.988281 47.402344 84.019531 47.253906 84.078125 47.109375 C 84.136719 46.964844 84.222656 46.835938 84.335938 46.722656 C 84.445312 46.613281 84.574219 46.527344 84.71875 46.46875 C 84.863281 46.40625 85.015625 46.378906 85.171875 46.378906 C 85.328125 46.378906 85.476562 46.40625 85.625 46.46875 C 85.769531 46.527344 85.894531 46.613281 86.007812 46.722656 C 86.117188 46.835938 86.203125 46.964844 86.261719 47.109375 C 86.324219 47.253906 86.355469 47.402344 86.355469 47.5625 Z M 86.355469 47.5625 " fill-opacity="1" fill-rule="nonzero"/><path fill="#6644a8" d="M 81.882812 47.5625 C 81.882812 47.71875 81.855469 47.867188 81.792969 48.015625 C 81.734375 48.160156 81.648438 48.285156 81.539062 48.398438 C 81.425781 48.507812 81.300781 48.59375 81.15625 48.65625 C 81.007812 48.714844 80.859375 48.746094 80.703125 48.746094 C 80.542969 48.746094 80.394531 48.714844 80.25 48.65625 C 80.105469 48.59375 79.976562 48.507812 79.867188 48.398438 C 79.753906 48.285156 79.667969 48.160156 79.609375 48.015625 C 79.546875 47.867188 79.519531 47.71875 79.519531 47.5625 C 79.519531 47.402344 79.546875 47.253906 79.609375 47.109375 C 79.667969 46.964844 79.753906 46.835938 79.867188 46.722656 C 79.976562 46.613281 80.105469 46.527344 80.25 46.46875 C 80.394531 46.40625 80.542969 46.378906 80.703125 46.378906 C 80.859375 46.378906 81.007812 46.40625 81.15625 46.46875 C 81.300781 46.527344 81.425781 46.613281 81.539062 46.722656 C 81.648438 46.835938 81.734375 46.964844 81.792969 47.109375 C 81.855469 47.253906 81.882812 47.402344 81.882812 47.5625 Z M 81.882812 47.5625 " fill-opacity="1" fill-rule="nonzero"/><path fill="#6644a8" d="M 77.414062 47.5625 C 77.414062 47.71875 77.386719 47.867188 77.324219 48.015625 C 77.265625 48.160156 77.179688 48.285156 77.070312 48.398438 C 76.957031 48.507812 76.832031 48.59375 76.683594 48.65625 C 76.539062 48.714844 76.390625 48.746094 76.234375 48.746094 C 76.074219 48.746094 75.925781 48.714844 75.78125 48.65625 C 75.636719 48.59375 75.507812 48.507812 75.394531 48.398438 C 75.285156 48.285156 75.199219 48.160156 75.140625 48.015625 C 75.078125 47.867188 75.050781 47.71875 75.050781 47.5625 C 75.050781 47.402344 75.078125 47.253906 75.140625 47.109375 C 75.199219 46.964844 75.285156 46.835938 75.394531 46.722656 C 75.507812 46.613281 75.636719 46.527344 75.78125 46.46875 C 75.925781 46.40625 76.074219 46.378906 76.234375 46.378906 C 76.390625 46.378906 76.539062 46.40625 76.683594 46.46875 C 76.832031 46.527344 76.957031 46.613281 77.070312 46.722656 C 77.179688 46.835938 77.265625 46.964844 77.324219 47.109375 C 77.386719 47.253906 77.414062 47.402344 77.414062 47.5625 Z M 77.414062 47.5625 " fill-opacity="1" fill-rule="nonzero"/><path fill="#6644a8" d="M 138.089844 165.023438 C 137.761719 165.023438 137.496094 164.761719 137.496094 164.433594 L 137.496094 127.546875 C 137.496094 127.21875 137.761719 126.957031 138.089844 126.957031 C 138.417969 126.957031 138.679688 127.21875 138.679688 127.546875 L 138.679688 164.417969 C 138.679688 164.761719 138.417969 165.023438 138.089844 165.023438 Z M 138.089844 165.023438 " fill-opacity="1" fill-rule="nonzero"/><path fill="#6644a8" d="M 144.070312 138.804688 C 143.742188 138.804688 143.476562 138.542969 143.476562 138.210938 L 143.476562 132.808594 C 143.476562 132.480469 143.742188 132.214844 144.070312 132.214844 C 144.398438 132.214844 144.660156 132.480469 144.660156 132.808594 L 144.660156 138.210938 C 144.660156 138.542969 144.398438 138.804688 144.070312 138.804688 Z M 144.070312 138.804688 " fill-opacity="1" fill-rule="nonzero"/><path fill="#6644a8" d="M 144.070312 154.347656 C 143.742188 154.347656 143.476562 154.085938 143.476562 153.753906 L 143.476562 141.972656 C 143.476562 141.644531 143.742188 141.382812 144.070312 141.382812 C 144.398438 141.382812 144.660156 141.644531 144.660156 141.972656 L 144.660156 153.753906 C 144.660156 154.085938 144.398438 154.347656 144.070312 154.347656 Z M 144.070312 154.347656 " fill-opacity="1" fill-rule="nonzero"/><path fill="#6644a8" d="M 138.074219 124.207031 C 136.972656 124.207031 136.078125 123.316406 136.078125 122.210938 C 136.078125 121.105469 136.972656 120.199219 138.074219 120.199219 C 139.179688 120.199219 140.085938 121.105469 140.085938 122.210938 C 140.085938 123.300781 139.191406 124.207031 138.074219 124.207031 Z M 138.074219 124.207031 " fill-opacity="1" fill-rule="nonzero"/><path fill="#6644a8" d="M 144.070312 161.054688 C 142.964844 161.054688 142.070312 160.160156 142.070312 159.054688 C 142.070312 157.949219 142.964844 157.042969 144.070312 157.042969 C 145.171875 157.042969 146.082031 157.949219 146.082031 159.054688 C 146.082031 160.144531 145.171875 161.054688 144.070312 161.054688 Z M 144.070312 161.054688 " fill-opacity="1" fill-rule="nonzero"/><path fill="#000000" d="M 165.058594 142.933594 C 165.191406 142.800781 165.191406 142.589844 165.058594 142.472656 C 164.929688 142.339844 164.71875 142.339844 164.601562 142.472656 C 163.484375 143.589844 161.667969 143.589844 160.566406 142.472656 C 160.433594 142.339844 160.222656 142.339844 160.105469 142.472656 C 159.972656 142.605469 159.972656 142.816406 160.105469 142.933594 C 160.789062 143.617188 161.695312 143.960938 162.589844 143.960938 C 163.46875 143.960938 164.375 143.617188 165.058594 142.933594 Z M 165.058594 142.933594 " fill-opacity="0.098" fill-rule="nonzero"/><path fill="#000000" d="M 169.9375 147.339844 C 165.875 151.402344 159.277344 151.402344 155.230469 147.339844 C 155.097656 147.207031 154.886719 147.207031 154.769531 147.339844 C 154.636719 147.46875 154.636719 147.679688 154.769531 147.796875 C 156.925781 149.957031 159.761719 151.035156 162.589844 151.035156 C 165.414062 151.035156 168.253906 149.957031 170.410156 147.796875 C 170.542969 147.667969 170.542969 147.457031 170.410156 147.339844 C 170.265625 147.207031 170.054688 147.207031 169.9375 147.339844 Z M 169.9375 147.339844 " fill-opacity="0.098" fill-rule="nonzero"/><path fill="#000000" d="M 157.1875 144.90625 C 157.054688 145.039062 157.054688 145.246094 157.1875 145.367188 C 158.671875 146.851562 160.628906 147.589844 162.574219 147.589844 C 164.519531 147.589844 166.480469 146.851562 167.964844 145.367188 C 168.097656 145.234375 168.097656 145.023438 167.964844 144.90625 C 167.832031 144.773438 167.625 144.773438 167.503906 144.90625 C 164.785156 147.628906 160.367188 147.628906 157.660156 144.90625 C 157.527344 144.773438 157.320312 144.773438 157.1875 144.90625 Z M 157.1875 144.90625 " fill-opacity="0.098" fill-rule="nonzero"/><path fill="#6644a8" d="M 164.546875 142.132812 C 164.679688 142 164.679688 141.789062 164.546875 141.671875 C 164.417969 141.539062 164.207031 141.539062 164.085938 141.671875 C 162.96875 142.789062 161.15625 142.789062 160.050781 141.671875 C 159.921875 141.539062 159.710938 141.539062 159.59375 141.671875 C 159.460938 141.800781 159.460938 142.011719 159.59375 142.132812 C 160.277344 142.816406 161.183594 143.15625 162.078125 143.15625 C 162.957031 143.15625 163.863281 142.816406 164.546875 142.132812 Z M 164.546875 142.132812 " fill-opacity="1" fill-rule="nonzero"/><path fill="#6644a8" d="M 169.425781 146.535156 C 165.363281 150.597656 158.765625 150.597656 154.714844 146.535156 C 154.585938 146.40625 154.375 146.40625 154.257812 146.535156 C 154.136719 146.667969 154.125 146.878906 154.257812 146.996094 C 156.410156 149.152344 159.25 150.230469 162.078125 150.230469 C 164.902344 150.230469 167.742188 149.152344 169.898438 146.996094 C 170.027344 146.863281 170.027344 146.65625 169.898438 146.535156 C 169.753906 146.417969 169.542969 146.417969 169.425781 146.535156 Z M 169.425781 146.535156 " fill-opacity="1" fill-rule="nonzero"/><path fill="#6644a8" d="M 156.675781 144.105469 C 156.542969 144.234375 156.542969 144.445312 156.675781 144.5625 C 158.160156 146.050781 160.117188 146.785156 162.0625 146.785156 C 164.007812 146.785156 165.96875 146.050781 167.453125 144.5625 C 167.585938 144.433594 167.585938 144.222656 167.453125 144.105469 C 167.320312 143.984375 167.109375 143.972656 166.992188 144.105469 C 164.273438 146.824219 159.855469 146.824219 157.148438 144.105469 C 157.015625 143.984375 156.804688 143.984375 156.675781 144.105469 Z M 156.675781 144.105469 " fill-opacity="1" fill-rule="nonzero"/><g clip-path="url(#459eb5ef4d)"><path fill="#6644a8" d="M 7.6875 56.503906 C 6.582031 56.503906 5.6875 55.609375 5.6875 54.503906 C 5.6875 53.398438 6.582031 52.492188 7.6875 52.492188 C 8.789062 52.492188 9.699219 53.398438 9.699219 54.503906 C 9.699219 55.609375 8.804688 56.503906 7.6875 56.503906 Z M 7.6875 56.503906 " fill-opacity="1" fill-rule="nonzero"/></g><path fill="#6644a8" d="M 19.042969 31.03125 C 17.464844 31.03125 16.175781 29.742188 16.175781 28.164062 C 16.175781 26.574219 17.464844 25.285156 19.042969 25.285156 C 20.632812 25.285156 21.921875 26.574219 21.921875 28.164062 C 21.921875 29.742188 20.621094 31.03125 19.042969 31.03125 Z M 19.042969 31.03125 " fill-opacity="1" fill-rule="nonzero"/><path fill="#000000" d="M 167.898438 110.203125 C 167.898438 112.570312 165.980469 114.476562 163.628906 114.476562 L 157.621094 114.476562 L 157.621094 111.664062 L 161.300781 111.664062 L 154.164062 104.589844 L 147.027344 111.664062 L 150.707031 111.664062 L 150.707031 114.476562 L 145.804688 114.476562 C 142.847656 114.476562 140.429688 112.058594 140.429688 109.101562 C 140.429688 106.195312 142.730469 103.8125 145.59375 103.695312 C 146.34375 100.644531 149.089844 98.410156 152.351562 98.410156 C 155.609375 98.410156 158.355469 100.644531 159.132812 103.695312 L 159.316406 103.695312 C 161.128906 103.695312 162.722656 104.589844 163.707031 105.929688 C 166.019531 105.96875 167.898438 107.851562 167.898438 110.203125 Z M 167.898438 110.203125 " fill-opacity="0.098" fill-rule="nonzero"/><path fill="#6644a8" d="M 165.558594 107.851562 C 165.558594 110.21875 163.640625 112.125 161.289062 112.125 L 155.28125 112.125 L 155.28125 109.308594 L 158.960938 109.308594 L 151.824219 102.234375 L 144.6875 109.308594 L 148.367188 109.308594 L 148.367188 112.125 L 143.464844 112.125 C 140.507812 112.125 138.089844 109.703125 138.089844 106.746094 C 138.089844 103.839844 140.390625 101.460938 143.253906 101.34375 C 144.003906 98.292969 146.75 96.054688 150.011719 96.054688 C 153.269531 96.054688 156.015625 98.292969 156.792969 101.34375 L 156.976562 101.34375 C 158.789062 101.34375 160.382812 102.234375 161.367188 103.578125 C 163.679688 103.628906 165.558594 105.511719 165.558594 107.851562 Z M 165.558594 107.851562 " fill-opacity="1" fill-rule="nonzero"/><path fill="#000000" d="M 59.972656 56.476562 L 49.539062 56.476562 C 49.328125 55.359375 48.484375 54.492188 47.34375 54.28125 L 47.34375 51.203125 L 57.960938 51.203125 C 58.226562 51.203125 58.4375 50.992188 58.4375 50.730469 L 58.4375 36.777344 C 58.4375 36.527344 58.226562 36.320312 57.960938 36.320312 L 49.078125 36.320312 L 49.078125 32.714844 C 49.078125 32.464844 48.855469 32.253906 48.605469 32.253906 L 35.25 32.253906 C 34.988281 32.253906 34.777344 32.464844 34.777344 32.714844 L 34.777344 50.71875 C 34.777344 50.980469 34.988281 51.191406 35.25 51.191406 L 46.421875 51.191406 L 46.421875 54.28125 C 45.304688 54.464844 44.449219 55.332031 44.238281 56.464844 L 34.449219 56.464844 C 34.199219 56.464844 33.988281 56.671875 33.988281 56.9375 C 33.988281 57.1875 34.199219 57.398438 34.449219 57.398438 L 44.238281 57.398438 C 44.449219 58.527344 45.292969 59.382812 46.421875 59.59375 L 46.421875 65.273438 C 45.1875 65.496094 44.238281 66.535156 44.238281 67.824219 C 44.238281 69.296875 45.421875 70.480469 46.894531 70.480469 C 48.367188 70.480469 49.550781 69.296875 49.550781 67.824219 C 49.550781 66.535156 48.605469 65.484375 47.367188 65.273438 L 47.367188 59.59375 C 48.484375 59.382812 49.339844 58.539062 49.550781 57.398438 L 59.988281 57.398438 C 60.238281 57.398438 60.445312 57.1875 60.445312 56.9375 C 60.433594 56.671875 60.238281 56.476562 59.972656 56.476562 Z M 38.929688 40.566406 L 53.863281 40.566406 C 54.109375 40.566406 54.335938 40.789062 54.335938 41.039062 C 54.335938 41.289062 54.109375 41.511719 53.863281 41.511719 L 38.929688 41.511719 C 38.679688 41.511719 38.457031 41.289062 38.457031 41.039062 C 38.457031 40.789062 38.667969 40.566406 38.929688 40.566406 Z M 38.929688 43.628906 L 53.863281 43.628906 C 54.109375 43.628906 54.335938 43.839844 54.335938 44.101562 C 54.335938 44.351562 54.109375 44.578125 53.863281 44.578125 L 38.929688 44.578125 C 38.679688 44.578125 38.457031 44.351562 38.457031 44.101562 C 38.457031 43.839844 38.667969 43.628906 38.929688 43.628906 Z M 38.929688 47.640625 C 38.679688 47.640625 38.457031 47.417969 38.457031 47.167969 C 38.457031 46.917969 38.679688 46.691406 38.929688 46.691406 L 53.863281 46.691406 C 54.109375 46.691406 54.335938 46.917969 54.335938 47.167969 C 54.335938 47.417969 54.109375 47.640625 53.863281 47.640625 Z M 38.929688 47.640625 " fill-opacity="0.098" fill-rule="nonzero"/><path fill="#6644a8" d="M 58.394531 54.898438 L 47.960938 54.898438 C 47.75 53.78125 46.910156 52.914062 45.765625 52.703125 L 45.765625 49.625 L 56.386719 49.625 C 56.648438 49.625 56.859375 49.414062 56.859375 49.152344 L 56.859375 35.199219 C 56.859375 34.949219 56.648438 34.742188 56.386719 34.742188 L 47.5 34.742188 L 47.5 31.136719 C 47.5 30.886719 47.277344 30.675781 47.027344 30.675781 L 33.671875 30.675781 C 33.410156 30.675781 33.199219 30.886719 33.199219 31.136719 L 33.199219 49.140625 C 33.199219 49.402344 33.410156 49.613281 33.671875 49.613281 L 44.84375 49.613281 L 44.84375 52.703125 C 43.726562 52.886719 42.875 53.753906 42.664062 54.886719 L 32.871094 54.886719 C 32.621094 54.886719 32.410156 55.097656 32.410156 55.359375 C 32.410156 55.609375 32.621094 55.820312 32.871094 55.820312 L 42.664062 55.820312 C 42.875 56.949219 43.714844 57.804688 44.84375 58.015625 L 44.84375 63.695312 C 43.609375 63.917969 42.664062 64.957031 42.664062 66.246094 C 42.664062 67.71875 43.847656 68.902344 45.316406 68.902344 C 46.789062 68.902344 47.972656 67.71875 47.972656 66.246094 C 47.972656 64.957031 47.027344 63.90625 45.792969 63.695312 L 45.792969 58.015625 C 46.910156 57.804688 47.761719 56.964844 47.972656 55.820312 L 58.410156 55.820312 C 58.660156 55.820312 58.871094 55.609375 58.871094 55.359375 C 58.855469 55.097656 58.660156 54.898438 58.394531 54.898438 Z M 37.351562 38.988281 L 52.285156 38.988281 C 52.535156 38.988281 52.757812 39.210938 52.757812 39.460938 C 52.757812 39.710938 52.535156 39.933594 52.285156 39.933594 L 37.351562 39.933594 C 37.101562 39.933594 36.878906 39.710938 36.878906 39.460938 C 36.878906 39.210938 37.089844 38.988281 37.351562 38.988281 Z M 37.351562 42.050781 L 52.285156 42.050781 C 52.535156 42.050781 52.757812 42.261719 52.757812 42.523438 C 52.757812 42.773438 52.535156 43 52.285156 43 L 37.351562 43 C 37.101562 43 36.878906 42.773438 36.878906 42.523438 C 36.878906 42.261719 37.089844 42.050781 37.351562 42.050781 Z M 37.351562 46.0625 C 37.101562 46.0625 36.878906 45.839844 36.878906 45.589844 C 36.878906 45.339844 37.101562 45.117188 37.351562 45.117188 L 52.285156 45.117188 C 52.535156 45.117188 52.757812 45.339844 52.757812 45.589844 C 52.757812 45.839844 52.535156 46.0625 52.285156 46.0625 Z M 37.351562 46.0625 " fill-opacity="1" fill-rule="nonzero"/><path fill="#6644a8" d="M 16.609375 145.339844 L 20.332031 150.125 L 17.558594 150.125 L 13.851562 145.339844 L 17.558594 140.566406 L 20.332031 140.566406 Z M 16.609375 145.339844 " fill-opacity="1" fill-rule="nonzero"/><path fill="#6644a8" d="M 31.78125 145.339844 L 28.058594 150.125 L 30.832031 150.125 L 34.554688 145.339844 L 30.832031 140.566406 L 28.058594 140.566406 Z M 31.78125 145.339844 " fill-opacity="1" fill-rule="nonzero"/><path fill="#6644a8" d="M 23.027344 152.519531 L 28.507812 137.382812 L 26.613281 137.382812 L 21.144531 152.519531 Z M 23.027344 152.519531 " fill-opacity="1" fill-rule="nonzero"/><path fill="#000000" d="M 130.375 109.324219 C 130.375 109.335938 130.359375 109.335938 130.359375 109.351562 L 130.359375 153.992188 C 130.359375 158.882812 126.390625 162.855469 121.515625 162.855469 L 55.765625 162.855469 C 50.878906 162.855469 46.910156 158.882812 46.910156 153.992188 L 46.910156 97.859375 C 46.910156 92.964844 50.878906 88.996094 55.765625 88.996094 L 121.515625 88.996094 C 126.390625 88.996094 130.359375 92.964844 130.359375 97.859375 L 130.359375 109.285156 C 130.359375 109.296875 130.375 109.308594 130.375 109.324219 Z M 130.375 109.324219 " fill-opacity="0.098" fill-rule="nonzero"/><path fill="#6644a8" d="M 89.375 79.421875 C 89.246094 79.421875 89.128906 79.371094 89.035156 79.277344 L 87.246094 77.488281 C 87.050781 77.292969 87.050781 76.988281 87.246094 76.792969 C 87.445312 76.59375 87.746094 76.59375 87.945312 76.792969 L 89.730469 78.582031 C 89.929688 78.777344 89.929688 79.082031 89.730469 79.277344 C 89.640625 79.371094 89.507812 79.421875 89.375 79.421875 Z M 89.375 79.421875 " fill-opacity="1" fill-rule="nonzero"/><path fill="#6644a8" d="M 93.453125 75.347656 C 93.320312 75.347656 93.203125 75.292969 93.109375 75.199219 L 91.320312 73.414062 C 91.125 73.214844 91.125 72.914062 91.320312 72.714844 C 91.519531 72.519531 91.820312 72.519531 92.019531 72.714844 L 93.804688 74.503906 C 94.003906 74.703125 94.003906 75.003906 93.804688 75.199219 C 93.703125 75.304688 93.582031 75.347656 93.453125 75.347656 Z M 93.453125 75.347656 " fill-opacity="1" fill-rule="nonzero"/><path fill="#6644a8" d="M 87.589844 75.347656 C 87.457031 75.347656 87.339844 75.292969 87.246094 75.199219 C 87.050781 75.003906 87.050781 74.703125 87.246094 74.503906 L 89.035156 72.714844 C 89.230469 72.519531 89.535156 72.519531 89.730469 72.714844 C 89.929688 72.914062 89.929688 73.214844 89.730469 73.414062 L 87.945312 75.199219 C 87.851562 75.304688 87.71875 75.347656 87.589844 75.347656 Z M 87.589844 75.347656 " fill-opacity="1" fill-rule="nonzero"/><path fill="#6644a8" d="M 91.664062 79.421875 C 91.53125 79.421875 91.414062 79.371094 91.320312 79.277344 C 91.125 79.082031 91.125 78.777344 91.320312 78.582031 L 93.109375 76.792969 C 93.308594 76.59375 93.609375 76.59375 93.804688 76.792969 C 94.003906 76.988281 94.003906 77.292969 93.804688 77.488281 L 92.019531 79.277344 C 91.914062 79.371094 91.796875 79.421875 91.664062 79.421875 Z M 91.664062 79.421875 " fill-opacity="1" fill-rule="nonzero"/><path fill="#ffffff" d="M 99.972656 135.542969 L 99.972656 128.457031 L 95.316406 135.542969 Z M 99.972656 135.542969 " fill-opacity="1" fill-rule="nonzero"/><path fill="#ffffff" d="M 74.128906 135.542969 L 74.128906 128.457031 L 69.476562 135.542969 Z M 74.128906 135.542969 " fill-opacity="1" fill-rule="nonzero"/><path fill="#ffffff" d="M 90.757812 95.015625 C 89.730469 95.015625 88.890625 95.859375 88.890625 96.882812 C 88.890625 97.921875 89.730469 98.75 90.757812 98.75 C 91.78125 98.75 92.625 97.910156 92.625 96.882812 C 92.625 95.84375 91.78125 95.015625 90.757812 95.015625 Z M 90.757812 95.015625 " fill-opacity="1" fill-rule="nonzero"/><path fill="#ffffff" d="M 114.257812 95.015625 C 113.234375 95.015625 112.390625 95.859375 112.390625 96.882812 C 112.390625 97.921875 113.234375 98.75 114.257812 98.75 C 115.285156 98.75 116.125 97.910156 116.125 96.882812 C 116.136719 95.84375 115.296875 95.015625 114.257812 95.015625 Z M 114.257812 95.015625 " fill-opacity="1" fill-rule="nonzero"/><path fill="#ffffff" d="M 102.507812 95.015625 C 101.484375 95.015625 100.640625 95.859375 100.640625 96.882812 C 100.640625 97.921875 101.484375 98.75 102.507812 98.75 C 103.53125 98.75 104.375 97.910156 104.375 96.882812 C 104.375 95.84375 103.546875 95.015625 102.507812 95.015625 Z M 102.507812 95.015625 " fill-opacity="1" fill-rule="nonzero"/><path fill="#6644a8" d="M 127.730469 106.65625 L 127.730469 95.226562 C 127.730469 90.335938 123.761719 86.363281 118.886719 86.363281 L 53.136719 86.363281 C 48.25 86.363281 44.28125 90.335938 44.28125 95.226562 L 44.28125 151.363281 C 44.28125 156.253906 48.25 160.226562 53.136719 160.226562 L 118.886719 160.226562 C 123.761719 160.226562 127.730469 156.253906 127.730469 151.363281 L 127.730469 106.71875 C 127.730469 106.707031 127.746094 106.707031 127.746094 106.695312 C 127.746094 106.679688 127.730469 106.667969 127.730469 106.65625 Z M 46.25 95.226562 C 46.25 91.425781 49.339844 88.335938 53.136719 88.335938 L 118.886719 88.335938 C 122.683594 88.335938 125.757812 91.425781 125.757812 95.226562 L 125.757812 105.707031 L 76.273438 105.707031 L 73.027344 102.339844 C 72.828125 102.15625 72.578125 102.039062 72.316406 102.039062 L 62.640625 102.039062 C 62.40625 102.039062 62.167969 102.132812 61.984375 102.289062 L 58.09375 105.707031 L 46.25 105.707031 Z M 125.757812 151.363281 C 125.757812 155.164062 122.683594 158.253906 118.886719 158.253906 L 53.136719 158.253906 C 49.339844 158.253906 46.25 155.164062 46.25 151.363281 L 46.25 107.679688 L 58.460938 107.679688 C 58.699219 107.679688 58.933594 107.589844 59.121094 107.429688 L 63.011719 104.011719 L 71.894531 104.011719 L 75.15625 107.378906 C 75.339844 107.574219 75.589844 107.679688 75.863281 107.679688 L 125.757812 107.679688 Z M 125.757812 151.363281 " fill-opacity="1" fill-rule="nonzero"/><path fill="#ffcc33" d="M 118.886719 88.335938 L 53.136719 88.335938 C 49.339844 88.335938 46.25 91.425781 46.25 95.226562 L 46.25 105.707031 L 58.09375 105.707031 L 61.984375 102.289062 C 62.167969 102.132812 62.40625 102.039062 62.640625 102.039062 L 72.316406 102.039062 C 72.578125 102.039062 72.828125 102.15625 73.027344 102.339844 L 76.273438 105.707031 L 125.757812 105.707031 L 125.757812 95.226562 C 125.757812 91.425781 122.683594 88.335938 118.886719 88.335938 Z M 90.757812 100.738281 C 88.640625 100.738281 86.917969 99 86.917969 96.882812 C 86.917969 94.765625 88.640625 93.042969 90.757812 93.042969 C 92.875 93.042969 94.59375 94.765625 94.59375 96.882812 C 94.59375 99 92.875 100.738281 90.757812 100.738281 Z M 102.507812 100.738281 C 100.390625 100.738281 98.667969 99 98.667969 96.882812 C 98.667969 94.765625 100.390625 93.042969 102.507812 93.042969 C 104.625 93.042969 106.359375 94.765625 106.359375 96.882812 C 106.359375 99 104.625 100.738281 102.507812 100.738281 Z M 114.273438 100.738281 C 112.140625 100.738281 110.421875 99 110.421875 96.882812 C 110.421875 94.765625 112.140625 93.042969 114.273438 93.042969 C 116.386719 93.042969 118.109375 94.765625 118.109375 96.882812 C 118.109375 99 116.386719 100.738281 114.273438 100.738281 Z M 114.273438 100.738281 " fill-opacity="1" fill-rule="nonzero"/><path fill="#ffffff" d="M 75.863281 107.679688 C 75.589844 107.679688 75.339844 107.574219 75.15625 107.378906 L 71.894531 104.011719 L 63.011719 104.011719 L 59.121094 107.429688 C 58.933594 107.589844 58.699219 107.679688 58.460938 107.679688 L 46.25 107.679688 L 46.25 151.363281 C 46.25 155.164062 49.339844 158.253906 53.136719 158.253906 L 118.886719 158.253906 C 122.683594 158.253906 125.757812 155.164062 125.757812 151.363281 L 125.757812 107.679688 Z M 112.523438 115.871094 L 117.070312 115.871094 C 117.625 115.871094 118.058594 116.320312 118.058594 116.859375 C 118.058594 117.398438 117.625 117.84375 117.070312 117.84375 L 112.523438 117.84375 C 111.984375 117.84375 111.539062 117.398438 111.539062 116.859375 C 111.539062 116.320312 111.984375 115.871094 112.523438 115.871094 Z M 117.070312 126.140625 L 106.621094 126.140625 C 106.082031 126.140625 105.636719 125.695312 105.636719 125.15625 C 105.636719 124.601562 106.082031 124.167969 106.621094 124.167969 L 117.070312 124.167969 C 117.625 124.167969 118.058594 124.601562 118.058594 125.15625 C 118.058594 125.695312 117.625 126.140625 117.070312 126.140625 Z M 54.9375 115.871094 L 107.949219 115.871094 C 108.5 115.871094 108.933594 116.320312 108.933594 116.859375 C 108.933594 117.398438 108.5 117.84375 107.949219 117.84375 L 54.9375 117.84375 C 54.402344 117.84375 53.953125 117.398438 53.953125 116.859375 C 53.953125 116.320312 54.402344 115.871094 54.9375 115.871094 Z M 93.492188 137.515625 C 93.136719 137.515625 92.792969 137.320312 92.625 137.003906 C 92.453125 136.675781 92.464844 136.292969 92.675781 135.992188 L 100.128906 124.617188 C 100.378906 124.25 100.824219 124.078125 101.246094 124.207031 C 101.652344 124.328125 101.941406 124.722656 101.941406 125.15625 L 101.941406 135.542969 L 104.375 135.542969 C 104.914062 135.542969 105.359375 135.992188 105.359375 136.53125 C 105.359375 137.082031 104.914062 137.515625 104.375 137.515625 L 101.941406 137.515625 L 101.941406 141.738281 C 101.941406 142.289062 101.496094 142.722656 100.957031 142.722656 C 100.417969 142.722656 99.972656 142.289062 99.972656 141.738281 L 99.972656 137.515625 Z M 90.875 127.429688 L 90.875 139.460938 C 90.875 141.261719 89.402344 142.722656 87.601562 142.722656 L 83.828125 142.722656 C 82.03125 142.722656 80.570312 141.261719 80.570312 139.460938 L 80.570312 127.429688 C 80.570312 125.628906 82.03125 124.167969 83.828125 124.167969 L 87.601562 124.167969 C 89.402344 124.167969 90.875 125.628906 90.875 127.429688 Z M 54.9375 124.167969 L 66.835938 124.167969 C 67.386719 124.167969 67.820312 124.601562 67.820312 125.15625 C 67.820312 125.695312 67.386719 126.140625 66.835938 126.140625 L 54.9375 126.140625 C 54.402344 126.140625 53.953125 125.695312 53.953125 125.15625 C 53.953125 124.601562 54.402344 124.167969 54.9375 124.167969 Z M 54.9375 132.464844 L 62.417969 132.464844 C 62.96875 132.464844 63.402344 132.902344 63.402344 133.453125 C 63.402344 133.992188 62.96875 134.4375 62.417969 134.4375 L 54.9375 134.4375 C 54.402344 134.4375 53.953125 133.992188 53.953125 133.453125 C 53.953125 132.902344 54.402344 132.464844 54.9375 132.464844 Z M 54.9375 140.75 L 65.847656 140.75 C 66.386719 140.75 66.835938 141.199219 66.835938 141.738281 C 66.835938 142.289062 66.386719 142.722656 65.847656 142.722656 L 54.9375 142.722656 C 54.402344 142.722656 53.953125 142.289062 53.953125 141.738281 C 53.953125 141.199219 54.402344 140.75 54.9375 140.75 Z M 75.234375 151.019531 L 54.9375 151.019531 C 54.402344 151.019531 53.953125 150.585938 53.953125 150.035156 C 53.953125 149.496094 54.402344 149.046875 54.9375 149.046875 L 75.234375 149.046875 C 75.785156 149.046875 76.21875 149.496094 76.21875 150.035156 C 76.21875 150.585938 75.785156 151.019531 75.234375 151.019531 Z M 76.101562 137.515625 L 76.101562 141.738281 C 76.101562 142.289062 75.65625 142.722656 75.117188 142.722656 C 74.5625 142.722656 74.128906 142.289062 74.128906 141.738281 L 74.128906 137.515625 L 67.648438 137.515625 C 67.28125 137.515625 66.953125 137.320312 66.78125 137.003906 C 66.609375 136.675781 66.625 136.292969 66.820312 135.992188 L 74.289062 124.617188 C 74.523438 124.25 74.972656 124.078125 75.390625 124.207031 C 75.8125 124.328125 76.101562 124.722656 76.101562 125.15625 L 76.101562 135.542969 L 78.519531 135.542969 C 79.070312 135.542969 79.503906 135.992188 79.503906 136.53125 C 79.503906 137.082031 79.070312 137.515625 78.519531 137.515625 Z M 106.621094 151.019531 L 79.835938 151.019531 C 79.296875 151.019531 78.847656 150.585938 78.847656 150.035156 C 78.847656 149.496094 79.296875 149.046875 79.835938 149.046875 L 106.621094 149.046875 C 107.160156 149.046875 107.609375 149.496094 107.609375 150.035156 C 107.609375 150.585938 107.160156 151.019531 106.621094 151.019531 Z M 117.070312 151.019531 L 111.472656 151.019531 C 110.933594 151.019531 110.484375 150.585938 110.484375 150.035156 C 110.484375 149.496094 110.933594 149.046875 111.472656 149.046875 L 117.070312 149.046875 C 117.625 149.046875 118.058594 149.496094 118.058594 150.035156 C 118.058594 150.585938 117.625 151.019531 117.070312 151.019531 Z M 117.070312 142.722656 L 108.382812 142.722656 C 107.832031 142.722656 107.398438 142.289062 107.398438 141.738281 C 107.398438 141.199219 107.832031 140.75 108.382812 140.75 L 117.070312 140.75 C 117.625 140.75 118.058594 141.199219 118.058594 141.738281 C 118.058594 142.289062 117.625 142.722656 117.070312 142.722656 Z M 117.070312 134.4375 L 109.644531 134.4375 C 109.09375 134.4375 108.660156 133.992188 108.660156 133.453125 C 108.660156 132.902344 109.09375 132.464844 109.644531 132.464844 L 117.070312 132.464844 C 117.625 132.464844 118.058594 132.902344 118.058594 133.453125 C 118.058594 133.992188 117.625 134.4375 117.070312 134.4375 Z M 117.070312 134.4375 " fill-opacity="1" fill-rule="nonzero"/><path fill="#6644a8" d="M 102.507812 93.042969 C 100.390625 93.042969 98.667969 94.765625 98.667969 96.882812 C 98.667969 99 100.390625 100.738281 102.507812 100.738281 C 104.625 100.738281 106.359375 99 106.359375 96.882812 C 106.359375 94.765625 104.625 93.042969 102.507812 93.042969 Z M 102.507812 98.765625 C 101.484375 98.765625 100.640625 97.921875 100.640625 96.882812 C 100.640625 95.859375 101.484375 95.015625 102.507812 95.015625 C 103.546875 95.015625 104.386719 95.859375 104.386719 96.882812 C 104.386719 97.921875 103.546875 98.765625 102.507812 98.765625 Z M 102.507812 98.765625 " fill-opacity="1" fill-rule="nonzero"/><path fill="#6644a8" d="M 90.757812 93.042969 C 88.640625 93.042969 86.917969 94.765625 86.917969 96.882812 C 86.917969 99 88.640625 100.738281 90.757812 100.738281 C 92.875 100.738281 94.59375 99 94.59375 96.882812 C 94.59375 94.765625 92.875 93.042969 90.757812 93.042969 Z M 90.757812 98.765625 C 89.730469 98.765625 88.890625 97.921875 88.890625 96.882812 C 88.890625 95.859375 89.730469 95.015625 90.757812 95.015625 C 91.796875 95.015625 92.625 95.859375 92.625 96.882812 C 92.625 97.921875 91.796875 98.765625 90.757812 98.765625 Z M 90.757812 98.765625 " fill-opacity="1" fill-rule="nonzero"/><path fill="#6644a8" d="M 114.273438 93.042969 C 112.140625 93.042969 110.421875 94.765625 110.421875 96.882812 C 110.421875 99 112.140625 100.738281 114.273438 100.738281 C 116.386719 100.738281 118.109375 99 118.109375 96.882812 C 118.109375 94.765625 116.386719 93.042969 114.273438 93.042969 Z M 114.273438 98.765625 C 113.234375 98.765625 112.390625 97.921875 112.390625 96.882812 C 112.390625 95.859375 113.234375 95.015625 114.273438 95.015625 C 115.296875 95.015625 116.136719 95.859375 116.136719 96.882812 C 116.136719 97.921875 115.296875 98.765625 114.273438 98.765625 Z M 114.273438 98.765625 " fill-opacity="1" fill-rule="nonzero"/><path fill="#6644a8" d="M 78.519531 135.542969 L 76.101562 135.542969 L 76.101562 125.15625 C 76.101562 124.722656 75.8125 124.328125 75.390625 124.207031 C 74.972656 124.078125 74.523438 124.25 74.289062 124.617188 L 66.820312 135.992188 C 66.625 136.292969 66.609375 136.675781 66.78125 137.003906 C 66.953125 137.320312 67.28125 137.515625 67.648438 137.515625 L 74.128906 137.515625 L 74.128906 141.738281 C 74.128906 142.289062 74.5625 142.722656 75.117188 142.722656 C 75.65625 142.722656 76.101562 142.289062 76.101562 141.738281 L 76.101562 137.515625 L 78.519531 137.515625 C 79.070312 137.515625 79.503906 137.082031 79.503906 136.53125 C 79.503906 135.992188 79.070312 135.542969 78.519531 135.542969 Z M 74.128906 135.542969 L 69.476562 135.542969 L 74.128906 128.457031 Z M 74.128906 135.542969 " fill-opacity="1" fill-rule="nonzero"/><path fill="#6644a8" d="M 104.375 135.542969 L 101.941406 135.542969 L 101.941406 125.15625 C 101.941406 124.722656 101.652344 124.328125 101.246094 124.207031 C 100.824219 124.078125 100.378906 124.25 100.128906 124.617188 L 92.675781 135.992188 C 92.464844 136.292969 92.453125 136.675781 92.625 137.003906 C 92.792969 137.320312 93.136719 137.515625 93.492188 137.515625 L 99.972656 137.515625 L 99.972656 141.738281 C 99.972656 142.289062 100.417969 142.722656 100.957031 142.722656 C 101.496094 142.722656 101.941406 142.289062 101.941406 141.738281 L 101.941406 137.515625 L 104.375 137.515625 C 104.914062 137.515625 105.359375 137.082031 105.359375 136.53125 C 105.359375 135.992188 104.914062 135.542969 104.375 135.542969 Z M 99.972656 135.542969 L 95.316406 135.542969 L 99.972656 128.457031 Z M 99.972656 135.542969 " fill-opacity="1" fill-rule="nonzero"/><path fill="#6644a8" d="M 118.058594 116.859375 C 118.058594 117.398438 117.625 117.84375 117.070312 117.84375 L 112.523438 117.84375 C 111.984375 117.84375 111.539062 117.398438 111.539062 116.859375 C 111.539062 116.320312 111.984375 115.871094 112.523438 115.871094 L 117.070312 115.871094 C 117.625 115.871094 118.058594 116.320312 118.058594 116.859375 Z M 118.058594 116.859375 " fill-opacity="1" fill-rule="nonzero"/><path fill="#6644a8" d="M 108.933594 116.859375 C 108.933594 117.398438 108.5 117.84375 107.949219 117.84375 L 54.9375 117.84375 C 54.402344 117.84375 53.953125 117.398438 53.953125 116.859375 C 53.953125 116.320312 54.402344 115.871094 54.9375 115.871094 L 107.949219 115.871094 C 108.5 115.871094 108.933594 116.320312 108.933594 116.859375 Z M 108.933594 116.859375 " fill-opacity="1" fill-rule="nonzero"/><path fill="#6644a8" d="M 118.058594 125.15625 C 118.058594 125.695312 117.625 126.140625 117.070312 126.140625 L 106.621094 126.140625 C 106.082031 126.140625 105.636719 125.695312 105.636719 125.15625 C 105.636719 124.601562 106.082031 124.167969 106.621094 124.167969 L 117.070312 124.167969 C 117.625 124.167969 118.058594 124.601562 118.058594 125.15625 Z M 118.058594 125.15625 " fill-opacity="1" fill-rule="nonzero"/><path fill="#6644a8" d="M 67.820312 125.15625 C 67.820312 125.695312 67.386719 126.140625 66.835938 126.140625 L 54.9375 126.140625 C 54.402344 126.140625 53.953125 125.695312 53.953125 125.15625 C 53.953125 124.601562 54.402344 124.167969 54.9375 124.167969 L 66.835938 124.167969 C 67.386719 124.167969 67.820312 124.601562 67.820312 125.15625 Z M 67.820312 125.15625 " fill-opacity="1" fill-rule="nonzero"/><path fill="#6644a8" d="M 118.058594 133.453125 C 118.058594 133.992188 117.625 134.4375 117.070312 134.4375 L 109.644531 134.4375 C 109.09375 134.4375 108.660156 133.992188 108.660156 133.453125 C 108.660156 132.902344 109.09375 132.464844 109.644531 132.464844 L 117.070312 132.464844 C 117.625 132.464844 118.058594 132.902344 118.058594 133.453125 Z M 118.058594 133.453125 " fill-opacity="1" fill-rule="nonzero"/><path fill="#6644a8" d="M 63.402344 133.453125 C 63.402344 133.992188 62.96875 134.4375 62.417969 134.4375 L 54.9375 134.4375 C 54.402344 134.4375 53.953125 133.992188 53.953125 133.453125 C 53.953125 132.902344 54.402344 132.464844 54.9375 132.464844 L 62.417969 132.464844 C 62.96875 132.464844 63.402344 132.902344 63.402344 133.453125 Z M 63.402344 133.453125 " fill-opacity="1" fill-rule="nonzero"/><path fill="#6644a8" d="M 118.058594 141.738281 C 118.058594 142.289062 117.625 142.722656 117.070312 142.722656 L 108.382812 142.722656 C 107.832031 142.722656 107.398438 142.289062 107.398438 141.738281 C 107.398438 141.199219 107.832031 140.75 108.382812 140.75 L 117.070312 140.75 C 117.625 140.75 118.058594 141.199219 118.058594 141.738281 Z M 118.058594 141.738281 " fill-opacity="1" fill-rule="nonzero"/><path fill="#6644a8" d="M 66.835938 141.738281 C 66.835938 142.289062 66.386719 142.722656 65.847656 142.722656 L 54.9375 142.722656 C 54.402344 142.722656 53.953125 142.289062 53.953125 141.738281 C 53.953125 141.199219 54.402344 140.75 54.9375 140.75 L 65.847656 140.75 C 66.386719 140.75 66.835938 141.199219 66.835938 141.738281 Z M 66.835938 141.738281 " fill-opacity="1" fill-rule="nonzero"/><path fill="#6644a8" d="M 118.058594 150.035156 C 118.058594 150.585938 117.625 151.019531 117.070312 151.019531 L 111.472656 151.019531 C 110.933594 151.019531 110.484375 150.585938 110.484375 150.035156 C 110.484375 149.496094 110.933594 149.046875 111.472656 149.046875 L 117.070312 149.046875 C 117.625 149.046875 118.058594 149.496094 118.058594 150.035156 Z M 118.058594 150.035156 " fill-opacity="1" fill-rule="nonzero"/><path fill="#6644a8" d="M 107.609375 150.035156 C 107.609375 150.585938 107.160156 151.019531 106.621094 151.019531 L 79.835938 151.019531 C 79.296875 151.019531 78.847656 150.585938 78.847656 150.035156 C 78.847656 149.496094 79.296875 149.046875 79.835938 149.046875 L 106.621094 149.046875 C 107.160156 149.046875 107.609375 149.496094 107.609375 150.035156 Z M 107.609375 150.035156 " fill-opacity="1" fill-rule="nonzero"/><path fill="#6644a8" d="M 76.21875 150.035156 C 76.21875 150.585938 75.785156 151.019531 75.234375 151.019531 L 54.9375 151.019531 C 54.402344 151.019531 53.953125 150.585938 53.953125 150.035156 C 53.953125 149.496094 54.402344 149.046875 54.9375 149.046875 L 75.234375 149.046875 C 75.785156 149.046875 76.21875 149.496094 76.21875 150.035156 Z M 76.21875 150.035156 " fill-opacity="1" fill-rule="nonzero"/><path fill="#6644a8" d="M 87.601562 124.167969 L 83.828125 124.167969 C 82.03125 124.167969 80.570312 125.628906 80.570312 127.429688 L 80.570312 139.460938 C 80.570312 141.261719 82.03125 142.722656 83.828125 142.722656 L 87.601562 142.722656 C 89.402344 142.722656 90.875 141.261719 90.875 139.460938 L 90.875 127.429688 C 90.875 125.628906 89.402344 124.167969 87.601562 124.167969 Z M 87.601562 124.167969 " fill-opacity="1" fill-rule="nonzero"/><path fill="#ffffff" d="M 88.902344 127.429688 L 88.902344 139.460938 C 88.902344 140.171875 88.324219 140.75 87.601562 140.75 L 83.828125 140.75 C 83.121094 140.75 82.542969 140.171875 82.542969 139.460938 L 82.542969 127.429688 C 82.542969 126.71875 83.121094 126.140625 83.828125 126.140625 L 87.601562 126.140625 C 88.324219 126.140625 88.902344 126.71875 88.902344 127.429688 Z M 88.902344 127.429688 " fill-opacity="1" fill-rule="nonzero"/></svg>