<svg xmlns="http://www.w3.org/2000/svg" xmlns:xlink="http://www.w3.org/1999/xlink" width="180" zoomAndPan="magnify" viewBox="0 0 135 37.5" height="50" preserveAspectRatio="xMidYMid meet" version="1.0"><defs><clipPath id="c58998f0c8"><path d="M 2.136719 0.796875 L 133.140625 0.796875 L 133.140625 36.324219 L 2.136719 36.324219 Z M 2.136719 0.796875 " clip-rule="nonzero"/></clipPath></defs><g clip-path="url(#c58998f0c8)"><path fill="#ff0000" d="M 122.335938 0.910156 C 128.289062 0.898438 133.15625 5.78125 133.15625 11.738281 L 133.15625 25.417969 C 133.15625 31.375 128.289062 36.25 122.335938 36.25 L 32.929688 36.25 L 32.929688 36.242188 C 32.804688 36.257812 32.679688 36.265625 32.550781 36.265625 L 19.402344 36.265625 C 17.886719 36.265625 16.644531 35.023438 16.644531 33.507812 C 16.644531 31.988281 17.886719 30.746094 19.402344 30.746094 L 30.980469 30.746094 C 32.015625 30.527344 32.796875 29.605469 32.796875 28.507812 C 32.796875 27.417969 32.023438 26.5 31 26.277344 L 9.867188 26.277344 C 8.351562 26.277344 7.109375 25.035156 7.109375 23.515625 C 7.109375 21.996094 8.351562 20.753906 9.867188 20.753906 L 29.453125 20.753906 C 30.460938 20.519531 31.214844 19.609375 31.214844 18.53125 C 31.214844 17.382812 30.359375 16.425781 29.253906 16.265625 L 26.074219 16.265625 C 24.554688 16.265625 23.316406 15.023438 23.316406 13.507812 C 23.316406 11.988281 24.554688 10.746094 26.074219 10.746094 L 26.523438 10.746094 C 27.464844 10.460938 28.160156 9.566406 28.160156 8.519531 C 28.160156 7.4375 27.425781 6.523438 26.441406 6.265625 L 21.175781 6.265625 C 19.648438 6.265625 18.398438 5.015625 18.398438 3.484375 C 18.398438 1.953125 19.648438 0.835938 21.175781 0.835938 C 59.390625 0.835938 84.09375 0.964844 122.335938 0.910156 Z M 32.929688 30.773438 L 32.910156 30.769531 Z M 12.59375 30.746094 L 4.902344 30.746094 C 3.386719 30.746094 2.144531 31.988281 2.144531 33.507812 C 2.144531 35.023438 3.386719 36.265625 4.902344 36.265625 L 12.59375 36.265625 C 14.109375 36.265625 15.351562 35.023438 15.351562 33.507812 C 15.351562 31.988281 14.109375 30.746094 12.59375 30.746094 Z M 19.945312 10.746094 L 18.222656 10.746094 C 16.707031 10.746094 15.464844 11.988281 15.464844 13.507812 C 15.464844 15.023438 16.707031 16.265625 18.222656 16.265625 L 19.945312 16.265625 C 21.460938 16.265625 22.703125 15.023438 22.703125 13.507812 C 22.703125 11.988281 21.460938 10.746094 19.945312 10.746094 Z M 32.605469 26.273438 C 32.625 26.273438 32.648438 26.273438 32.671875 26.273438 Z M 32.671875 20.757812 C 32.648438 20.757812 32.625 20.757812 32.605469 20.757812 L 32.671875 20.757812 " fill-opacity="1" fill-rule="evenodd"/></g><path fill="#ffffff" d="M 39.910156 32.214844 L 42.660156 32.214844 C 44.460938 32.214844 45.582031 31.214844 46.011719 29.378906 L 47.367188 23.574219 C 47.796875 21.738281 47.144531 20.738281 45.34375 20.738281 L 42.59375 20.738281 Z M 42.09375 30.578125 L 44.011719 22.378906 L 44.925781 22.378906 C 45.5 22.378906 45.773438 22.671875 45.585938 23.492188 L 44.1875 29.460938 C 43.996094 30.28125 43.582031 30.578125 43.011719 30.578125 Z M 46.558594 32.214844 L 51.472656 32.214844 L 51.855469 30.578125 L 48.742188 30.578125 L 49.566406 27.050781 L 52.042969 27.050781 L 52.425781 25.410156 L 49.949219 25.410156 L 50.660156 22.378906 L 53.773438 22.378906 L 54.15625 20.738281 L 49.242188 20.738281 Z M 52.503906 32.214844 L 57.269531 32.214844 L 57.652344 30.578125 L 54.6875 30.578125 L 56.988281 20.738281 L 55.1875 20.738281 Z M 58.136719 32.214844 L 59.941406 32.214844 L 62.625 20.738281 L 60.820312 20.738281 Z M 62.542969 32.214844 L 64.9375 32.214844 L 69.355469 20.738281 L 67.703125 20.738281 L 64.441406 29.640625 L 64.40625 29.640625 L 65.308594 20.738281 L 63.492188 20.738281 Z M 67.539062 32.214844 L 72.453125 32.214844 L 72.835938 30.578125 L 69.726562 30.578125 L 70.550781 27.050781 L 73.023438 27.050781 L 73.40625 25.410156 L 70.933594 25.410156 L 71.640625 22.378906 L 74.753906 22.378906 L 75.136719 20.738281 L 70.222656 20.738281 Z M 73.484375 32.214844 L 75.289062 32.214844 L 76.4375 27.296875 L 77.058594 27.296875 C 77.878906 27.296875 78.109375 27.640625 77.859375 28.707031 L 77.371094 30.804688 C 77.152344 31.738281 77.175781 31.921875 77.203125 32.214844 L 79.039062 32.214844 C 78.957031 31.789062 79.039062 31.378906 79.167969 30.820312 L 79.640625 28.804688 C 79.941406 27.511719 79.847656 26.65625 79.011719 26.378906 L 79.019531 26.347656 C 79.898438 26.019531 80.449219 25.265625 80.726562 24.082031 L 80.890625 23.378906 C 81.304688 21.609375 80.707031 20.738281 78.839844 20.738281 L 76.167969 20.738281 Z M 76.820312 25.65625 L 77.585938 22.378906 L 78.40625 22.378906 C 79.046875 22.378906 79.238281 22.738281 79.046875 23.558594 L 78.839844 24.445312 C 78.625 25.363281 78.148438 25.65625 77.476562 25.65625 Z M 81.480469 32.214844 L 83.28125 32.214844 L 84.421875 27.332031 L 88.140625 20.738281 L 86.390625 20.738281 L 84.175781 24.953125 L 84.144531 24.953125 L 83.898438 20.738281 L 81.984375 20.738281 L 82.621094 27.332031 L 81.480469 32.214844 " fill-opacity="1" fill-rule="evenodd"/><path fill="#ffffff" d="M 45.429688 18.386719 C 47.167969 18.386719 48.328125 17.335938 48.742188 15.566406 L 49.121094 13.941406 L 47.417969 13.941406 L 47.007812 15.699219 C 46.832031 16.453125 46.402344 16.746094 45.863281 16.746094 C 45.320312 16.746094 45.03125 16.453125 45.207031 15.699219 L 46.707031 9.285156 C 46.882812 8.53125 47.316406 8.222656 47.855469 8.222656 C 48.398438 8.222656 48.683594 8.53125 48.507812 9.285156 L 48.199219 10.613281 L 49.902344 10.613281 L 50.183594 9.402344 C 50.597656 7.628906 49.925781 6.582031 48.191406 6.582031 C 46.453125 6.582031 45.292969 7.628906 44.878906 9.402344 L 43.4375 15.566406 C 43.023438 17.335938 43.695312 18.386719 45.429688 18.386719 Z M 48.726562 18.222656 L 50.398438 18.222656 L 51.25 15.976562 L 53.300781 15.976562 L 53.304688 15.941406 L 53.101562 18.222656 L 54.902344 18.222656 L 55.71875 6.746094 L 53.277344 6.746094 Z M 51.828125 14.417969 L 53.941406 8.746094 L 53.972656 8.746094 L 53.449219 14.417969 Z M 58.027344 18.386719 C 59.796875 18.386719 60.992188 17.335938 61.425781 15.46875 C 61.761719 14.042969 61.5 13.125 60.304688 11.796875 C 59.367188 10.761719 59.132812 10.15625 59.328125 9.320312 C 59.511719 8.53125 59.910156 8.222656 60.484375 8.222656 C 61.058594 8.222656 61.3125 8.53125 61.121094 9.351562 L 60.984375 9.941406 L 62.6875 9.941406 L 62.796875 9.46875 C 63.226562 7.628906 62.605469 6.582031 60.851562 6.582031 C 59.097656 6.582031 57.921875 7.628906 57.5 9.433594 C 57.191406 10.746094 57.464844 11.679688 58.660156 13.007812 C 59.597656 14.042969 59.816406 14.648438 59.59375 15.597656 C 59.394531 16.453125 58.964844 16.746094 58.394531 16.746094 C 57.820312 16.746094 57.527344 16.453125 57.71875 15.632812 L 57.90625 14.84375 L 56.199219 14.84375 L 56.046875 15.5 C 55.617188 17.335938 56.257812 18.386719 58.027344 18.386719 Z M 61.816406 18.222656 L 63.617188 18.222656 L 64.824219 13.058594 L 66.757812 13.058594 L 65.550781 18.222656 L 67.351562 18.222656 L 70.035156 6.746094 L 68.234375 6.746094 L 67.140625 11.417969 L 65.207031 11.417969 L 66.300781 6.746094 L 64.5 6.746094 Z M 73.882812 18.386719 C 75.652344 18.386719 76.863281 17.335938 77.292969 15.5 L 78.703125 9.46875 C 79.132812 7.628906 78.410156 6.582031 76.640625 6.582031 C 74.871094 6.582031 73.660156 7.628906 73.230469 9.46875 L 71.820312 15.5 C 71.390625 17.335938 72.113281 18.386719 73.882812 18.386719 Z M 74.265625 16.746094 C 73.691406 16.746094 73.402344 16.433594 73.59375 15.613281 L 75.058594 9.351562 C 75.25 8.53125 75.683594 8.222656 76.257812 8.222656 C 76.832031 8.222656 77.117188 8.53125 76.925781 9.351562 L 75.460938 15.613281 C 75.269531 16.433594 74.835938 16.746094 74.265625 16.746094 Z M 77.867188 18.222656 L 79.472656 18.222656 L 81.429688 9.84375 L 81.464844 9.84375 L 81.667969 18.222656 L 83.519531 18.222656 L 86.203125 6.746094 L 84.597656 6.746094 L 82.988281 13.617188 L 82.957031 13.617188 L 82.8125 6.746094 L 80.550781 6.746094 L 77.867188 18.222656 " fill-opacity="1" fill-rule="evenodd"/><path fill="#ffffff" d="M 99.816406 24.59375 L 101.742188 24.59375 C 101.992188 23.953125 102.4375 23.386719 102.996094 22.957031 C 103.667969 22.445312 104.5 22.132812 105.355469 22.132812 C 106.207031 22.132812 106.925781 22.445312 107.414062 22.957031 C 107.824219 23.386719 108.070312 23.953125 108.089844 24.59375 L 117.796875 24.59375 L 120.03125 12.011719 C 120.078125 11.75 119.902344 11.535156 119.640625 11.535156 L 102.132812 11.535156 C 101.875 11.535156 101.621094 11.75 101.574219 12.011719 L 101.460938 12.644531 L 100.5625 12.644531 L 100.675781 12.011719 C 100.8125 11.253906 101.539062 10.636719 102.292969 10.636719 L 119.800781 10.636719 C 120.558594 10.636719 121.0625 11.253906 120.929688 12.011719 L 118.535156 25.492188 L 107.121094 25.492188 L 107.167969 25.070312 C 107.234375 24.503906 107.054688 23.996094 106.703125 23.628906 C 106.351562 23.257812 105.824219 23.03125 105.195312 23.03125 C 104.566406 23.03125 103.957031 23.257812 103.472656 23.628906 C 102.992188 23.996094 102.628906 24.503906 102.496094 25.070312 L 102.394531 25.492188 L 99.65625 25.492188 C 98.898438 25.492188 98.390625 24.875 98.527344 24.117188 L 98.996094 21.480469 L 99.894531 21.480469 L 99.425781 24.117188 C 99.378906 24.378906 99.554688 24.59375 99.816406 24.59375 " fill-opacity="1" fill-rule="nonzero"/><path fill="#ffffff" d="M 118.859375 24.5625 L 119.84375 24.5625 C 120.097656 23.929688 120.546875 23.367188 121.105469 22.945312 C 121.773438 22.441406 122.597656 22.132812 123.445312 22.132812 C 124.289062 22.132812 125.007812 22.441406 125.496094 22.945312 C 125.902344 23.367188 126.152344 23.929688 126.179688 24.5625 L 126.683594 24.5625 C 126.734375 24.5625 126.78125 24.546875 126.8125 24.519531 C 126.832031 24.503906 126.847656 24.484375 126.851562 24.460938 L 127.726562 19.546875 L 127.75 19.460938 C 127.753906 19.445312 127.757812 19.410156 127.75 19.347656 C 127.738281 19.28125 127.71875 19.203125 127.679688 19.125 L 125.683594 15.203125 C 125.621094 15.082031 125.546875 14.992188 125.46875 14.929688 C 125.410156 14.878906 125.367188 14.851562 125.355469 14.847656 L 120.570312 14.925781 Z M 120.070312 25.460938 L 117.800781 25.460938 L 117.882812 25.011719 L 119.75 14.488281 L 119.828125 14.046875 L 120.269531 14.039062 L 125.515625 13.953125 L 125.53125 13.953125 C 125.703125 13.957031 125.929688 14.039062 126.128906 14.207031 C 126.265625 14.320312 126.402344 14.484375 126.507812 14.695312 L 128.507812 18.613281 C 128.59375 18.78125 128.636719 18.945312 128.652344 19.089844 C 128.675781 19.28125 128.652344 19.453125 128.617188 19.574219 L 127.75 24.460938 C 127.699219 24.742188 127.53125 24.996094 127.300781 25.179688 C 127.078125 25.355469 126.804688 25.460938 126.523438 25.460938 L 125.21875 25.460938 L 125.261719 25.042969 C 125.320312 24.484375 125.136719 23.984375 124.785156 23.621094 C 124.433594 23.253906 123.910156 23.03125 123.285156 23.03125 C 122.660156 23.03125 122.058594 23.253906 121.574219 23.621094 C 121.097656 23.984375 120.734375 24.484375 120.59375 25.042969 L 120.488281 25.460938 L 120.070312 25.460938 " fill-opacity="1" fill-rule="nonzero"/><path fill="#ffffff" d="M 104.265625 28.261719 C 103.378906 28.261719 102.632812 27.921875 102.144531 27.371094 C 101.652344 26.816406 101.421875 26.046875 101.570312 25.195312 C 101.722656 24.34375 102.226562 23.574219 102.917969 23.019531 C 103.601562 22.472656 104.464844 22.132812 105.355469 22.132812 C 106.242188 22.132812 106.988281 22.472656 107.472656 23.019531 C 107.96875 23.574219 108.199219 24.34375 108.046875 25.195312 C 107.894531 26.046875 107.390625 26.816406 106.703125 27.371094 C 106.019531 27.921875 105.152344 28.261719 104.265625 28.261719 Z M 102.875 26.71875 C 103.226562 27.117188 103.773438 27.359375 104.425781 27.359375 C 105.078125 27.359375 105.710938 27.117188 106.203125 26.71875 C 106.691406 26.328125 107.042969 25.789062 107.148438 25.195312 C 107.253906 24.601562 107.09375 24.066406 106.742188 23.671875 C 106.390625 23.277344 105.847656 23.03125 105.195312 23.03125 C 104.542969 23.03125 103.910156 23.277344 103.414062 23.671875 C 102.929688 24.066406 102.574219 24.601562 102.46875 25.195312 C 102.363281 25.789062 102.527344 26.328125 102.875 26.71875 " fill-opacity="1" fill-rule="nonzero"/><path fill="#ffffff" d="M 122.355469 28.261719 C 121.46875 28.261719 120.722656 27.921875 120.234375 27.371094 C 119.742188 26.816406 119.511719 26.046875 119.664062 25.195312 C 119.816406 24.34375 120.316406 23.574219 121.007812 23.019531 C 121.691406 22.472656 122.558594 22.132812 123.445312 22.132812 C 124.332031 22.132812 125.078125 22.472656 125.566406 23.019531 C 126.058594 23.574219 126.289062 24.34375 126.136719 25.195312 C 125.988281 26.046875 125.484375 26.816406 124.792969 27.371094 C 124.109375 27.921875 123.242188 28.261719 122.355469 28.261719 Z M 120.964844 26.71875 C 121.320312 27.117188 121.863281 27.359375 122.515625 27.359375 C 123.167969 27.359375 123.800781 27.117188 124.292969 26.71875 C 124.78125 26.328125 125.132812 25.789062 125.238281 25.195312 C 125.34375 24.601562 125.183594 24.066406 124.835938 23.671875 C 124.484375 23.277344 123.9375 23.03125 123.285156 23.03125 C 122.632812 23.03125 122 23.277344 121.507812 23.671875 C 121.019531 24.066406 120.667969 24.601562 120.5625 25.195312 C 120.457031 25.789062 120.617188 26.328125 120.964844 26.71875 " fill-opacity="1" fill-rule="nonzero"/><path fill="#ffffff" d="M 125.53125 16.480469 L 126.9375 19.191406 L 120.792969 19.253906 L 121.480469 15.347656 L 123.894531 15.351562 C 124.753906 15.359375 125.210938 15.839844 125.53125 16.480469 " fill-opacity="1" fill-rule="evenodd"/><path fill="#ffffff" d="M 93.816406 12.546875 L 104.121094 12.546875 C 104.457031 12.546875 104.679688 12.820312 104.621094 13.15625 C 104.5625 13.488281 104.238281 13.761719 103.90625 13.761719 L 93.597656 13.761719 C 93.265625 13.761719 93.042969 13.488281 93.101562 13.15625 C 93.160156 12.820312 93.480469 12.546875 93.816406 12.546875 " fill-opacity="1" fill-rule="evenodd"/><path fill="#ffffff" d="M 90.875 15.285156 L 101.183594 15.285156 C 101.515625 15.285156 101.742188 15.558594 101.683594 15.890625 C 101.621094 16.226562 101.300781 16.5 100.96875 16.5 L 90.660156 16.5 C 90.328125 16.5 90.105469 16.226562 90.164062 15.890625 C 90.222656 15.558594 90.542969 15.285156 90.875 15.285156 " fill-opacity="1" fill-rule="evenodd"/><path fill="#ffffff" d="M 94.558594 17.863281 L 104.867188 17.863281 C 105.199219 17.863281 105.425781 18.136719 105.367188 18.46875 C 105.304688 18.804688 104.984375 19.078125 104.652344 19.078125 L 94.34375 19.078125 C 94.011719 19.078125 93.789062 18.804688 93.847656 18.46875 C 93.90625 18.136719 94.226562 17.863281 94.558594 17.863281 " fill-opacity="1" fill-rule="evenodd"/><path fill="#ffffff" d="M 90.941406 20.328125 L 101.246094 20.328125 C 101.582031 20.328125 101.804688 20.601562 101.746094 20.933594 C 101.6875 21.269531 101.363281 21.542969 101.03125 21.542969 L 90.726562 21.542969 C 90.390625 21.542969 90.167969 21.269531 90.226562 20.933594 C 90.285156 20.601562 90.605469 20.328125 90.941406 20.328125 " fill-opacity="1" fill-rule="evenodd"/></svg>