<svg xmlns="http://www.w3.org/2000/svg" xmlns:xlink="http://www.w3.org/1999/xlink" width="200" zoomAndPan="magnify" viewBox="0 0 150 60" height="80" preserveAspectRatio="xMidYMid meet" version="1.0"><defs><clipPath id="55a3c8d0c6"><path d="M 1 1.058594 L 149 1.058594 L 149 60 L 1 60 Z M 1 1.058594 " clip-rule="nonzero"/></clipPath></defs><g clip-path="url(#55a3c8d0c6)"><path fill="#6772e5" d="M 148.757812 32.949219 C 148.757812 22.429688 143.671875 14.125 133.953125 14.125 C 124.195312 14.125 118.285156 22.429688 118.285156 32.867188 C 118.285156 45.238281 125.257812 51.484375 135.261719 51.484375 C 140.144531 51.484375 143.832031 50.375 146.621094 48.8125 L 146.621094 40.59375 C 143.832031 41.992188 140.636719 42.855469 136.574219 42.855469 C 132.597656 42.855469 129.070312 41.457031 128.621094 36.605469 L 148.667969 36.605469 C 148.667969 36.070312 148.75 33.9375 148.75 32.949219 Z M 128.511719 29.046875 C 128.511719 24.402344 131.339844 22.472656 133.925781 22.472656 C 136.425781 22.472656 139.09375 24.402344 139.09375 29.046875 Z M 102.472656 14.128906 C 98.457031 14.128906 95.875 16.019531 94.4375 17.335938 L 93.902344 14.789062 L 84.863281 14.789062 L 84.863281 62.707031 L 95.113281 60.53125 L 95.15625 48.898438 C 96.632812 49.96875 98.804688 51.488281 102.414062 51.488281 C 109.753906 51.488281 116.4375 45.589844 116.4375 32.542969 C 116.398438 20.621094 109.632812 14.128906 102.453125 14.128906 Z M 100.011719 42.449219 C 97.59375 42.449219 96.160156 41.585938 95.171875 40.515625 L 95.132812 25.265625 C 96.199219 24.074219 97.675781 23.253906 100.011719 23.253906 C 103.746094 23.253906 106.328125 27.445312 106.328125 32.828125 C 106.328125 38.335938 103.785156 42.449219 100.011719 42.449219 Z M 70.761719 11.703125 L 81.050781 9.488281 L 81.050781 1.144531 L 70.761719 3.324219 Z M 70.761719 14.828125 L 81.050781 14.828125 L 81.050781 50.789062 L 70.761719 50.789062 Z M 59.726562 17.867188 L 59.070312 14.828125 L 50.214844 14.828125 L 50.214844 50.792969 L 60.464844 50.792969 L 60.464844 26.417969 C 62.882812 23.253906 66.984375 23.828125 68.253906 24.28125 L 68.253906 14.828125 C 66.941406 14.335938 62.148438 13.433594 59.726562 17.871094 Z M 39.226562 5.890625 L 29.222656 8.027344 L 29.179688 40.949219 C 29.179688 47.03125 33.730469 51.511719 39.800781 51.511719 C 43.164062 51.511719 45.621094 50.894531 46.976562 50.152344 L 46.976562 41.808594 C 45.664062 42.347656 39.183594 44.234375 39.183594 38.152344 L 39.183594 23.582031 L 46.976562 23.582031 L 46.976562 14.828125 L 39.179688 14.828125 Z M 11.507812 25.246094 C 11.507812 23.644531 12.820312 23.03125 14.992188 23.03125 C 18.585938 23.105469 21.976562 23.984375 25.160156 25.660156 L 25.160156 16.019531 C 21.757812 14.660156 18.394531 14.132812 14.992188 14.132812 C 6.667969 14.132812 1.132812 18.488281 1.132812 25.761719 C 1.132812 37.105469 16.714844 35.296875 16.714844 40.191406 C 16.714844 42.078125 15.074219 42.695312 12.777344 42.695312 C 9.375 42.695312 5.027344 41.296875 1.585938 39.40625 L 1.585938 49.1875 C 5.398438 50.832031 9.253906 51.511719 12.777344 51.511719 C 21.308594 51.511719 27.171875 47.277344 27.171875 39.917969 C 27.132812 27.671875 11.507812 29.851562 11.507812 25.246094 Z M 11.507812 25.246094 " fill-opacity="1" fill-rule="evenodd"/></g></svg>