<svg xmlns="http://www.w3.org/2000/svg" xmlns:xlink="http://www.w3.org/1999/xlink" width="250" zoomAndPan="magnify" viewBox="0 0 187.5 187.499992" height="250" preserveAspectRatio="xMidYMid meet" version="1.0"><defs><clipPath id="5b0d462911"><path d="M 5.671875 52 L 11 52 L 11 65 L 5.671875 65 Z M 5.671875 52 " clip-rule="nonzero"/></clipPath><clipPath id="ddeaa764a0"><path d="M 168 6 L 181.921875 6 L 181.921875 34 L 168 34 Z M 168 6 " clip-rule="nonzero"/></clipPath><clipPath id="ad7f4d92d9"><path d="M 151 5.671875 L 181.921875 5.671875 L 181.921875 16 L 151 16 Z M 151 5.671875 " clip-rule="nonzero"/></clipPath><clipPath id="daacddf380"><path d="M 27 141 L 55 141 L 55 181.921875 L 27 181.921875 Z M 27 141 " clip-rule="nonzero"/></clipPath><clipPath id="d095cf1d95"><path d="M 149 99 L 181.921875 99 L 181.921875 143 L 149 143 Z M 149 99 " clip-rule="nonzero"/></clipPath></defs><path fill="#000000" d="M 69.488281 36.855469 L 16.292969 36.863281 C 11.296875 36.863281 7.25 40.910156 7.25 45.898438 L 7.273438 165.972656 C 7.273438 170.960938 11.324219 175.003906 16.320312 175.003906 L 69.511719 174.992188 C 74.507812 174.992188 78.558594 170.945312 78.554688 165.957031 L 78.53125 45.882812 C 78.53125 40.894531 74.480469 36.851562 69.488281 36.855469 " fill-opacity="1" fill-rule="nonzero"/><g clip-path="url(#5b0d462911)"><path fill="#000000" d="M 10.148438 52.367188 L 5.695312 52.367188 L 5.695312 64.140625 L 10.148438 64.140625 L 10.148438 52.367188 " fill-opacity="1" fill-rule="nonzero"/></g><path fill="#ffffff" d="M 10.148438 52.585938 L 8.011719 52.585938 L 8.011719 63.929688 L 10.148438 63.929688 L 10.148438 52.585938 " fill-opacity="1" fill-rule="nonzero"/><path fill="#000000" d="M 8.222656 52.796875 L 8.226562 63.71875 L 9.9375 63.714844 L 9.933594 52.796875 Z M 8.011719 64.144531 C 7.957031 64.144531 7.902344 64.121094 7.863281 64.078125 C 7.824219 64.039062 7.800781 63.984375 7.800781 63.929688 L 7.796875 52.585938 C 7.796875 52.464844 7.894531 52.371094 8.011719 52.371094 L 10.148438 52.371094 C 10.203125 52.371094 10.257812 52.394531 10.296875 52.433594 C 10.339844 52.472656 10.359375 52.527344 10.359375 52.582031 L 10.363281 63.929688 C 10.363281 64.046875 10.265625 64.140625 10.148438 64.140625 L 8.011719 64.144531 " fill-opacity="1" fill-rule="nonzero"/><path fill="#8c7bff" d="M 74.234375 36.855469 L 21.042969 36.863281 C 16.046875 36.863281 12 40.910156 12 45.898438 L 12.023438 165.972656 C 12.023438 170.960938 16.074219 175.003906 21.070312 175 L 74.261719 174.992188 C 79.257812 174.988281 83.308594 170.945312 83.304688 165.957031 L 83.28125 45.882812 C 83.28125 40.894531 79.230469 36.851562 74.234375 36.855469 " fill-opacity="1" fill-rule="nonzero"/><path fill="#ffffff" d="M 12 154.601562 L 83.199219 154.589844 L 83.179688 55.269531 L 11.980469 55.285156 L 12 154.601562 " fill-opacity="1" fill-rule="nonzero"/><path fill="#000000" d="M 12.191406 55.5 L 12.210938 154.390625 L 82.984375 154.375 L 82.964844 55.484375 Z M 12 154.816406 C 11.941406 154.816406 11.886719 154.792969 11.847656 154.753906 C 11.808594 154.714844 11.785156 154.660156 11.785156 154.605469 L 11.765625 55.285156 C 11.765625 55.167969 11.859375 55.074219 11.980469 55.074219 L 83.179688 55.058594 C 83.238281 55.058594 83.289062 55.082031 83.328125 55.121094 C 83.371094 55.160156 83.390625 55.214844 83.390625 55.269531 L 83.410156 154.589844 C 83.410156 154.707031 83.316406 154.804688 83.199219 154.804688 L 12 154.816406 " fill-opacity="1" fill-rule="nonzero"/><path fill="#000000" d="M 74.296875 36.851562 L 74.296875 37.066406 L 20.953125 37.074219 C 18.644531 37.074219 16.445312 37.960938 14.757812 39.5625 C 13.132812 41.105469 12.199219 43.15625 12.199219 45.183594 L 12.222656 165.410156 C 12.222656 168.023438 13.136719 170.417969 14.792969 172.152344 C 16.414062 173.851562 18.613281 174.789062 20.976562 174.789062 C 20.980469 174.789062 20.980469 174.789062 20.980469 174.789062 L 74.324219 174.777344 C 79.316406 174.777344 83.078125 170.742188 83.078125 165.394531 L 83.054688 45.167969 C 83.054688 40.851562 78.960938 37.066406 74.300781 37.066406 C 74.296875 37.066406 74.296875 37.066406 74.296875 37.066406 Z M 20.976562 175.214844 C 18.492188 175.214844 16.1875 174.230469 14.484375 172.445312 C 12.75 170.632812 11.796875 168.132812 11.796875 165.410156 L 11.773438 45.183594 C 11.773438 43.039062 12.753906 40.878906 14.464844 39.253906 C 16.230469 37.574219 18.535156 36.648438 20.953125 36.648438 L 74.296875 36.640625 L 74.300781 36.640625 C 79.191406 36.640625 83.480469 40.625 83.480469 45.167969 L 83.503906 165.394531 C 83.507812 170.984375 79.558594 175.203125 74.324219 175.203125 L 20.980469 175.214844 C 20.980469 175.214844 20.980469 175.214844 20.976562 175.214844 " fill-opacity="1" fill-rule="nonzero"/><path fill="#000000" d="M 45.230469 41.351562 C 45.113281 41.351562 45.019531 41.257812 45.019531 41.140625 C 45.019531 41.023438 45.113281 40.925781 45.230469 40.925781 L 60.496094 40.921875 C 60.613281 40.921875 60.707031 41.019531 60.707031 41.136719 C 60.707031 41.253906 60.613281 41.347656 60.496094 41.347656 L 45.230469 41.351562 " fill-opacity="1" fill-rule="nonzero"/><path fill="#000000" d="M 42.53125 40.230469 C 42.289062 40.230469 42.0625 40.324219 41.890625 40.496094 C 41.71875 40.667969 41.621094 40.898438 41.621094 41.140625 C 41.621094 41.640625 42.03125 42.046875 42.53125 42.046875 C 42.777344 42.046875 43.003906 41.953125 43.175781 41.78125 C 43.347656 41.609375 43.441406 41.382812 43.441406 41.140625 C 43.441406 40.640625 43.035156 40.230469 42.53125 40.230469 Z M 42.53125 42.472656 C 41.796875 42.472656 41.195312 41.875 41.195312 41.140625 C 41.195312 40.785156 41.335938 40.449219 41.589844 40.195312 C 41.839844 39.945312 42.175781 39.804688 42.53125 39.804688 C 43.269531 39.804688 43.867188 40.402344 43.867188 41.140625 C 43.867188 41.496094 43.730469 41.832031 43.476562 42.082031 C 43.226562 42.335938 42.890625 42.472656 42.53125 42.472656 " fill-opacity="1" fill-rule="nonzero"/><g clip-path="url(#ddeaa764a0)"><path fill="#4ada85" d="M 169.148438 15.894531 L 181.675781 6.078125 L 168.632812 33.992188 L 169.148438 15.894531 " fill-opacity="1" fill-rule="nonzero"/></g><g clip-path="url(#ad7f4d92d9)"><path fill="#1ec15f" d="M 168.8125 15.429688 L 181.390625 5.671875 L 151.179688 11.480469 L 168.8125 15.429688 " fill-opacity="1" fill-rule="nonzero"/></g><path fill="#1ec15f" d="M 142.210938 31.210938 C 142.101562 32.292969 142.140625 34 143.253906 34.925781 C 143.453125 35.089844 143.765625 35.289062 144.117188 35.28125 C 144.644531 35.277344 145.132812 34.785156 145.207031 34.1875 C 145.277344 33.65625 145.058594 33.054688 144.609375 32.535156 C 144.113281 31.96875 143.402344 31.542969 142.554688 31.300781 C 142.441406 31.269531 142.324219 31.238281 142.210938 31.210938 Z M 141.410156 59.003906 C 141.398438 59.003906 141.386719 59.003906 141.375 59 C 136.925781 58.210938 133.128906 55.9375 130.964844 52.757812 C 129.523438 50.644531 128.714844 47.9375 128.6875 45.140625 C 128.648438 40.773438 130.769531 35.945312 133.96875 33.132812 C 136.234375 31.140625 138.871094 30.289062 141.601562 30.667969 C 141.683594 30.675781 141.765625 30.691406 141.84375 30.703125 C 142.421875 26.773438 144.875 23.21875 148.433594 21.164062 C 152.109375 19.039062 155.730469 19.351562 159.5625 19.679688 C 160.085938 19.722656 160.617188 19.769531 161.152344 19.808594 C 162.492188 19.910156 165.074219 19.589844 166.230469 17.769531 C 166.292969 17.667969 166.425781 17.640625 166.523438 17.703125 C 166.625 17.765625 166.652344 17.898438 166.589844 17.996094 C 165.324219 19.988281 162.558594 20.339844 161.121094 20.234375 C 160.582031 20.191406 160.054688 20.148438 159.527344 20.101562 C 155.761719 19.78125 152.207031 19.476562 148.648438 21.53125 C 145.195312 23.527344 142.816406 26.976562 142.261719 30.785156 C 142.402344 30.816406 142.535156 30.851562 142.671875 30.890625 C 143.601562 31.152344 144.378906 31.625 144.929688 32.257812 C 145.457031 32.863281 145.714844 33.589844 145.632812 34.242188 C 145.527344 35.039062 144.851562 35.699219 144.125 35.707031 C 143.648438 35.710938 143.234375 35.464844 142.980469 35.253906 C 141.753906 34.234375 141.640625 32.488281 141.789062 31.125 C 141.707031 31.113281 141.625 31.101562 141.542969 31.089844 C 138.9375 30.726562 136.417969 31.546875 134.25 33.453125 C 131.140625 36.191406 129.074219 40.886719 129.113281 45.136719 C 129.140625 47.851562 129.921875 50.472656 131.316406 52.519531 C 133.417969 55.601562 137.109375 57.8125 141.449219 58.582031 C 141.5625 58.601562 141.640625 58.710938 141.621094 58.828125 C 141.601562 58.929688 141.511719 59.003906 141.410156 59.003906 " fill-opacity="1" fill-rule="nonzero"/><path fill="#020202" d="M 98.863281 150.3125 L 87.179688 147.484375 L 84.082031 160.285156 L 95.769531 163.113281 L 98.863281 150.3125 " fill-opacity="1" fill-rule="nonzero"/><path fill="#ffffff" d="M 98.542969 157.59375 L 98.726562 157.855469 C 100.808594 160.839844 100.574219 163.292969 101.507812 167.421875 L 86.101562 171.980469 L 63.539062 170.886719 L 59.824219 168.386719 L 61.320312 165.269531 L 74.042969 161.910156 L 82.945312 157.007812 L 84.875 154.476562 L 87.253906 154.621094 L 89.136719 156.605469 L 88.992188 158.929688 C 91.167969 160.417969 91.539062 161.085938 92.660156 161.15625 C 92.683594 161.148438 94.546875 161.453125 95.253906 159.695312 L 95.980469 157.886719 C 96.417969 156.804688 97.878906 156.640625 98.542969 157.59375 " fill-opacity="1" fill-rule="nonzero"/><path fill="#000000" d="M 63.609375 170.675781 L 86.074219 171.765625 L 101.257812 167.273438 C 101.011719 166.164062 100.847656 165.160156 100.699219 164.269531 C 100.316406 161.921875 100.007812 160.066406 98.550781 157.976562 L 98.367188 157.714844 C 98.101562 157.332031 97.664062 157.136719 97.199219 157.1875 C 96.734375 157.242188 96.355469 157.53125 96.179688 157.964844 L 95.453125 159.773438 C 94.78125 161.441406 93.148438 161.417969 92.664062 161.371094 C 92.660156 161.367188 92.660156 161.367188 92.660156 161.367188 L 92.644531 161.367188 C 91.824219 161.316406 91.382812 160.976562 90.503906 160.300781 C 90.089844 159.984375 89.578125 159.585938 88.875 159.105469 L 88.773438 159.035156 L 88.917969 156.683594 L 87.15625 154.828125 L 84.976562 154.695312 L 83.089844 157.175781 L 74.09375 162.117188 L 61.46875 165.453125 L 60.097656 168.3125 Z M 86.128906 172.195312 L 86.089844 172.191406 L 63.46875 171.09375 L 59.550781 168.460938 L 61.171875 165.089844 L 73.960938 161.710938 L 82.804688 156.84375 L 84.777344 154.253906 L 87.351562 154.414062 L 89.355469 156.523438 L 89.214844 158.824219 C 89.875 159.28125 90.367188 159.65625 90.761719 159.960938 C 91.597656 160.605469 91.980469 160.898438 92.667969 160.941406 C 92.679688 160.941406 92.691406 160.945312 92.703125 160.945312 C 93.230469 160.996094 94.511719 160.96875 95.058594 159.613281 L 95.785156 157.808594 C 96.019531 157.226562 96.53125 156.835938 97.152344 156.765625 C 97.773438 156.695312 98.359375 156.960938 98.71875 157.472656 L 98.898438 157.734375 C 100.414062 159.902344 100.726562 161.796875 101.121094 164.199219 C 101.273438 165.136719 101.449219 166.199219 101.714844 167.375 L 101.761719 167.570312 L 86.128906 172.195312 " fill-opacity="1" fill-rule="nonzero"/><path fill="#020202" d="M 59.824219 168.386719 L 61.195312 168.738281 C 64.902344 169.6875 68.707031 170.210938 72.535156 170.300781 L 74.066406 170.339844 C 81.714844 170.519531 89.359375 169.855469 96.863281 168.351562 L 101.507812 167.421875 L 103.65625 169.621094 L 104.289062 174.859375 L 98.050781 177.128906 C 98.050781 177.128906 93.679688 176.882812 88.132812 176.5625 L 86.871094 175.140625 L 84.792969 175.015625 L 83.351562 176.285156 C 74.679688 175.78125 65.375 175.21875 65.292969 175.128906 C 65.144531 174.960938 60.40625 172.257812 60.40625 172.257812 L 59.6875 170.636719 L 59.824219 168.386719 " fill-opacity="1" fill-rule="nonzero"/><path fill="#000000" d="M 83.1875 160.210938 C 83.140625 160.210938 83.09375 160.195312 83.054688 160.164062 L 80.675781 158.296875 C 80.582031 158.222656 80.566406 158.089844 80.640625 157.996094 C 80.710938 157.902344 80.84375 157.886719 80.9375 157.960938 L 83.320312 159.832031 C 83.410156 159.902344 83.425781 160.035156 83.355469 160.128906 C 83.3125 160.183594 83.25 160.210938 83.1875 160.210938 " fill-opacity="1" fill-rule="nonzero"/><path fill="#000000" d="M 80.953125 161.523438 C 80.90625 161.523438 80.859375 161.507812 80.820312 161.476562 L 78.4375 159.605469 C 78.347656 159.535156 78.328125 159.398438 78.402344 159.308594 C 78.476562 159.214844 78.609375 159.199219 78.703125 159.269531 L 81.082031 161.140625 C 81.175781 161.214844 81.191406 161.347656 81.117188 161.441406 C 81.078125 161.492188 81.015625 161.523438 80.953125 161.523438 " fill-opacity="1" fill-rule="nonzero"/><path fill="#000000" d="M 78.714844 162.832031 C 78.667969 162.832031 78.621094 162.816406 78.582031 162.785156 L 76.203125 160.917969 C 76.109375 160.84375 76.09375 160.710938 76.167969 160.617188 C 76.238281 160.527344 76.371094 160.507812 76.464844 160.582031 L 78.84375 162.453125 C 78.9375 162.523438 78.953125 162.660156 78.882812 162.75 C 78.839844 162.804688 78.777344 162.832031 78.714844 162.832031 " fill-opacity="1" fill-rule="nonzero"/><path fill="#955b50" d="M 83.746094 161.390625 L 73.554688 146.398438 L 49.6875 157.109375 L 55.667969 167.652344 L 83.746094 161.390625 " fill-opacity="1" fill-rule="nonzero"/><path fill="#000000" d="M 50.332031 157.101562 L 56.140625 167.429688 L 83.457031 161.421875 L 73.53125 146.648438 Z M 56.03125 167.882812 C 55.957031 167.882812 55.886719 167.84375 55.847656 167.773438 L 49.847656 157.109375 C 49.816406 157.054688 49.8125 156.996094 49.832031 156.9375 C 49.847656 156.882812 49.890625 156.835938 49.945312 156.808594 L 73.519531 146.1875 C 73.613281 146.144531 73.722656 146.175781 73.78125 146.261719 L 83.984375 161.445312 C 84.023438 161.503906 84.03125 161.578125 84.003906 161.640625 C 83.980469 161.707031 83.921875 161.753906 83.851562 161.769531 L 56.078125 167.878906 C 56.0625 167.882812 56.046875 167.882812 56.03125 167.882812 " fill-opacity="1" fill-rule="nonzero"/><path fill="#ffffff" d="M 60.621094 167.546875 L 60.507812 167.839844 C 59.1875 171.230469 57.015625 172.402344 54.105469 175.476562 L 41.746094 165.207031 L 30.105469 145.847656 L 30.117188 141.371094 L 33.539062 140.882812 L 43.40625 149.585938 L 52.433594 154.257812 L 55.613281 154.453125 L 56.8125 156.507812 L 56.210938 159.175781 L 54.203125 160.351562 C 54.171875 162.988281 53.824219 163.667969 54.390625 164.636719 C 54.40625 164.652344 55.195312 166.371094 57.046875 165.980469 L 58.957031 165.578125 C 60.09375 165.339844 61.046875 166.460938 60.621094 167.546875 " fill-opacity="1" fill-rule="nonzero"/><path fill="#000000" d="M 54.238281 164.785156 Z M 54.238281 164.785156 C 54.238281 164.785156 54.238281 164.785156 54.238281 164.789062 C 54.238281 164.785156 54.238281 164.785156 54.238281 164.785156 Z M 54.242188 164.789062 Z M 54.242188 164.789062 Z M 54.242188 164.789062 Z M 54.242188 164.789062 Z M 54.242188 164.789062 Z M 54.242188 164.789062 C 54.242188 164.789062 54.242188 164.792969 54.246094 164.792969 C 54.242188 164.792969 54.242188 164.789062 54.242188 164.789062 Z M 41.910156 165.066406 L 54.085938 175.183594 C 54.875 174.363281 55.617188 173.667969 56.273438 173.050781 C 58.011719 171.421875 59.382812 170.136719 60.308594 167.765625 L 60.425781 167.46875 C 60.59375 167.035156 60.515625 166.558594 60.210938 166.203125 C 59.910156 165.847656 59.457031 165.691406 59 165.789062 L 57.089844 166.1875 C 55.335938 166.558594 54.445312 165.1875 54.214844 164.757812 C 54.210938 164.75 54.222656 164.765625 54.238281 164.785156 C 54.226562 164.773438 54.214844 164.757812 54.207031 164.742188 C 53.792969 164.035156 53.828125 163.476562 53.902344 162.367188 C 53.9375 161.851562 53.980469 161.203125 53.988281 160.351562 C 53.988281 160.273438 54.027344 160.207031 54.09375 160.167969 L 56.023438 159.039062 L 56.589844 156.542969 L 55.484375 154.660156 L 52.417969 154.46875 C 52.390625 154.46875 52.359375 154.460938 52.335938 154.449219 L 43.308594 149.773438 C 43.292969 149.765625 43.277344 149.757812 43.265625 149.746094 L 33.472656 141.105469 L 30.328125 141.558594 L 30.320312 145.789062 Z M 54.105469 175.6875 C 54.054688 175.6875 54.007812 175.671875 53.96875 175.640625 L 41.609375 165.371094 C 41.59375 165.355469 41.578125 165.339844 41.566406 165.316406 L 29.921875 145.957031 C 29.902344 145.925781 29.890625 145.886719 29.890625 145.847656 L 29.902344 141.371094 C 29.902344 141.265625 29.980469 141.175781 30.085938 141.160156 L 33.507812 140.671875 C 33.570312 140.664062 33.632812 140.679688 33.679688 140.722656 L 43.527344 149.40625 L 52.492188 154.046875 L 55.625 154.242188 C 55.695312 154.246094 55.761719 154.285156 55.796875 154.34375 L 56.996094 156.402344 C 57.023438 156.449219 57.035156 156.503906 57.023438 156.558594 L 56.417969 159.222656 C 56.40625 159.28125 56.371094 159.332031 56.320312 159.359375 L 54.414062 160.476562 C 54.402344 161.28125 54.359375 161.898438 54.328125 162.398438 C 54.257812 163.449219 54.226562 163.929688 54.570312 164.523438 C 54.578125 164.535156 54.582031 164.542969 54.589844 164.558594 C 54.839844 165.023438 55.574219 166.070312 57.003906 165.773438 L 58.910156 165.371094 C 59.523438 165.242188 60.132812 165.449219 60.535156 165.929688 C 60.941406 166.40625 61.046875 167.039062 60.820312 167.621094 L 60.707031 167.917969 C 59.746094 170.382812 58.34375 171.699219 56.566406 173.359375 C 55.875 174.011719 55.089844 174.746094 54.257812 175.621094 C 54.214844 175.667969 54.160156 175.6875 54.105469 175.6875 " fill-opacity="1" fill-rule="nonzero"/><g clip-path="url(#daacddf380)"><path fill="#020202" d="M 30.117188 141.371094 L 30.585938 142.707031 C 31.863281 146.316406 33.542969 149.769531 35.59375 153 L 36.417969 154.292969 C 40.519531 160.75 45.324219 166.734375 50.746094 172.132812 L 54.105469 175.476562 L 53.46875 178.484375 L 49.472656 181.921875 L 44.113281 178.003906 C 44.113281 178.003906 41.886719 174.234375 39.066406 169.445312 L 39.546875 167.605469 L 38.496094 165.804688 L 36.636719 165.316406 C 32.234375 157.828125 27.523438 149.785156 27.554688 149.667969 C 27.613281 149.449219 27.222656 144.007812 27.222656 144.007812 L 28.167969 142.507812 L 30.117188 141.371094 " fill-opacity="1" fill-rule="nonzero"/></g><path fill="#000000" d="M 50.082031 156.332031 C 50.078125 156.332031 50.074219 156.332031 50.066406 156.332031 C 49.949219 156.324219 49.863281 156.222656 49.871094 156.105469 L 50.101562 153.085938 C 50.109375 152.96875 50.210938 152.878906 50.328125 152.890625 C 50.445312 152.898438 50.535156 153 50.527344 153.117188 L 50.296875 156.136719 C 50.289062 156.25 50.195312 156.332031 50.082031 156.332031 " fill-opacity="1" fill-rule="nonzero"/><path fill="#000000" d="M 47.75 155.203125 C 47.746094 155.203125 47.738281 155.203125 47.734375 155.203125 C 47.617188 155.195312 47.527344 155.09375 47.539062 154.976562 L 47.765625 151.957031 C 47.777344 151.839844 47.878906 151.75 47.996094 151.761719 C 48.113281 151.769531 48.203125 151.871094 48.191406 151.988281 L 47.960938 155.007812 C 47.953125 155.121094 47.859375 155.203125 47.75 155.203125 " fill-opacity="1" fill-rule="nonzero"/><path fill="#000000" d="M 45.417969 154.074219 C 45.410156 154.074219 45.40625 154.074219 45.398438 154.074219 C 45.28125 154.066406 45.195312 153.964844 45.203125 153.847656 L 45.433594 150.828125 C 45.441406 150.710938 45.542969 150.621094 45.664062 150.632812 C 45.78125 150.640625 45.867188 150.742188 45.859375 150.859375 L 45.628906 153.878906 C 45.621094 153.988281 45.527344 154.074219 45.417969 154.074219 " fill-opacity="1" fill-rule="nonzero"/><path fill="#fed101" d="M 78.855469 158.316406 L 83.386719 114.257812 C 84.519531 103.246094 97.5 97.984375 105.980469 105.09375 L 114.921875 112.585938 L 163.960938 152.269531 L 157.726562 159.976562 C 150.691406 168.671875 137.941406 170.015625 129.25 162.980469 L 107.714844 145.554688 L 100.261719 160.515625 L 78.855469 158.316406 " fill-opacity="1" fill-rule="nonzero"/><path fill="#fed101" d="M 71.875 146.085938 L 96.960938 135.230469 C 104.40625 132.007812 112.160156 131.34375 119.949219 133.808594 L 179.421875 152.234375 L 176.894531 159.425781 C 172.902344 169.679688 160.441406 175.070312 149.070312 171.46875 L 109.882812 157.046875 L 83.742188 167.046875 L 71.875 146.085938 " fill-opacity="1" fill-rule="nonzero"/><path fill="#000000" d="M 109.886719 156.832031 C 109.910156 156.832031 109.9375 156.835938 109.957031 156.84375 L 149.144531 171.269531 C 160.386719 174.828125 172.75 169.484375 176.699219 159.351562 L 178.820312 152.957031 L 120.6875 134.253906 C 112.890625 131.785156 104.496094 132.203125 97.046875 135.425781 L 72.175781 146.1875 L 83.835938 166.78125 L 109.808594 156.84375 C 109.832031 156.835938 109.859375 156.832031 109.886719 156.832031 Z M 156.277344 172.792969 C 153.863281 172.792969 151.410156 172.433594 149.003906 171.671875 L 109.886719 157.273438 L 83.816406 167.246094 C 83.71875 167.28125 83.609375 167.242188 83.558594 167.152344 L 71.6875 146.191406 C 71.660156 146.140625 71.652344 146.078125 71.671875 146.019531 C 71.691406 145.960938 71.734375 145.917969 71.789062 145.890625 L 96.875 135.035156 C 104.417969 131.769531 112.921875 131.351562 120.816406 133.847656 L 179.15625 152.617188 C 179.210938 152.632812 179.257812 152.671875 179.28125 152.722656 C 179.304688 152.773438 179.3125 152.832031 179.292969 152.886719 L 177.097656 159.496094 C 173.914062 167.671875 165.375 172.792969 156.277344 172.792969 " fill-opacity="1" fill-rule="nonzero"/><path fill="#000000" d="M 179.347656 151.269531 L 176.90625 159.683594 L 143.925781 141.636719 L 146.828125 139.46875 L 179.347656 151.269531 " fill-opacity="1" fill-rule="nonzero"/><path fill="#000000" d="M 133.265625 138.226562 C 133.242188 138.226562 133.222656 138.222656 133.199219 138.214844 L 120.6875 134.253906 C 112.890625 131.789062 104.492188 132.203125 97.042969 135.425781 C 96.9375 135.472656 96.8125 135.425781 96.765625 135.316406 C 96.71875 135.207031 96.765625 135.082031 96.875 135.035156 C 104.417969 131.769531 112.921875 131.351562 120.816406 133.847656 L 133.328125 137.8125 C 133.441406 137.84375 133.503906 137.964844 133.46875 138.078125 C 133.4375 138.167969 133.355469 138.226562 133.265625 138.226562 " fill-opacity="1" fill-rule="nonzero"/><path fill="#000000" d="M 166.558594 78.644531 C 167 88.667969 158.992188 97.160156 148.667969 97.617188 C 138.347656 98.078125 129.617188 90.324219 129.171875 80.300781 C 128.726562 70.277344 136.734375 61.785156 147.058594 61.328125 C 157.382812 60.867188 166.113281 68.621094 166.558594 78.644531 " fill-opacity="1" fill-rule="nonzero"/><path fill="#955b50" d="M 151.863281 104.730469 L 158.320312 101.933594 L 151.859375 87.007812 L 145.402344 89.800781 L 151.863281 104.730469 " fill-opacity="1" fill-rule="nonzero"/><path fill="#955b50" d="M 151.773438 87.082031 C 153.238281 90.472656 151.917969 94.308594 148.820312 95.652344 C 145.722656 96.992188 142.023438 95.328125 140.554688 91.933594 C 139.085938 88.542969 140.40625 84.707031 143.503906 83.367188 C 146.601562 82.023438 150.304688 83.6875 151.773438 87.082031 " fill-opacity="1" fill-rule="nonzero"/><path fill="#ffffff" d="M 148.945312 92.421875 C 148.699219 92.96875 148.285156 93.445312 147.722656 93.761719 C 146.464844 94.464844 144.910156 94.125 144.046875 93.027344 L 148.945312 92.421875 " fill-opacity="1" fill-rule="nonzero"/><path fill="#000000" d="M 146.511719 96.367188 C 145.660156 96.367188 144.796875 96.179688 143.972656 95.808594 C 142.390625 95.097656 141.128906 93.792969 140.410156 92.136719 C 139.691406 90.476562 139.605469 88.660156 140.171875 87.023438 C 140.738281 85.378906 141.890625 84.109375 143.414062 83.449219 C 146.351562 82.179688 149.828125 83.527344 151.5 86.582031 C 151.558594 86.6875 151.519531 86.816406 151.417969 86.871094 C 151.3125 86.929688 151.183594 86.890625 151.128906 86.789062 C 149.558594 83.925781 146.316406 82.65625 143.582031 83.839844 C 142.171875 84.453125 141.101562 85.632812 140.574219 87.160156 C 140.042969 88.699219 140.125 90.40625 140.800781 91.964844 C 141.476562 93.527344 142.664062 94.753906 144.148438 95.421875 C 145.625 96.085938 147.214844 96.113281 148.632812 95.5 C 149.164062 95.269531 149.660156 94.953125 150.089844 94.558594 C 150.179688 94.480469 150.3125 94.488281 150.390625 94.574219 C 150.46875 94.660156 150.464844 94.796875 150.375 94.875 C 149.910156 95.300781 149.378906 95.640625 148.800781 95.890625 C 148.066406 96.207031 147.292969 96.367188 146.511719 96.367188 " fill-opacity="1" fill-rule="nonzero"/><path fill="#000000" d="M 144.925781 87.3125 L 140.71875 92.257812 C 140.640625 92.105469 140.5625 91.953125 140.492188 91.792969 C 139.03125 88.417969 140.347656 84.601562 143.429688 83.265625 C 146.511719 81.933594 150.453125 83.636719 151.914062 87.015625 C 152.011719 87.242188 152.09375 87.472656 152.171875 87.703125 L 144.925781 87.3125 " fill-opacity="1" fill-rule="nonzero"/><path fill="#000000" d="M 70.324219 94.550781 L 55.3125 94.550781 L 55.3125 49.457031 L 88.9375 47.125 L 123.523438 47.171875 L 124.242188 94.550781 L 70.324219 94.550781 " fill-opacity="1" fill-rule="nonzero"/><path fill="#955b50" d="M 104.867188 100.910156 L 100.511719 97.375 C 100.511719 97.375 102.175781 94.621094 99.839844 91.976562 C 99.300781 91.363281 98.078125 90.203125 97.03125 89.234375 C 95.84375 88.132812 94.808594 86.878906 93.949219 85.507812 L 92.964844 83.933594 C 92.46875 83.144531 91.4375 82.882812 90.628906 83.34375 L 90.453125 83.445312 C 89.632812 83.910156 89.335938 84.949219 89.78125 85.78125 L 92.675781 91.144531 L 89.765625 91.660156 C 88.273438 91.921875 86.734375 91.765625 85.328125 91.203125 L 79.597656 89.050781 C 78.644531 88.695312 77.574219 89.09375 77.089844 89.988281 L 77.007812 90.140625 L 74.050781 88.683594 C 73.167969 88.28125 72.121094 88.648438 71.679688 89.511719 C 71.246094 90.363281 71.546875 91.402344 72.363281 91.894531 L 92.480469 103.988281 L 98.574219 108.617188 L 104.867188 100.910156 " fill-opacity="1" fill-rule="nonzero"/><path fill="#8c7bff" d="M 53.398438 47.171875 L 87.859375 24.828125 L 122.324219 47.171875 L 87.863281 71.542969 L 53.398438 47.171875 " fill-opacity="1" fill-rule="nonzero"/><path fill="#020202" d="M 115.46875 88.171875 L 59.09375 88.171875 L 59.09375 18.78125 L 115.46875 18.78125 L 115.46875 88.171875 " fill-opacity="1" fill-rule="nonzero"/><path fill="#ffffff" d="M 116.628906 86.738281 L 60.253906 86.738281 L 60.253906 17.347656 L 116.628906 17.347656 L 116.628906 86.738281 " fill-opacity="1" fill-rule="nonzero"/><path fill="#000000" d="M 60.46875 86.527344 L 116.417969 86.527344 L 116.417969 17.558594 L 60.46875 17.558594 Z M 116.632812 86.953125 L 60.253906 86.953125 C 60.136719 86.953125 60.042969 86.855469 60.042969 86.738281 L 60.042969 17.347656 C 60.042969 17.230469 60.136719 17.136719 60.253906 17.136719 L 116.632812 17.136719 C 116.75 17.136719 116.84375 17.230469 116.84375 17.347656 L 116.84375 86.738281 C 116.84375 86.855469 116.75 86.953125 116.632812 86.953125 " fill-opacity="1" fill-rule="nonzero"/><path fill="#8c7bff" d="M 92.738281 42.96875 C 93.5625 42.121094 93.972656 40.976562 93.972656 39.523438 C 93.972656 38.09375 93.5625 36.960938 92.738281 36.125 C 91.910156 35.292969 90.851562 34.875 89.5625 34.875 C 88.25 34.875 87.1875 35.296875 86.371094 36.140625 C 85.554688 36.984375 85.148438 38.113281 85.148438 39.523438 C 85.148438 40.957031 85.554688 42.097656 86.371094 42.953125 C 87.1875 43.808594 88.25 44.234375 89.5625 44.234375 C 90.851562 44.234375 91.910156 43.8125 92.738281 42.96875 Z M 97.074219 27.480469 C 99.199219 28.59375 100.855469 30.144531 102.039062 32.132812 C 103.21875 34.117188 103.8125 36.363281 103.8125 38.867188 C 103.8125 41.453125 103.304688 43.476562 102.292969 44.933594 C 101.277344 46.398438 99.875 47.125 98.085938 47.125 C 97.132812 47.125 96.328125 46.902344 95.671875 46.457031 C 95.015625 46.007812 94.558594 45.367188 94.300781 44.53125 C 93.109375 46.261719 91.320312 47.125 88.933594 47.125 C 87.585938 47.125 86.363281 46.804688 85.269531 46.15625 C 84.175781 45.511719 83.320312 44.613281 82.703125 43.460938 C 82.089844 42.308594 81.78125 40.996094 81.78125 39.523438 C 81.78125 38.074219 82.089844 36.777344 82.703125 35.632812 C 83.320312 34.492188 84.175781 33.597656 85.269531 32.953125 C 86.363281 32.304688 87.585938 31.984375 88.933594 31.984375 C 89.988281 31.984375 90.9375 32.160156 91.78125 32.519531 C 92.628906 32.875 93.339844 33.402344 93.914062 34.097656 L 93.914062 32.160156 L 97.222656 32.160156 L 97.222656 42.296875 C 97.222656 43.011719 97.367188 43.53125 97.65625 43.847656 C 97.941406 44.164062 98.316406 44.324219 98.773438 44.324219 C 99.589844 44.324219 100.207031 43.863281 100.636719 42.9375 C 101.0625 42.015625 101.277344 40.675781 101.277344 38.929688 C 101.277344 36.820312 100.792969 34.964844 99.832031 33.355469 C 98.867188 31.742188 97.519531 30.492188 95.792969 29.597656 C 94.0625 28.703125 92.074219 28.257812 89.828125 28.257812 C 87.566406 28.257812 85.554688 28.726562 83.808594 29.671875 C 82.058594 30.617188 80.707031 31.933594 79.753906 33.621094 C 78.800781 35.3125 78.324219 37.230469 78.324219 39.375 C 78.324219 41.5625 78.792969 43.5 79.738281 45.1875 C 80.683594 46.878906 82.019531 48.195312 83.746094 49.140625 C 85.476562 50.082031 87.464844 50.554688 89.710938 50.554688 C 90.683594 50.554688 91.675781 50.445312 92.675781 50.226562 C 93.679688 50.007812 94.621094 49.679688 95.496094 49.242188 L 96.296875 51.628906 C 95.425781 52.085938 94.398438 52.433594 93.214844 52.671875 C 92.03125 52.910156 90.863281 53.027344 89.710938 53.027344 C 86.929688 53.027344 84.46875 52.441406 82.332031 51.269531 C 80.195312 50.097656 78.535156 48.476562 77.355469 46.410156 C 76.171875 44.34375 75.582031 42 75.582031 39.375 C 75.582031 36.792969 76.175781 34.472656 77.367188 32.414062 C 78.5625 30.359375 80.234375 28.742188 82.390625 27.570312 C 84.546875 26.398438 87.027344 25.8125 89.828125 25.8125 C 92.53125 25.8125 94.945312 26.367188 97.074219 27.480469 " fill-opacity="1" fill-rule="nonzero"/><path fill="#fed101" d="M 68.410156 92.421875 L 53.398438 92.421875 L 53.398438 47.328125 L 87.863281 68.269531 L 122.324219 47.328125 L 122.324219 92.421875 L 68.410156 92.421875 " fill-opacity="1" fill-rule="nonzero"/><path fill="#000000" d="M 53.609375 92.210938 L 122.113281 92.210938 L 122.113281 47.550781 L 87.972656 68.453125 C 87.902344 68.492188 87.816406 68.492188 87.75 68.453125 L 53.609375 47.550781 Z M 122.324219 92.636719 L 53.398438 92.636719 C 53.28125 92.636719 53.183594 92.539062 53.183594 92.421875 L 53.183594 47.171875 C 53.183594 47.09375 53.226562 47.023438 53.292969 46.984375 C 53.359375 46.949219 53.441406 46.949219 53.507812 46.992188 L 87.859375 68.019531 L 122.214844 46.992188 C 122.28125 46.949219 122.363281 46.949219 122.429688 46.984375 C 122.496094 47.023438 122.539062 47.09375 122.539062 47.171875 L 122.539062 92.421875 C 122.539062 92.539062 122.441406 92.636719 122.324219 92.636719 " fill-opacity="1" fill-rule="nonzero"/><path fill="#000000" d="M 73.300781 88.730469 C 72.714844 88.730469 72.152344 89.054688 71.871094 89.609375 C 71.492188 90.355469 71.753906 91.277344 72.472656 91.710938 L 92.589844 103.804688 C 92.597656 103.808594 92.601562 103.8125 92.609375 103.816406 L 98.539062 108.324219 L 104.566406 100.941406 L 100.375 97.539062 C 100.292969 97.472656 100.273438 97.355469 100.328125 97.261719 C 100.394531 97.15625 101.882812 94.605469 99.683594 92.121094 C 99.25 91.628906 98.28125 90.683594 96.886719 89.390625 C 95.6875 88.28125 94.640625 87.011719 93.769531 85.621094 L 92.78125 84.046875 C 92.347656 83.351562 91.445312 83.125 90.734375 83.53125 L 90.558594 83.628906 C 89.84375 84.035156 89.582031 84.957031 89.972656 85.679688 L 92.863281 91.042969 C 92.894531 91.105469 92.898438 91.175781 92.867188 91.238281 C 92.835938 91.300781 92.78125 91.34375 92.710938 91.355469 L 89.800781 91.867188 C 88.269531 92.140625 86.695312 91.976562 85.25 91.402344 L 79.523438 89.25 C 78.675781 88.933594 77.710938 89.292969 77.277344 90.089844 L 77.195312 90.242188 C 77.140625 90.34375 77.015625 90.382812 76.914062 90.332031 L 73.957031 88.875 C 73.742188 88.777344 73.519531 88.730469 73.300781 88.730469 Z M 98.574219 108.832031 C 98.527344 108.832031 98.484375 108.816406 98.445312 108.789062 L 92.359375 104.164062 L 72.253906 92.074219 C 71.34375 91.527344 71.007812 90.359375 71.492188 89.414062 C 71.984375 88.445312 73.148438 88.039062 74.136719 88.488281 L 76.917969 89.859375 C 77.457031 88.894531 78.636719 88.464844 79.671875 88.851562 L 85.402344 91.003906 C 86.777344 91.554688 88.273438 91.707031 89.726562 91.449219 L 92.347656 90.988281 L 89.597656 85.882812 C 89.097656 84.957031 89.433594 83.78125 90.347656 83.257812 L 90.523438 83.160156 C 91.433594 82.640625 92.585938 82.929688 93.144531 83.820312 L 94.128906 85.394531 C 94.980469 86.753906 96.003906 87.992188 97.175781 89.078125 C 98.15625 89.988281 99.441406 91.203125 100 91.835938 C 102.082031 94.191406 101.101562 96.664062 100.78125 97.320312 L 105.003906 100.746094 C 105.046875 100.78125 105.074219 100.832031 105.078125 100.886719 C 105.085938 100.945312 105.070312 101 105.03125 101.042969 L 98.738281 108.753906 C 98.699219 108.804688 98.636719 108.832031 98.574219 108.832031 " fill-opacity="1" fill-rule="nonzero"/><path fill="#955b50" d="M 89.90625 97.441406 L 88.449219 96.4375 C 87.523438 95.800781 86.800781 94.910156 86.371094 93.875 L 84.019531 88.1875 C 83.679688 87.371094 82.746094 86.972656 81.925781 87.300781 C 81.140625 87.613281 80.726562 88.472656 80.972656 89.277344 L 82.980469 95.871094 C 83.140625 96.402344 83.410156 96.898438 83.765625 97.324219 L 85.6875 99.628906 L 89.90625 97.441406 " fill-opacity="1" fill-rule="nonzero"/><path fill="#955b50" d="M 86.136719 94.660156 L 84.535156 93.914062 C 83.515625 93.441406 82.65625 92.679688 82.0625 91.726562 L 78.800781 86.507812 C 78.332031 85.757812 77.347656 85.523438 76.589844 85.980469 C 75.871094 86.417969 75.605469 87.332031 75.980469 88.085938 L 79.046875 94.257812 C 79.296875 94.753906 79.640625 95.199219 80.0625 95.5625 L 82.339844 97.515625 L 86.136719 94.660156 " fill-opacity="1" fill-rule="nonzero"/><path fill="#000000" d="M 80.0625 95.777344 C 80.015625 95.777344 79.964844 95.757812 79.925781 95.722656 C 79.476562 95.339844 79.121094 94.878906 78.855469 94.351562 L 75.789062 88.183594 C 75.367188 87.335938 75.671875 86.289062 76.480469 85.796875 C 77.332031 85.285156 78.453125 85.550781 78.984375 86.394531 L 81.46875 90.414062 C 81.53125 90.515625 81.5 90.648438 81.402344 90.707031 C 81.300781 90.769531 81.171875 90.738281 81.109375 90.640625 L 78.621094 86.621094 C 78.21875 85.972656 77.355469 85.769531 76.699219 86.164062 C 76.078125 86.539062 75.847656 87.34375 76.167969 87.992188 L 79.238281 94.164062 C 79.476562 94.636719 79.800781 95.054688 80.203125 95.402344 C 80.292969 95.476562 80.300781 95.613281 80.226562 95.703125 C 80.183594 95.75 80.125 95.777344 80.0625 95.777344 " fill-opacity="1" fill-rule="nonzero"/><path fill="#000000" d="M 84.804688 98.480469 C 84.757812 98.480469 84.707031 98.464844 84.667969 98.429688 C 83.382812 97.3125 82.691406 96.328125 82.355469 95.128906 L 80.765625 89.335938 C 80.492188 88.433594 80.964844 87.453125 81.847656 87.101562 C 82.773438 86.734375 83.832031 87.183594 84.214844 88.105469 L 86.566406 93.792969 C 86.980469 94.792969 87.671875 95.648438 88.570312 96.265625 L 91.6875 98.078125 C 91.789062 98.136719 91.824219 98.265625 91.765625 98.367188 C 91.707031 98.46875 91.574219 98.503906 91.476562 98.445312 L 88.339844 96.621094 C 87.363281 95.953125 86.621094 95.035156 86.175781 93.953125 L 83.820312 88.269531 C 83.527344 87.5625 82.714844 87.21875 82.003906 87.5 C 81.328125 87.765625 80.964844 88.519531 81.175781 89.214844 L 82.769531 95.015625 C 83.082031 96.140625 83.710938 97.035156 84.945312 98.109375 C 85.035156 98.183594 85.042969 98.320312 84.96875 98.410156 C 84.925781 98.457031 84.867188 98.480469 84.804688 98.480469 " fill-opacity="1" fill-rule="nonzero"/><path fill="#000000" d="M 94.023438 93.78125 C 93.945312 93.78125 93.875 93.742188 93.835938 93.671875 L 92.457031 91.183594 C 92.402344 91.082031 92.4375 90.949219 92.539062 90.894531 C 92.644531 90.835938 92.773438 90.875 92.832031 90.976562 L 94.207031 93.464844 C 94.265625 93.570312 94.226562 93.699219 94.125 93.757812 C 94.09375 93.773438 94.054688 93.78125 94.023438 93.78125 " fill-opacity="1" fill-rule="nonzero"/><path fill="#8c7bff" d="M 142.839844 100.789062 L 118.867188 109.796875 L 104.09375 98.296875 L 95.917969 109.136719 L 112.078125 121.714844 C 114.925781 123.929688 118.699219 124.503906 122.0625 123.230469 L 147.042969 113.773438 L 142.839844 100.789062 " fill-opacity="1" fill-rule="nonzero"/><path fill="#8c7bff" d="M 139.625 105.671875 C 139.710938 107.152344 138.820312 109.164062 137.0625 110.433594 C 135.40625 111.632812 134.445312 113.695312 134.746094 115.882812 C 134.960938 117.492188 135.820312 118.851562 137.019531 119.734375 C 138.0625 120.503906 138.714844 121.703125 138.699219 123.011719 L 138.570312 134.21875 C 138.566406 134.53125 138.824219 134.785156 139.132812 134.769531 L 180.78125 155.992188 L 174.320312 108.941406 C 172 103.136719 164.046875 99.632812 157.886719 99.910156 L 144.199219 100.527344 C 141.527344 100.648438 139.472656 102.964844 139.625 105.671875 " fill-opacity="1" fill-rule="nonzero"/><path fill="#000000" d="M 138.59375 135.007812 C 138.59375 135.007812 138.59375 135.007812 138.589844 135.007812 C 138.472656 135.007812 138.378906 134.910156 138.378906 134.792969 L 138.515625 122.785156 C 138.53125 121.671875 138 120.644531 137.097656 120.027344 C 135.714844 119.085938 134.789062 117.585938 134.5625 115.910156 C 134.265625 113.714844 135.183594 111.550781 136.964844 110.261719 C 138.441406 109.195312 139.347656 107.597656 139.457031 105.882812 C 139.460938 105.765625 139.566406 105.675781 139.679688 105.683594 C 139.796875 105.691406 139.890625 105.792969 139.878906 105.910156 C 139.765625 107.75 138.792969 109.464844 137.214844 110.605469 C 135.5625 111.804688 134.707031 113.8125 134.984375 115.851562 C 135.195312 117.40625 136.054688 118.800781 137.339844 119.675781 C 138.359375 120.371094 138.957031 121.535156 138.945312 122.789062 L 138.804688 134.796875 C 138.804688 134.914062 138.710938 135.007812 138.59375 135.007812 " fill-opacity="1" fill-rule="nonzero"/><path fill="#000000" d="M 150.335938 118.855469 C 150.304688 118.855469 150.269531 118.847656 150.242188 118.832031 C 148.472656 117.914062 147.289062 116.167969 147.082031 114.171875 C 146.746094 110.945312 148.964844 108.082031 152.136719 107.65625 C 152.253906 107.640625 152.359375 107.722656 152.375 107.835938 C 152.390625 107.953125 152.308594 108.0625 152.191406 108.078125 C 149.25 108.472656 147.191406 111.128906 147.503906 114.125 C 147.699219 115.984375 148.792969 117.601562 150.4375 118.453125 C 150.539062 118.507812 150.582031 118.636719 150.527344 118.742188 C 150.488281 118.8125 150.414062 118.855469 150.335938 118.855469 " fill-opacity="1" fill-rule="nonzero"/><path fill="#955b50" d="M 144.667969 130.523438 C 144.335938 130.328125 142.710938 128.558594 139.8125 128.574219 L 138.664062 128.582031 C 137.375 128.589844 137.117188 129.082031 135.835938 129.089844 L 130.546875 129.121094 C 129.773438 129.125 129.148438 129.765625 129.15625 130.550781 L 129.15625 130.65625 C 129.160156 131.441406 129.789062 132.074219 130.5625 132.070312 L 144.675781 131.988281 L 144.667969 130.523438 " fill-opacity="1" fill-rule="nonzero"/><path fill="#955b50" d="M 142.457031 131.738281 L 137.257812 135.902344 C 135.9375 136.957031 134.304688 137.535156 132.621094 137.535156 C 129.363281 137.539062 127.882812 137.433594 125.628906 137.996094 L 125.3125 138.078125 C 124.453125 138.292969 123.621094 137.636719 123.617188 136.738281 L 123.617188 136.621094 C 123.613281 135.976562 124.042969 135.417969 124.65625 135.261719 C 125.988281 134.929688 127.234375 134.578125 129.230469 134.566406 L 131.046875 134.554688 C 132.71875 134.546875 134.34375 133.964844 135.65625 132.910156 L 137.074219 131.773438 L 142.457031 131.738281 " fill-opacity="1" fill-rule="nonzero"/><path fill="#955b50" d="M 141.246094 140.359375 L 132.039062 140.476562 C 131.0625 140.488281 130.09375 140.285156 129.195312 139.886719 L 128.59375 139.617188 C 127.527344 139.140625 127.042969 137.875 127.511719 136.792969 C 127.6875 136.390625 128.148438 136.207031 128.546875 136.382812 L 129.464844 136.792969 C 130.570312 137.289062 131.765625 137.535156 132.972656 137.523438 L 141.230469 137.441406 L 141.246094 140.359375 " fill-opacity="1" fill-rule="nonzero"/><path fill="#955b50" d="M 143.378906 142.148438 C 142.191406 142.875 140.835938 143.269531 139.449219 143.292969 L 136.488281 143.34375 C 135.511719 143.355469 134.542969 143.15625 133.644531 142.753906 L 133.039062 142.484375 C 131.972656 142.007812 131.488281 140.746094 131.960938 139.660156 C 132.132812 139.257812 132.597656 139.074219 132.996094 139.253906 L 135.589844 140.410156 L 146.410156 140.238281 L 143.378906 142.148438 " fill-opacity="1" fill-rule="nonzero"/><path fill="#955b50" d="M 138.035156 130.574219 L 132.917969 137.058594 L 131.839844 140.433594 L 152.277344 140.300781 L 152.21875 130.488281 L 138.035156 130.574219 " fill-opacity="1" fill-rule="nonzero"/><path fill="#020202" d="M 148.207031 130.5 L 152.21875 130.488281 L 152.277344 140.300781 L 149.386719 140.320312 L 148.207031 130.5 " fill-opacity="1" fill-rule="nonzero"/><path fill="#000000" d="M 124.980469 138.332031 C 124.636719 138.332031 124.300781 138.21875 124.023438 138.003906 C 123.632812 137.699219 123.40625 137.238281 123.402344 136.742188 L 123.402344 136.621094 C 123.398438 135.878906 123.890625 135.238281 124.601562 135.058594 L 124.875 134.988281 C 126.089844 134.683594 127.34375 134.363281 129.226562 134.351562 L 131.042969 134.34375 C 132.660156 134.332031 134.253906 133.765625 135.519531 132.746094 L 136.601562 131.875 C 136.695312 131.800781 136.828125 131.816406 136.902344 131.910156 C 136.972656 132 136.960938 132.132812 136.867188 132.207031 L 135.789062 133.078125 C 134.445312 134.15625 132.761719 134.757812 131.046875 134.769531 L 129.230469 134.78125 C 127.398438 134.789062 126.222656 135.085938 124.980469 135.402344 L 124.707031 135.472656 C 124.1875 135.601562 123.824219 136.074219 123.828125 136.621094 L 123.828125 136.738281 C 123.832031 137.105469 123.996094 137.445312 124.285156 137.667969 C 124.5625 137.882812 124.917969 137.957031 125.257812 137.871094 L 125.578125 137.792969 C 127.523438 137.304688 128.9375 137.3125 131.28125 137.320312 C 131.996094 137.320312 132.8125 137.324219 133.761719 137.316406 C 133.949219 137.3125 135.261719 137.308594 136.289062 137.300781 C 137.140625 137.300781 137.976562 137.390625 138.796875 137.582031 L 139.046875 137.640625 C 139.160156 137.667969 139.234375 137.78125 139.207031 137.894531 C 139.179688 138.011719 139.066406 138.082031 138.949219 138.054688 L 138.703125 137.996094 C 137.910156 137.8125 137.101562 137.726562 136.289062 137.726562 C 135.265625 137.730469 133.953125 137.738281 133.765625 137.742188 C 132.8125 137.75 131.996094 137.75 131.277344 137.746094 C 128.890625 137.734375 127.574219 137.730469 125.679688 138.207031 L 125.363281 138.285156 C 125.234375 138.316406 125.109375 138.332031 124.980469 138.332031 " fill-opacity="1" fill-rule="nonzero"/><path fill="#000000" d="M 139.015625 140.9375 C 139 140.9375 138.984375 140.933594 138.96875 140.929688 L 138.664062 140.863281 C 137.886719 140.695312 137.089844 140.613281 136.289062 140.625 L 132.042969 140.6875 C 131.027344 140.699219 130.039062 140.496094 129.109375 140.082031 L 128.507812 139.8125 C 127.671875 139.4375 127.128906 138.601562 127.121094 137.679688 C 127.117188 137.5625 127.210938 137.464844 127.332031 137.464844 C 127.449219 137.464844 127.542969 137.558594 127.546875 137.675781 C 127.554688 138.433594 128 139.117188 128.679688 139.421875 L 129.285156 139.691406 C 130.15625 140.082031 131.085938 140.273438 132.035156 140.261719 L 136.28125 140.199219 C 137.113281 140.1875 137.945312 140.269531 138.757812 140.449219 L 139.0625 140.515625 C 139.175781 140.539062 139.25 140.65625 139.222656 140.769531 C 139.203125 140.867188 139.113281 140.9375 139.015625 140.9375 " fill-opacity="1" fill-rule="nonzero"/><path fill="#000000" d="M 136.402344 143.558594 C 135.417969 143.558594 134.460938 143.351562 133.558594 142.949219 L 132.953125 142.679688 C 132.082031 142.289062 131.539062 141.417969 131.566406 140.453125 C 131.570312 140.335938 131.671875 140.242188 131.785156 140.25 C 131.90625 140.25 131.996094 140.347656 131.996094 140.46875 C 131.96875 141.257812 132.414062 141.972656 133.125 142.289062 L 133.730469 142.5625 C 134.605469 142.953125 135.53125 143.144531 136.484375 143.132812 L 139.445312 143.078125 C 140.792969 143.054688 142.113281 142.671875 143.269531 141.96875 L 146.273438 140.125 L 152.0625 140.089844 L 152.007812 130.703125 L 144.609375 130.738281 L 144.558594 130.707031 C 144.496094 130.667969 144.414062 130.601562 144.289062 130.5 C 143.664062 129.988281 142.207031 128.785156 139.855469 128.785156 C 139.839844 128.785156 139.828125 128.785156 139.8125 128.785156 L 138.664062 128.796875 C 138.054688 128.796875 137.691406 128.914062 137.308594 129.039062 C 136.917969 129.164062 136.507812 129.296875 135.835938 129.300781 L 130.546875 129.332031 C 129.894531 129.335938 129.363281 129.882812 129.367188 130.550781 L 129.367188 130.65625 C 129.371094 130.980469 129.496094 131.28125 129.722656 131.511719 C 129.945312 131.734375 130.242188 131.859375 130.554688 131.859375 C 130.558594 131.859375 130.558594 131.859375 130.5625 131.859375 L 138.605469 131.808594 C 138.722656 131.808594 138.816406 131.902344 138.816406 132.019531 C 138.816406 132.140625 138.722656 132.234375 138.605469 132.234375 L 130.5625 132.285156 C 130.558594 132.285156 130.558594 132.285156 130.554688 132.285156 C 130.125 132.285156 129.722656 132.117188 129.421875 131.808594 C 129.113281 131.503906 128.945312 131.09375 128.941406 130.660156 L 128.941406 130.550781 C 128.9375 129.648438 129.65625 128.914062 130.542969 128.90625 L 135.835938 128.875 C 136.441406 128.871094 136.800781 128.757812 137.179688 128.632812 C 137.574219 128.503906 137.984375 128.375 138.660156 128.367188 L 139.8125 128.363281 C 142.347656 128.347656 143.953125 129.671875 144.558594 130.171875 C 144.625 130.226562 144.6875 130.277344 144.734375 130.3125 L 152.433594 130.277344 L 152.488281 140.515625 L 146.394531 140.550781 L 143.492188 142.332031 C 142.269531 143.074219 140.875 143.480469 139.453125 143.503906 L 136.492188 143.558594 C 136.460938 143.558594 136.433594 143.558594 136.402344 143.558594 " fill-opacity="1" fill-rule="nonzero"/><g clip-path="url(#d095cf1d95)"><path fill="#8c7bff" d="M 181.613281 131.851562 L 180.988281 115.46875 C 180.640625 106.335938 173.042969 99.234375 164.050781 99.644531 L 156.8125 99.976562 L 167.757812 113.324219 L 168.363281 127.855469 L 149.339844 128.730469 L 149.9375 142.105469 L 173.109375 141.035156 C 177.921875 140.8125 181.6875 136.746094 181.613281 131.851562 " fill-opacity="1" fill-rule="nonzero"/><path fill="#000000" d="M 149.734375 142.332031 L 149.117188 128.527344 L 168.140625 127.652344 L 167.546875 113.335938 C 167.542969 113.21875 167.632812 113.117188 167.75 113.113281 C 167.867188 113.109375 167.96875 113.199219 167.972656 113.316406 L 168.585938 128.058594 L 149.5625 128.933594 L 150.140625 141.882812 L 173.101562 140.820312 C 177.828125 140.601562 181.472656 136.664062 181.398438 131.855469 L 180.773438 115.476562 C 180.605469 111.066406 178.742188 107.007812 175.523438 104.046875 C 172.375 101.148438 168.304688 99.664062 164.0625 99.855469 L 157.542969 100.15625 C 157.421875 100.160156 157.324219 100.070312 157.320312 99.953125 C 157.3125 99.835938 157.40625 99.738281 157.523438 99.730469 L 164.042969 99.433594 C 168.398438 99.234375 172.578125 100.757812 175.8125 103.734375 C 179.117188 106.773438 181.027344 110.9375 181.199219 115.460938 L 181.824219 131.84375 C 181.902344 136.890625 178.082031 141.015625 173.121094 141.246094 L 149.734375 142.332031 " fill-opacity="1" fill-rule="nonzero"/></g><path fill="#000000" d="M 168.257812 128.074219 C 168.144531 128.074219 168.050781 127.984375 168.046875 127.871094 C 168.039062 127.753906 168.132812 127.652344 168.25 127.648438 L 172.117188 127.46875 C 172.234375 127.464844 172.332031 127.554688 172.335938 127.671875 C 172.34375 127.789062 172.253906 127.890625 172.136719 127.894531 L 168.269531 128.070312 C 168.265625 128.074219 168.261719 128.074219 168.257812 128.074219 " fill-opacity="1" fill-rule="nonzero"/><path fill="#4ada85" d="M 41.261719 29.746094 L 24.160156 29.492188 L 17.617188 13.636719 L 41.261719 29.746094 " fill-opacity="1" fill-rule="nonzero"/><path fill="#ffffff" d="M 32.519531 42.875 C 32.476562 42.875 32.4375 42.863281 32.402344 42.839844 L 23.886719 37.039062 C 23.789062 36.972656 23.765625 36.839844 23.832031 36.742188 C 23.898438 36.644531 24.03125 36.621094 24.128906 36.6875 L 32.464844 42.367188 L 36.277344 36.734375 C 36.339844 36.636719 36.472656 36.609375 36.570312 36.675781 C 36.667969 36.742188 36.695312 36.875 36.628906 36.972656 L 32.699219 42.78125 C 32.664062 42.828125 32.617188 42.863281 32.5625 42.871094 C 32.546875 42.875 32.535156 42.875 32.519531 42.875 " fill-opacity="1" fill-rule="nonzero"/><path fill="#000000" d="M 24.007812 37.074219 C 23.96875 37.074219 23.925781 37.0625 23.886719 37.039062 L 8.757812 26.730469 C 8.660156 26.660156 8.632812 26.53125 8.699219 26.433594 L 17.441406 13.515625 C 17.472656 13.46875 17.519531 13.4375 17.574219 13.425781 C 17.632812 13.417969 17.6875 13.425781 17.734375 13.460938 L 41.382812 29.570312 C 41.476562 29.636719 41.503906 29.765625 41.4375 29.863281 L 36.628906 36.972656 C 36.5625 37.070312 36.429688 37.09375 36.332031 37.027344 C 36.234375 36.960938 36.210938 36.828125 36.277344 36.734375 L 40.964844 29.800781 L 17.671875 13.933594 L 9.171875 26.496094 L 24.128906 36.6875 C 24.226562 36.753906 24.25 36.886719 24.183594 36.984375 C 24.144531 37.042969 24.074219 37.074219 24.007812 37.074219 " fill-opacity="1" fill-rule="nonzero"/><path fill="#000000" d="M 41.261719 29.960938 C 41.175781 29.960938 41.097656 29.910156 41.0625 29.828125 L 34.574219 14.101562 L 17.613281 13.851562 C 17.496094 13.847656 17.402344 13.75 17.402344 13.632812 C 17.40625 13.515625 17.5 13.421875 17.617188 13.421875 L 34.71875 13.675781 C 34.804688 13.679688 34.882812 13.730469 34.914062 13.808594 L 41.457031 29.664062 C 41.503906 29.773438 41.449219 29.898438 41.34375 29.941406 C 41.316406 29.953125 41.289062 29.960938 41.261719 29.960938 " fill-opacity="1" fill-rule="nonzero"/><path fill="#000000" d="M 48.738281 127.933594 C 44.503906 127.933594 40.351562 126.746094 36.6875 124.433594 C 31.554688 121.195312 27.996094 116.136719 26.667969 110.199219 C 23.929688 97.929688 31.675781 85.664062 43.9375 82.851562 C 47.09375 82.128906 50.292969 82.078125 53.4375 82.703125 C 53.554688 82.726562 53.628906 82.835938 53.605469 82.953125 C 53.582031 83.070312 53.472656 83.144531 53.355469 83.121094 C 50.269531 82.507812 47.132812 82.558594 44.03125 83.269531 C 32 86.027344 24.398438 98.066406 27.085938 110.105469 C 28.386719 115.933594 31.878906 120.894531 36.914062 124.074219 C 41.960938 127.253906 47.949219 128.273438 53.78125 126.933594 C 65.8125 124.175781 73.414062 112.136719 70.726562 100.097656 C 70.097656 97.285156 68.960938 94.667969 67.34375 92.316406 C 67.277344 92.21875 67.300781 92.085938 67.398438 92.019531 C 67.492188 91.953125 67.625 91.980469 67.691406 92.074219 C 69.34375 94.46875 70.503906 97.136719 71.144531 100.003906 C 73.882812 112.273438 66.136719 124.539062 53.875 127.347656 C 52.167969 127.742188 50.445312 127.933594 48.738281 127.933594 " fill-opacity="1" fill-rule="nonzero"/><path fill="#ffffff" d="M 67.519531 92.410156 C 67.449219 92.410156 67.382812 92.375 67.34375 92.316406 C 64.089844 87.589844 58.988281 84.238281 53.355469 83.121094 C 53.242188 83.097656 53.164062 82.984375 53.1875 82.871094 C 53.210938 82.753906 53.324219 82.679688 53.4375 82.703125 C 59.179688 83.84375 64.375 87.257812 67.691406 92.074219 C 67.761719 92.171875 67.734375 92.304688 67.636719 92.371094 C 67.601562 92.398438 67.558594 92.410156 67.519531 92.410156 " fill-opacity="1" fill-rule="nonzero"/><path fill="#fda4ff" d="M 59.3125 112.746094 L 55.878906 109.457031 C 55.417969 109.035156 54.402344 108.8125 53.175781 109.421875 C 52.019531 109.988281 50.167969 110.882812 46.871094 106.550781 C 43.574219 102.222656 44.78125 100.527344 45.765625 99.695312 C 45.914062 99.570312 47.03125 98.320312 46.441406 97.066406 L 44.683594 93.808594 C 43.203125 91.292969 41.046875 93.179688 40.921875 93.285156 C 37.394531 96.253906 38.304688 103.128906 43.109375 109.433594 C 47.914062 115.742188 54.289062 118.429688 58.070312 115.792969 C 58.203125 115.699219 60.480469 113.960938 59.3125 112.746094 " fill-opacity="1" fill-rule="nonzero"/></svg>