<svg xmlns="http://www.w3.org/2000/svg" xmlns:xlink="http://www.w3.org/1999/xlink" width="500" zoomAndPan="magnify" viewBox="0 0 375 374.999991" height="500" preserveAspectRatio="xMidYMid meet" version="1.0"><defs><clipPath id="e79812a88b"><path d="M 196 208 L 358 208 L 358 316.511719 L 196 316.511719 Z M 196 208 " clip-rule="nonzero"/></clipPath></defs><path fill="#00f1ff" d="M 155.414062 280.230469 C 151.117188 279.824219 146.898438 279.027344 142.75 277.839844 C 143.183594 282.988281 143.960938 288.078125 145.085938 293.121094 C 146.191406 298.167969 147.652344 303.113281 149.460938 307.953125 C 161.804688 308.863281 174.742188 307.039062 187.476562 302.992188 L 187.949219 302.867188 L 188.042969 302.867188 L 188.289062 302.800781 C 183.667969 295.507812 179.980469 287.773438 177.230469 279.589844 C 169.984375 280.71875 162.710938 280.929688 155.414062 280.230469 Z M 155.414062 280.230469 " fill-opacity="1" fill-rule="nonzero"/><path fill="#00f1ff" d="M 142.558594 274.949219 C 145.667969 275.652344 148.804688 276.160156 151.976562 276.472656 C 160.011719 277.234375 168.007812 276.929688 175.960938 275.5625 C 175.113281 272.671875 174.367188 269.699219 173.738281 266.683594 C 172.445312 260.476562 171.683594 254.207031 171.449219 247.875 C 165.449219 248.5625 159.445312 248.613281 153.433594 248.03125 C 150.421875 247.734375 147.441406 247.253906 144.492188 246.582031 C 142.652344 255.957031 142.007812 265.414062 142.558594 274.949219 Z M 142.558594 274.949219 " fill-opacity="1" fill-rule="nonzero"/><path fill="#00f1ff" d="M 327.476562 111.648438 C 326.273438 104.292969 321.496094 99.25 315.734375 99.25 L 247.964844 99.25 C 247.617188 96.4375 247.117188 93.648438 246.472656 90.890625 C 245.824219 88.128906 245.035156 85.410156 244.097656 82.734375 C 243.160156 80.058594 242.082031 77.441406 240.863281 74.882812 C 239.644531 72.324219 238.296875 69.835938 236.8125 67.417969 C 235.328125 65.003906 233.71875 62.675781 231.984375 60.429688 C 230.253906 58.1875 228.402344 56.042969 226.441406 53.996094 C 224.476562 51.953125 222.410156 50.015625 220.242188 48.195312 C 218.070312 46.371094 215.808594 44.667969 213.457031 43.082031 C 211.53125 41.773438 209.515625 40.613281 207.414062 39.605469 C 205.3125 38.59375 203.144531 37.75 200.917969 37.0625 C 198.691406 36.378906 196.421875 35.859375 194.117188 35.515625 C 191.8125 35.167969 189.492188 34.996094 187.160156 34.996094 C 184.832031 34.996094 182.511719 35.167969 180.207031 35.515625 C 177.902344 35.859375 175.632812 36.378906 173.40625 37.0625 C 171.175781 37.75 169.011719 38.59375 166.910156 39.605469 C 164.808594 40.613281 162.792969 41.773438 160.867188 43.082031 C 143.78125 54.617188 130.582031 73.550781 127.132812 99.242188 L 59.390625 99.242188 C 53.601562 99.242188 48.851562 104.28125 47.628906 111.640625 L 17.382812 295.664062 C 15.859375 304.972656 22.414062 314.332031 30.371094 314.332031 L 87.359375 314.332031 C 74.128906 309.765625 61.972656 303.207031 50.894531 294.652344 C 67.058594 303.523438 85.390625 309.066406 105.007812 311.335938 C 106.066406 311.460938 107.125 311.570312 108.179688 311.671875 L 108.328125 311.671875 C 105.734375 305.726562 103.675781 299.597656 102.15625 293.292969 C 87.96875 234.472656 123.824219 174.078125 183.410156 160.976562 C 189.039062 159.738281 194.730469 158.96875 200.484375 158.671875 L 203.566406 158.5625 L 204.214844 158.5625 L 205.9375 158.652344 L 215.820312 159.179688 L 218.644531 159.335938 L 223.339844 159.59375 C 222.992188 159.675781 222.648438 159.773438 222.292969 159.875 C 262.019531 166.257812 295.222656 195.335938 306.78125 235.441406 C 313.160156 229.714844 319.265625 223.789062 325.105469 217.664062 C 330.949219 211.539062 336.511719 205.253906 341.800781 198.8125 Z M 140.980469 99.25 C 146.132812 64.609375 158.496094 45.882812 186.429688 45.882812 C 214.359375 45.882812 226.703125 64.589844 231.863281 99.25 Z M 140.980469 99.25 " fill-opacity="1" fill-rule="nonzero"/><path fill="#00f1ff" d="M 209.089844 167.742188 C 206.683594 170.253906 204.394531 172.867188 202.21875 175.582031 C 200.046875 178.296875 197.996094 181.101562 196.074219 184 C 194.152344 186.898438 192.363281 189.878906 190.707031 192.9375 C 189.046875 195.992188 187.53125 199.121094 186.152344 202.3125 C 184.777344 205.507812 183.542969 208.757812 182.457031 212.0625 C 181.371094 215.363281 180.433594 218.710938 179.644531 222.097656 C 178.855469 225.484375 178.222656 228.902344 177.738281 232.347656 C 177.257812 235.792969 176.929688 239.25 176.753906 242.722656 C 181.480469 241.800781 186.128906 240.585938 190.703125 239.078125 L 191.1875 238.960938 L 191.285156 238.914062 C 197.179688 237.3125 202.816406 235.074219 208.203125 232.199219 C 213.585938 229.324219 218.585938 225.886719 223.195312 221.882812 C 228.273438 217.507812 232.792969 212.617188 236.757812 207.207031 C 240.71875 201.796875 244.019531 196.011719 246.660156 189.847656 C 244.203125 197.136719 240.832031 203.96875 236.539062 210.351562 C 232.25 216.730469 227.195312 222.433594 221.371094 227.453125 C 217.039062 231.195312 212.355469 234.425781 207.320312 237.148438 C 202.285156 239.871094 197.015625 242.019531 191.515625 243.601562 L 191.515625 243.535156 C 186.632812 245.078125 181.667969 246.273438 176.617188 247.117188 C 176.5 255.5625 177.296875 263.917969 179.007812 272.1875 C 179.1875 273.101562 179.390625 274.011719 179.589844 274.859375 C 183.859375 273.996094 188.058594 272.886719 192.199219 271.53125 L 192.691406 271.414062 L 192.773438 271.414062 C 198.570312 269.863281 204.125 267.6875 209.4375 264.890625 C 214.75 262.097656 219.6875 258.75 224.253906 254.847656 C 229.253906 250.605469 233.707031 245.851562 237.621094 240.585938 C 241.53125 235.320312 244.796875 229.683594 247.417969 223.671875 C 244.984375 230.785156 241.648438 237.449219 237.417969 243.660156 C 233.183594 249.875 228.203125 255.414062 222.472656 260.28125 C 218.1875 263.933594 213.558594 267.085938 208.589844 269.734375 C 203.621094 272.386719 198.429688 274.476562 193.011719 276.007812 L 193.011719 275.945312 C 188.945312 277.210938 184.820312 278.238281 180.640625 279.027344 C 182.820312 287.164062 185.898438 294.949219 189.875 302.382812 C 195.226562 300.824219 200.363281 298.726562 205.277344 296.089844 C 210.195312 293.457031 214.78125 290.34375 219.046875 286.746094 C 223.960938 282.628906 228.34375 278.007812 232.191406 272.878906 C 236.042969 267.75 239.257812 262.25 241.835938 256.378906 C 239.445312 263.324219 236.167969 269.820312 232.007812 275.871094 C 227.84375 281.921875 222.949219 287.308594 217.324219 292.027344 C 214.285156 294.546875 211.074219 296.824219 207.695312 298.863281 C 231.761719 289.652344 254.300781 277.589844 275.3125 262.671875 C 284.210938 256.417969 292.71875 249.800781 300.839844 242.824219 C 301.6875 242.105469 302.527344 241.375 303.375 240.628906 C 289.445312 198.179688 251.828125 169.007812 209.089844 167.742188 Z M 209.089844 167.742188 " fill-opacity="1" fill-rule="nonzero"/><path fill="#00f1ff" d="M 150.820312 311.425781 C 151.039062 311.972656 151.273438 312.511719 151.503906 313.046875 C 154.238281 312.703125 157.0625 312.300781 159.871094 311.828125 C 156.957031 311.867188 154.046875 311.746094 151.148438 311.460938 Z M 150.820312 311.425781 " fill-opacity="1" fill-rule="nonzero"/><path fill="#00f1ff" d="M 171.367188 243.628906 C 171.382812 237.320312 171.902344 231.054688 172.929688 224.832031 C 173.957031 218.609375 175.480469 212.511719 177.492188 206.535156 C 179.507812 200.558594 181.988281 194.785156 184.9375 189.207031 C 187.886719 183.632812 191.265625 178.332031 195.070312 173.304688 C 169.636719 188.535156 151.730469 214.28125 145.15625 243.5 C 146.742188 243.765625 148.347656 243.972656 149.988281 244.136719 C 157.136719 244.816406 164.261719 244.644531 171.367188 243.628906 Z M 171.367188 243.628906 " fill-opacity="1" fill-rule="nonzero"/><path fill="#00f1ff" d="M 114.179688 294.816406 C 122.539062 301.617188 133.324219 306.148438 146.304688 307.652344 C 143.480469 301.210938 141.304688 294.5625 139.777344 287.695312 C 138.925781 283.898438 138.28125 280.066406 137.835938 276.199219 C 134.078125 274.792969 130.519531 272.988281 127.167969 270.785156 C 123.8125 268.582031 120.742188 266.035156 117.953125 263.144531 C 123.804688 267.921875 130.339844 271.410156 137.5625 273.609375 C 136.671875 264.007812 137.03125 254.449219 138.640625 244.941406 C 134.230469 243.535156 130.0625 241.609375 126.136719 239.15625 C 122.210938 236.703125 118.652344 233.800781 115.457031 230.453125 C 118.910156 233.296875 122.636719 235.722656 126.636719 237.722656 C 130.636719 239.722656 134.8125 241.25 139.160156 242.304688 C 139.867188 238.621094 140.761719 234.980469 141.835938 231.386719 C 142.90625 227.789062 144.15625 224.257812 145.582031 220.785156 C 147.007812 217.316406 148.605469 213.921875 150.371094 210.613281 C 152.132812 207.300781 154.058594 204.085938 156.144531 200.964844 C 158.230469 197.847656 160.46875 194.839844 162.851562 191.941406 C 165.238281 189.046875 167.765625 186.277344 170.425781 183.632812 C 173.089844 180.988281 175.875 178.484375 178.789062 176.117188 C 181.703125 173.753906 184.726562 171.539062 187.859375 169.472656 C 186.992188 169.648438 186.128906 169.820312 185.261719 170.011719 C 127.828125 182.601562 93.550781 242.351562 107.515625 300.921875 C 108.585938 305.421875 109.929688 309.839844 111.554688 314.167969 C 123.101562 315.042969 134.632812 314.886719 146.152344 313.703125 L 148.53125 313.457031 L 149.058594 313.394531 C 148.667969 312.636719 148.285156 311.871094 147.910156 311.105469 C 133.851562 309.066406 122.441406 303.304688 114.179688 294.816406 Z M 114.179688 294.816406 " fill-opacity="1" fill-rule="nonzero"/><g clip-path="url(#e79812a88b)"><path fill="#00f1ff" d="M 357.726562 297.832031 L 343.085938 208.664062 C 332.339844 224.171875 320.160156 238.453125 306.546875 251.511719 C 305.574219 252.449219 304.597656 253.359375 303.621094 254.246094 C 295.066406 262.253906 286.054688 269.707031 276.582031 276.601562 C 250.726562 295.445312 223.550781 308.664062 196.847656 316.449219 L 344.742188 316.449219 C 352.703125 316.503906 359.265625 307.140625 357.726562 297.832031 Z M 306.300781 300.804688 C 307.851562 293.9375 308.746094 286.988281 308.988281 279.949219 C 309.230469 272.914062 308.816406 265.917969 307.742188 258.960938 C 307.511719 257.464844 307.265625 255.96875 306.984375 254.492188 C 307.949219 253.582031 308.925781 252.671875 309.882812 251.703125 C 309.882812 251.757812 309.882812 251.804688 309.882812 251.851562 C 311.132812 260.039062 311.453125 268.265625 310.847656 276.53125 C 310.246094 284.792969 308.726562 292.882812 306.300781 300.804688 Z M 306.300781 300.804688 " fill-opacity="1" fill-rule="nonzero"/></g></svg>