<svg xmlns="http://www.w3.org/2000/svg" xmlns:xlink="http://www.w3.org/1999/xlink" width="250" zoomAndPan="magnify" viewBox="0 0 187.5 187.499992" height="250" preserveAspectRatio="xMidYMid meet" version="1.0"><defs><clipPath id="e4c58c0bff"><path d="M 0 0 L 187 0 L 187 187 L 0 187 Z M 0 0 " clip-rule="nonzero"/></clipPath><clipPath id="7d25829c9c"><path d="M 3.675781 3.675781 L 183.675781 3.675781 L 183.675781 183.675781 L 3.675781 183.675781 Z M 3.675781 3.675781 " clip-rule="nonzero"/></clipPath><clipPath id="05f967441d"><path d="M 20 19 L 165 19 L 165 183.675781 L 20 183.675781 Z M 20 19 " clip-rule="nonzero"/></clipPath></defs><g clip-path="url(#e4c58c0bff)"><path fill="#ffffff" d="M 0 0 L 187.5 0 L 187.5 195 L 0 195 Z M 0 0 " fill-opacity="1" fill-rule="nonzero"/><path fill="#ffffff" d="M 0 0 L 187.5 0 L 187.5 187.5 L 0 187.5 Z M 0 0 " fill-opacity="1" fill-rule="nonzero"/><path fill="#ffffff" d="M 0 0 L 187.5 0 L 187.5 187.5 L 0 187.5 Z M 0 0 " fill-opacity="1" fill-rule="nonzero"/></g><g clip-path="url(#7d25829c9c)"><path fill="#f1e2ff" d="M 183.675781 93.675781 C 183.675781 95.148438 183.640625 96.621094 183.570312 98.09375 C 183.496094 99.5625 183.386719 101.03125 183.242188 102.5 C 183.097656 103.964844 182.917969 105.425781 182.703125 106.882812 C 182.488281 108.339844 182.234375 109.789062 181.949219 111.234375 C 181.660156 112.679688 181.335938 114.117188 180.980469 115.546875 C 180.621094 116.972656 180.230469 118.394531 179.800781 119.800781 C 179.375 121.210938 178.910156 122.609375 178.414062 123.996094 C 177.917969 125.382812 177.390625 126.757812 176.824219 128.117188 C 176.261719 129.480469 175.664062 130.824219 175.035156 132.15625 C 174.40625 133.488281 173.742188 134.804688 173.050781 136.101562 C 172.355469 137.402344 171.628906 138.683594 170.871094 139.945312 C 170.113281 141.210938 169.328125 142.453125 168.507812 143.679688 C 167.691406 144.902344 166.84375 146.105469 165.964844 147.289062 C 165.089844 148.472656 164.183594 149.632812 163.246094 150.773438 C 162.3125 151.910156 161.351562 153.027344 160.363281 154.117188 C 159.375 155.207031 158.359375 156.273438 157.316406 157.316406 C 156.273438 158.359375 155.207031 159.375 154.117188 160.363281 C 153.027344 161.351562 151.910156 162.3125 150.773438 163.246094 C 149.632812 164.183594 148.472656 165.089844 147.289062 165.964844 C 146.105469 166.84375 144.902344 167.691406 143.679688 168.507812 C 142.453125 169.328125 141.210938 170.113281 139.945312 170.871094 C 138.683594 171.628906 137.402344 172.355469 136.101562 173.050781 C 134.804688 173.742188 133.488281 174.40625 132.15625 175.035156 C 130.824219 175.664062 129.480469 176.261719 128.117188 176.824219 C 126.757812 177.390625 125.382812 177.917969 123.996094 178.414062 C 122.609375 178.910156 121.210938 179.375 119.800781 179.800781 C 118.394531 180.230469 116.972656 180.621094 115.546875 180.980469 C 114.117188 181.335938 112.679688 181.660156 111.234375 181.949219 C 109.789062 182.234375 108.339844 182.488281 106.882812 182.703125 C 105.425781 182.917969 103.964844 183.097656 102.5 183.242188 C 101.03125 183.386719 99.5625 183.496094 98.09375 183.570312 C 96.621094 183.640625 95.148438 183.675781 93.675781 183.675781 C 92.203125 183.675781 90.730469 183.640625 89.261719 183.570312 C 87.789062 183.496094 86.320312 183.386719 84.855469 183.242188 C 83.390625 183.097656 81.929688 182.917969 80.472656 182.703125 C 79.015625 182.488281 77.5625 182.234375 76.117188 181.949219 C 74.675781 181.660156 73.238281 181.335938 71.808594 180.980469 C 70.378906 180.621094 68.960938 180.230469 67.550781 179.800781 C 66.140625 179.375 64.742188 178.910156 63.355469 178.414062 C 61.96875 177.917969 60.597656 177.390625 59.234375 176.824219 C 57.875 176.261719 56.527344 175.664062 55.195312 175.035156 C 53.867188 174.40625 52.550781 173.742188 51.25 173.050781 C 49.953125 172.355469 48.671875 171.628906 47.40625 170.871094 C 46.144531 170.113281 44.898438 169.328125 43.675781 168.507812 C 42.449219 167.691406 41.246094 166.84375 40.0625 165.964844 C 38.878906 165.089844 37.71875 164.183594 36.582031 163.246094 C 35.441406 162.3125 34.328125 161.351562 33.238281 160.363281 C 32.144531 159.375 31.078125 158.359375 30.039062 157.316406 C 28.996094 156.273438 27.980469 155.207031 26.992188 154.117188 C 26.003906 153.027344 25.039062 151.910156 24.105469 150.773438 C 23.171875 149.632812 22.265625 148.472656 21.386719 147.289062 C 20.511719 146.105469 19.664062 144.902344 18.84375 143.679688 C 18.027344 142.453125 17.238281 141.210938 16.480469 139.945312 C 15.722656 138.683594 15 137.402344 14.304688 136.101562 C 13.609375 134.804688 12.949219 133.488281 12.316406 132.15625 C 11.6875 130.824219 11.089844 129.480469 10.527344 128.117188 C 9.964844 126.757812 9.433594 125.382812 8.9375 123.996094 C 8.441406 122.609375 7.980469 121.210938 7.550781 119.800781 C 7.125 118.394531 6.730469 116.972656 6.375 115.546875 C 6.015625 114.117188 5.695312 112.679688 5.40625 111.234375 C 5.117188 109.789062 4.867188 108.339844 4.652344 106.882812 C 4.433594 105.425781 4.253906 103.964844 4.109375 102.5 C 3.964844 101.03125 3.859375 99.5625 3.785156 98.09375 C 3.714844 96.621094 3.675781 95.148438 3.675781 93.675781 C 3.675781 92.203125 3.714844 90.730469 3.785156 89.261719 C 3.859375 87.789062 3.964844 86.320312 4.109375 84.855469 C 4.253906 83.390625 4.433594 81.929688 4.652344 80.472656 C 4.867188 79.015625 5.117188 77.5625 5.40625 76.117188 C 5.695312 74.675781 6.015625 73.238281 6.375 71.808594 C 6.730469 70.378906 7.125 68.960938 7.550781 67.550781 C 7.980469 66.140625 8.441406 64.742188 8.9375 63.355469 C 9.433594 61.96875 9.964844 60.597656 10.527344 59.234375 C 11.089844 57.875 11.6875 56.527344 12.316406 55.195312 C 12.949219 53.867188 13.609375 52.550781 14.304688 51.25 C 15 49.953125 15.722656 48.671875 16.480469 47.40625 C 17.238281 46.144531 18.027344 44.898438 18.84375 43.675781 C 19.664062 42.449219 20.511719 41.246094 21.386719 40.0625 C 22.265625 38.878906 23.171875 37.71875 24.105469 36.582031 C 25.039062 35.441406 26.003906 34.328125 26.992188 33.238281 C 27.980469 32.144531 28.996094 31.078125 30.039062 30.039062 C 31.078125 28.996094 32.144531 27.980469 33.238281 26.992188 C 34.328125 26.003906 35.441406 25.039062 36.582031 24.105469 C 37.71875 23.171875 38.878906 22.265625 40.0625 21.386719 C 41.246094 20.511719 42.449219 19.664062 43.675781 18.84375 C 44.898438 18.027344 46.144531 17.238281 47.40625 16.480469 C 48.671875 15.722656 49.953125 15 51.25 14.304688 C 52.550781 13.609375 53.867188 12.949219 55.195312 12.316406 C 56.527344 11.6875 57.875 11.089844 59.234375 10.527344 C 60.597656 9.964844 61.96875 9.433594 63.355469 8.9375 C 64.742188 8.441406 66.140625 7.980469 67.550781 7.550781 C 68.960938 7.125 70.378906 6.730469 71.808594 6.375 C 73.238281 6.015625 74.675781 5.695312 76.117188 5.40625 C 77.5625 5.117188 79.015625 4.867188 80.472656 4.652344 C 81.929688 4.433594 83.390625 4.253906 84.855469 4.109375 C 86.320312 3.964844 87.789062 3.859375 89.261719 3.785156 C 90.730469 3.714844 92.203125 3.675781 93.675781 3.675781 C 95.148438 3.675781 96.621094 3.714844 98.09375 3.785156 C 99.5625 3.859375 101.03125 3.964844 102.5 4.109375 C 103.964844 4.253906 105.425781 4.433594 106.882812 4.652344 C 108.339844 4.867188 109.789062 5.117188 111.234375 5.40625 C 112.679688 5.695312 114.117188 6.015625 115.546875 6.375 C 116.972656 6.730469 118.394531 7.125 119.800781 7.550781 C 121.210938 7.980469 122.609375 8.441406 123.996094 8.9375 C 125.382812 9.433594 126.757812 9.964844 128.117188 10.527344 C 129.480469 11.089844 130.824219 11.6875 132.15625 12.316406 C 133.488281 12.949219 134.804688 13.609375 136.101562 14.304688 C 137.402344 15 138.683594 15.722656 139.945312 16.480469 C 141.210938 17.238281 142.453125 18.027344 143.679688 18.84375 C 144.902344 19.664062 146.105469 20.511719 147.289062 21.386719 C 148.472656 22.265625 149.632812 23.171875 150.773438 24.105469 C 151.910156 25.039062 153.027344 26.003906 154.117188 26.992188 C 155.207031 27.980469 156.273438 28.996094 157.316406 30.039062 C 158.359375 31.078125 159.375 32.144531 160.363281 33.238281 C 161.351562 34.328125 162.3125 35.441406 163.246094 36.582031 C 164.183594 37.71875 165.089844 38.878906 165.964844 40.0625 C 166.84375 41.246094 167.691406 42.449219 168.507812 43.675781 C 169.328125 44.898438 170.113281 46.144531 170.871094 47.40625 C 171.628906 48.671875 172.355469 49.953125 173.050781 51.25 C 173.742188 52.550781 174.40625 53.867188 175.035156 55.195312 C 175.664062 56.527344 176.261719 57.875 176.824219 59.234375 C 177.390625 60.597656 177.917969 61.96875 178.414062 63.355469 C 178.910156 64.742188 179.375 66.140625 179.800781 67.550781 C 180.230469 68.960938 180.621094 70.378906 180.980469 71.808594 C 181.335938 73.238281 181.660156 74.675781 181.949219 76.117188 C 182.234375 77.5625 182.488281 79.015625 182.703125 80.472656 C 182.917969 81.929688 183.097656 83.390625 183.242188 84.855469 C 183.386719 86.320312 183.496094 87.789062 183.570312 89.261719 C 183.640625 90.730469 183.675781 92.203125 183.675781 93.675781 Z M 183.675781 93.675781 " fill-opacity="1" fill-rule="nonzero"/></g><g clip-path="url(#05f967441d)"><path fill="#ddb9ff" d="M 113.71875 117.195312 L 113.71875 112.636719 C 132.015625 111.796875 144.078125 103.875 142.035156 102.257812 C 138.316406 99.316406 132.4375 95.597656 130.816406 77.71875 C 129.195312 59.835938 127.21875 41.898438 113.476562 28.15625 C 112.515625 27.195312 110.597656 25.875 108.257812 25.636719 C 107.835938 24.316406 106.636719 22.757812 104.898438 22.035156 C 90.496094 15.738281 70.457031 21.796875 62.535156 38.71875 C 52.9375 59.117188 55.875 83.175781 52.578125 89.835938 C 47.597656 101.476562 39.257812 101.476562 40.097656 103.578125 C 46.757812 108.136719 60.078125 112.757812 70.875 113.597656 C 70.875 113.597656 70.875 116.957031 70.035156 118.996094 C 69.195312 121.097656 70.035156 118.996094 68.355469 120.675781 C 66.675781 122.355469 64.636719 124.035156 60.4375 130.695312 C 60.4375 130.695312 47.535156 136.097656 29.238281 142.757812 C 26.058594 143.898438 23.355469 145.335938 20.957031 146.898438 C 37.335938 169.097656 63.796875 183.675781 93.675781 183.675781 C 122.597656 183.675781 148.335938 169.996094 164.777344 148.816406 C 152.71875 142.457031 132.015625 136.21875 122.058594 131.355469 C 121.21875 130.097656 118.757812 121.757812 113.71875 117.195312 Z M 113.71875 117.195312 " fill-opacity="1" fill-rule="nonzero"/></g></svg>