<svg xmlns="http://www.w3.org/2000/svg" xmlns:xlink="http://www.w3.org/1999/xlink" width="500" zoomAndPan="magnify" viewBox="0 0 375 187.499995" height="250" preserveAspectRatio="xMidYMid meet" version="1.0"><defs><g/><clipPath id="122c0329c8"><path d="M 3 16 L 135 16 L 135 182.851562 L 3 182.851562 Z M 3 16 " clip-rule="nonzero"/></clipPath></defs><g clip-path="url(#122c0329c8)"><path fill="#ffffff" d="M 91.019531 77.3125 L 99.414062 77.3125 L 99.414062 88.542969 L 91.019531 88.542969 Z M 51.777344 79.472656 L 53.800781 90.515625 L 61.054688 89.1875 L 59.03125 78.140625 Z M 132.578125 173.601562 C 130.554688 177.046875 126.457031 178.5625 122.753906 179.40625 C 117.53125 180.597656 109.984375 180.117188 104.648438 180.066406 C 99.820312 180.019531 95 179.726562 90.1875 179.390625 C 86.886719 179.15625 83.167969 179.425781 79.855469 179.480469 C 76.375 179.539062 72.882812 180.082031 69.429688 180.503906 C 64.421875 181.105469 59.414062 181.710938 54.386719 182.136719 C 49.277344 182.566406 44.128906 182.855469 39 182.625 C 34.960938 182.445312 30.71875 182.035156 26.984375 180.390625 C 26.019531 179.96875 24.867188 179.410156 24.0625 178.632812 C 23.882812 178.554688 23.726562 178.402344 23.609375 178.152344 C 23.59375 178.121094 23.582031 178.097656 23.570312 178.070312 C 22.96875 177.199219 22.542969 176.214844 21.894531 175.359375 C 21.632812 175.011719 21.363281 174.683594 21.082031 174.378906 C 21.050781 174.34375 21.019531 174.308594 20.984375 174.273438 C 18.453125 171.542969 15.1875 170.285156 11.597656 171.109375 C 11.574219 171.113281 11.554688 171.117188 11.535156 171.121094 C 11.394531 171.152344 11.257812 171.1875 11.121094 171.226562 C 10.953125 171.273438 10.785156 171.328125 10.617188 171.382812 C 10.554688 171.40625 10.488281 171.425781 10.425781 171.449219 C 10.222656 171.519531 10.015625 171.597656 9.8125 171.683594 C 9.367188 171.867188 8.855469 171.550781 8.617188 171.195312 C 6.972656 168.757812 5.949219 165.761719 5.160156 162.960938 C 0.539062 146.570312 5.65625 129.042969 13.738281 114.628906 C 15.632812 111.246094 17.167969 108.046875 18.011719 104.191406 C 20.0625 94.804688 18.707031 84.976562 16.007812 75.875 C 15.816406 75.230469 16.347656 74.511719 17.027344 74.535156 C 21.40625 74.664062 25.835938 73.378906 29.921875 71.941406 C 29.933594 71.933594 29.953125 71.925781 29.964844 71.921875 C 32.597656 70.980469 35.238281 70.089844 37.894531 69.390625 C 36.914062 63.035156 31.683594 26.726562 39.335938 22.652344 C 47.726562 18.191406 67 12.121094 73.425781 19.972656 C 79.46875 27.359375 85.351562 33.015625 85.285156 73.722656 C 87.164062 73.765625 89.011719 73.789062 90.78125 73.808594 C 95.433594 73.851562 100.429688 73.9375 104.941406 72.648438 C 110.542969 71.050781 119.105469 70.621094 124.71875 72.515625 C 125.144531 72.660156 125.523438 73.054688 125.496094 73.535156 C 125.210938 78.492188 125 83.449219 124.835938 88.410156 C 124.578125 96.136719 123.871094 103.355469 124.140625 111.082031 C 124.238281 113.933594 124.34375 116.832031 124.855469 119.640625 C 125.375 122.457031 126.710938 125.75 127.457031 128.507812 C 129.675781 136.691406 131.960938 144.882812 133.359375 153.253906 C 134.414062 159.570312 135.816406 167.664062 132.578125 173.601562 Z M 45.117188 68.078125 C 48.21875 67.804688 51.367188 67.945312 54.578125 68.722656 C 57.375 69.394531 59.054688 70.703125 61.878906 71.308594 C 64.699219 71.910156 67.546875 72.371094 70.40625 72.746094 C 71.894531 72.941406 73.445312 73.097656 75.027344 73.226562 C 75.003906 64.507812 74.792969 51.527344 73.773438 45.320312 C 72.171875 35.503906 69.3125 23.265625 63.246094 24.117188 C 57.179688 24.96875 44.148438 25.148438 43.789062 30.503906 C 43.542969 34.242188 44.515625 55.546875 45.117188 68.078125 Z M 22.863281 173.148438 C 22.039062 166.699219 21.40625 160.222656 21.089844 153.730469 C 20.316406 137.625 21.597656 121.535156 28.152344 106.652344 C 30.917969 100.21875 30.832031 92.566406 30.503906 85.699219 C 30.320312 81.910156 29.992188 78.097656 29.402344 74.347656 C 25.894531 75.53125 22.140625 76.519531 18.421875 76.640625 C 21.050781 86.035156 22.164062 96.128906 19.824219 105.695312 C 18.894531 109.484375 17.253906 112.636719 15.390625 115.992188 C 10.386719 124.996094 5.992188 135.339844 5.101562 145.664062 C 4.566406 151.898438 5.699219 157.84375 7.621094 163.816406 C 8.226562 165.695312 8.941406 167.644531 9.960938 169.371094 C 14.121094 167.9375 18.238281 168.917969 21.433594 171.757812 C 21.9375 172.179688 22.414062 172.648438 22.863281 173.148438 Z M 132.269531 162.164062 C 132.054688 157.507812 131.238281 152.894531 130.277344 148.34375 C 128.636719 140.5625 126.390625 132.933594 124.394531 125.242188 C 122.925781 119.574219 122.542969 113.949219 122.453125 108.105469 C 122.273438 96.839844 122.6875 85.542969 123.328125 74.296875 C 121.214844 73.6875 116.484375 73.425781 114.308594 73.371094 C 111.6875 73.304688 109.082031 73.597656 106.566406 74.34375 C 105.554688 74.644531 104.570312 74.941406 103.527344 75.128906 C 98.476562 76.042969 93.222656 76.007812 88.109375 75.863281 C 81.984375 75.691406 75.867188 75.179688 69.796875 74.328125 C 66.917969 73.925781 64.042969 73.441406 61.207031 72.789062 C 58.351562 72.128906 55.605469 71.03125 52.730469 70.480469 C 45.332031 69.066406 38.3125 71.191406 31.417969 73.632812 C 32.078125 77.765625 32.453125 81.960938 32.636719 86.128906 C 32.953125 93.289062 32.359375 100.65625 29.488281 107.34375 C 28.257812 110.132812 27.660156 113.351562 26.765625 116.269531 C 20.78125 135.722656 22.714844 157.1875 25.492188 177.015625 C 26.195312 177.785156 27.425781 178.324219 28.441406 178.71875 C 32.378906 180.246094 36.789062 180.496094 40.964844 180.570312 C 46.152344 180.664062 51.347656 180.3125 56.507812 179.828125 C 61.292969 179.382812 66.058594 178.789062 70.832031 178.21875 C 73.992188 177.839844 77.199219 177.351562 80.386719 177.363281 C 88.691406 177.398438 96.96875 178.589844 105.289062 178.601562 C 109.992188 178.609375 117.246094 178.445312 121.859375 177.4375 C 125.097656 176.734375 128.964844 175.578125 130.75 172.53125 C 132.433594 169.445312 132.433594 165.585938 132.269531 162.164062 Z M 132.269531 162.164062 " fill-opacity="1" fill-rule="nonzero"/></g><path fill="#0292b7" d="M 95.160156 81.960938 C 94.691406 81.167969 94.222656 80.375 93.753906 79.585938 C 94.828125 79.582031 95.898438 79.582031 96.972656 79.578125 C 96.363281 80.371094 95.761719 81.167969 95.160156 81.960938 Z M 56.199219 84.457031 C 55.695312 83.890625 55.191406 83.328125 54.6875 82.757812 C 54.796875 84.125 54.910156 85.492188 55.023438 86.855469 C 55.414062 86.058594 55.808594 85.257812 56.199219 84.457031 Z M 93.261719 80.527344 C 93.183594 81.222656 93.105469 81.910156 93.027344 82.605469 C 92.953125 83.296875 92.59375 84.476562 92.664062 85.25 C 93.300781 84.414062 93.933594 83.578125 94.570312 82.742188 C 94.132812 82 93.695312 81.261719 93.261719 80.527344 Z M 57.746094 81.300781 C 56.816406 81.488281 55.882812 81.671875 54.949219 81.859375 C 55.492188 82.46875 56.035156 83.074219 56.578125 83.6875 C 56.96875 82.890625 57.355469 82.09375 57.746094 81.300781 Z M 93.15625 86.078125 C 93.988281 86.640625 95.710938 86.710938 96.886719 86.660156 C 96.277344 85.628906 95.667969 84.597656 95.058594 83.570312 C 94.425781 84.40625 93.789062 85.242188 93.15625 86.078125 Z M 55.570312 87.558594 C 56.679688 87.757812 57.785156 87.730469 58.886719 87.472656 C 58.179688 86.683594 57.476562 85.894531 56.773438 85.105469 C 56.371094 85.921875 55.972656 86.742188 55.570312 87.558594 Z M 59.03125 86.4375 C 58.777344 84.96875 58.527344 83.503906 58.273438 82.035156 C 57.902344 82.800781 57.527344 83.5625 57.152344 84.328125 C 57.777344 85.035156 58.40625 85.734375 59.03125 86.4375 Z M 100.195312 88.886719 C 98.230469 91.566406 89.660156 89.066406 89.660156 89.066406 C 89.660156 89.066406 93.945312 30.507812 87.523438 20.15625 C 81.097656 9.800781 62.535156 16.941406 57.179688 20.15625 C 51.824219 23.367188 62.265625 90.585938 62.265625 90.585938 C 58.785156 92.460938 52.09375 90.585938 52.09375 90.585938 C 52.09375 90.585938 48.078125 22.476562 49.863281 15.15625 C 51.648438 7.839844 76.457031 4.085938 90.023438 11.050781 C 103.585938 18.015625 100.195312 88.886719 100.195312 88.886719 Z M 54.082031 81.21875 C 53.925781 81.25 53.777344 81.441406 53.789062 81.601562 C 53.960938 83.65625 54.132812 85.71875 54.300781 87.773438 C 54.316406 87.949219 54.414062 88.109375 54.59375 88.15625 C 54.6875 88.183594 54.78125 88.203125 54.871094 88.226562 C 54.910156 88.242188 54.949219 88.25 54.992188 88.253906 C 56.582031 88.621094 58.1875 88.558594 59.757812 88.066406 C 59.976562 87.996094 60.074219 87.792969 60.035156 87.574219 C 59.636719 85.261719 59.238281 82.953125 58.84375 80.640625 C 58.808594 80.4375 58.664062 80.351562 58.507812 80.351562 C 58.425781 80.332031 58.34375 80.339844 58.269531 80.378906 C 56.875 80.660156 55.480469 80.9375 54.082031 81.21875 Z M 98.265625 78.882812 C 98.238281 78.839844 98.203125 78.800781 98.164062 78.773438 C 98.09375 78.714844 97.996094 78.671875 97.878906 78.671875 C 96.242188 78.675781 94.605469 78.679688 92.964844 78.679688 C 92.699219 78.679688 92.542969 78.886719 92.515625 79.128906 C 92.253906 81.441406 91.992188 83.757812 91.734375 86.074219 C 91.71875 86.21875 91.832031 86.398438 91.957031 86.464844 C 93.757812 87.367188 95.675781 87.726562 97.6875 87.503906 C 97.933594 87.476562 98.132812 87.320312 98.136719 87.054688 C 98.203125 84.453125 98.261719 81.847656 98.324219 79.25 C 98.382812 79.113281 98.347656 78.980469 98.265625 78.882812 Z M 97.269531 85.539062 C 97.308594 83.859375 97.351562 82.179688 97.390625 80.503906 C 96.808594 81.269531 96.230469 82.03125 95.648438 82.796875 C 96.191406 83.707031 96.730469 84.625 97.269531 85.539062 Z M 97.269531 85.539062 " fill-opacity="1" fill-rule="nonzero"/><g fill="#38bdf8" fill-opacity="1"><g transform="translate(38.911633, 156.24564)"><g><path d="M 18.484375 0 L 1.015625 -47.734375 L 10.359375 -47.734375 L 23.859375 -8.9375 L 37.4375 -47.734375 L 46.640625 -47.734375 L 29.1875 0 Z M 18.484375 0 "/></g></g></g><g fill="#38bdf8" fill-opacity="1"><g transform="translate(97.139168, 156.24564)"><g/></g></g><g fill="#38bdf8" fill-opacity="1"><g transform="translate(123.937516, 156.24564)"><g/></g></g><g fill="#38bdf8" fill-opacity="1"><g transform="translate(150.726733, 156.24564)"><g><path d="M 4.640625 0 L 4.640625 -47.734375 L 15 -47.734375 L 30.203125 -17.453125 L 45.203125 -47.734375 L 55.578125 -47.734375 L 55.578125 0 L 46.84375 0 L 46.84375 -32.9375 L 33.546875 -6.8125 L 26.65625 -6.8125 L 13.359375 -32.9375 L 13.359375 0 Z M 4.640625 0 "/></g></g></g><g fill="#38bdf8" fill-opacity="1"><g transform="translate(221.504631, 156.24564)"><g><path d="M 1.5625 0 L 19.03125 -47.734375 L 28.84375 -47.734375 L 46.296875 0 L 37.03125 0 L 33.203125 -11.046875 L 14.59375 -11.046875 L 10.703125 0 Z M 16.984375 -17.859375 L 30.828125 -17.859375 L 23.859375 -37.703125 Z M 16.984375 -17.859375 "/></g></g></g><g fill="#38bdf8" fill-opacity="1"><g transform="translate(279.872794, 156.24564)"><g><path d="M 4.640625 0 L 4.640625 -47.734375 L 22.15625 -47.734375 C 25.976562 -47.734375 29.128906 -47.082031 31.609375 -45.78125 C 34.085938 -44.488281 35.9375 -42.738281 37.15625 -40.53125 C 38.382812 -38.332031 39 -35.890625 39 -33.203125 C 39 -30.296875 38.238281 -27.632812 36.71875 -25.21875 C 35.195312 -22.8125 32.820312 -21.066406 29.59375 -19.984375 L 39.484375 0 L 29.453125 0 L 20.59375 -18.8125 L 13.359375 -18.8125 L 13.359375 0 Z M 13.359375 -25.234375 L 21.609375 -25.234375 C 24.523438 -25.234375 26.664062 -25.9375 28.03125 -27.34375 C 29.394531 -28.75 30.078125 -30.613281 30.078125 -32.9375 C 30.078125 -35.207031 29.40625 -37.023438 28.0625 -38.390625 C 26.71875 -39.753906 24.546875 -40.4375 21.546875 -40.4375 L 13.359375 -40.4375 Z M 13.359375 -25.234375 "/></g></g></g><g fill="#38bdf8" fill-opacity="1"><g transform="translate(332.922502, 156.24564)"><g><path d="M 15.75 0 L 15.75 -40.703125 L 1.84375 -40.703125 L 1.84375 -47.734375 L 38.453125 -47.734375 L 38.453125 -40.703125 L 24.484375 -40.703125 L 24.484375 0 Z M 15.75 0 "/></g></g></g><g fill="#38bdf8" fill-opacity="1"><g transform="translate(76.2686, 156.444718)"><g><path d="M 3.296875 -7.828125 L 3.296875 0 L 1.53125 0 L 1.53125 -7.828125 Z M 1.40625 -10.640625 C 1.40625 -10.921875 1.507812 -11.15625 1.71875 -11.34375 C 1.9375 -11.53125 2.1875 -11.625 2.46875 -11.625 C 2.738281 -11.625 2.976562 -11.53125 3.1875 -11.34375 C 3.394531 -11.15625 3.5 -10.921875 3.5 -10.640625 C 3.5 -10.367188 3.394531 -10.140625 3.1875 -9.953125 C 2.976562 -9.765625 2.738281 -9.671875 2.46875 -9.671875 C 2.1875 -9.671875 1.9375 -9.765625 1.71875 -9.953125 C 1.507812 -10.140625 1.40625 -10.367188 1.40625 -10.640625 Z M 1.40625 -10.640625 "/></g></g></g><g fill="#38bdf8" fill-opacity="1"><g transform="translate(81.090767, 156.444718)"><g><path d="M 3.234375 -5.984375 C 3.429688 -6.410156 3.71875 -6.785156 4.09375 -7.109375 C 4.46875 -7.441406 4.863281 -7.695312 5.28125 -7.875 C 5.695312 -8.050781 6.0625 -8.144531 6.375 -8.15625 L 6.296875 -6.390625 C 5.734375 -6.421875 5.21875 -6.304688 4.75 -6.046875 C 4.289062 -5.796875 3.929688 -5.445312 3.671875 -5 C 3.421875 -4.550781 3.296875 -4.078125 3.296875 -3.578125 L 3.296875 0 L 1.53125 0 L 1.53125 -7.828125 L 3.109375 -7.828125 Z M 3.234375 -5.984375 "/></g></g></g><g fill="#38bdf8" fill-opacity="1"><g transform="translate(88.201097, 156.444718)"><g><path d="M 4.0625 -11.28125 L 4.0625 -7.8125 L 6.203125 -7.8125 L 6.203125 -6.421875 L 4.0625 -6.421875 L 4.0625 0 L 2.296875 0 L 2.296875 -6.421875 L 0.84375 -6.421875 L 0.84375 -7.8125 L 2.296875 -7.8125 L 2.296875 -11.28125 Z M 4.0625 -11.28125 "/></g></g></g><g fill="#38bdf8" fill-opacity="1"><g transform="translate(95.008862, 156.444718)"><g><path d="M 8.8125 -7.828125 L 8.8125 0 L 7.234375 0 L 7.109375 -1.5 C 6.847656 -0.96875 6.4375 -0.535156 5.875 -0.203125 C 5.320312 0.128906 4.707031 0.296875 4.03125 0.296875 C 3.3125 0.296875 2.722656 0.0820312 2.265625 -0.34375 C 1.804688 -0.78125 1.5625 -1.347656 1.53125 -2.046875 L 1.53125 -7.828125 L 3.296875 -7.828125 L 3.296875 -2.671875 C 3.316406 -2.222656 3.441406 -1.867188 3.671875 -1.609375 C 3.910156 -1.359375 4.265625 -1.226562 4.734375 -1.21875 C 5.160156 -1.21875 5.550781 -1.34375 5.90625 -1.59375 C 6.257812 -1.851562 6.539062 -2.207031 6.75 -2.65625 C 6.957031 -3.113281 7.0625 -3.625 7.0625 -4.1875 L 7.0625 -7.828125 Z M 8.8125 -7.828125 "/></g></g></g><g fill="#38bdf8" fill-opacity="1"><g transform="translate(105.352886, 156.444718)"><g><path d="M 9.578125 -7.828125 L 9.578125 0 L 7.8125 0 L 7.8125 -1.28125 C 7.539062 -0.914062 7.140625 -0.578125 6.609375 -0.265625 C 6.078125 0.0351562 5.476562 0.1875 4.8125 0.1875 C 4.0625 0.1875 3.382812 0.0234375 2.78125 -0.296875 C 2.1875 -0.617188 1.710938 -1.085938 1.359375 -1.703125 C 1.015625 -2.316406 0.84375 -3.054688 0.84375 -3.921875 C 0.84375 -4.773438 1.023438 -5.519531 1.390625 -6.15625 C 1.753906 -6.789062 2.238281 -7.28125 2.84375 -7.625 C 3.457031 -7.976562 4.132812 -8.15625 4.875 -8.15625 C 5.550781 -8.15625 6.132812 -8.007812 6.625 -7.71875 C 7.113281 -7.425781 7.507812 -7.046875 7.8125 -6.578125 L 7.953125 -7.828125 Z M 5.28125 -1.265625 C 5.925781 -1.265625 6.476562 -1.441406 6.9375 -1.796875 C 7.394531 -2.160156 7.6875 -2.65625 7.8125 -3.28125 L 7.8125 -4.828125 C 7.664062 -5.378906 7.351562 -5.828125 6.875 -6.171875 C 6.394531 -6.523438 5.84375 -6.703125 5.21875 -6.703125 C 4.75 -6.703125 4.316406 -6.585938 3.921875 -6.359375 C 3.523438 -6.128906 3.207031 -5.804688 2.96875 -5.390625 C 2.738281 -4.984375 2.625 -4.523438 2.625 -4.015625 C 2.625 -3.503906 2.742188 -3.039062 2.984375 -2.625 C 3.222656 -2.207031 3.546875 -1.875 3.953125 -1.625 C 4.359375 -1.382812 4.800781 -1.265625 5.28125 -1.265625 Z M 5.28125 -1.265625 "/></g></g></g><g fill="#38bdf8" fill-opacity="1"><g transform="translate(116.453327, 156.444718)"><g><path d="M 3.296875 -14.671875 L 3.296875 0 L 1.53125 0 L 1.53125 -14.671875 Z M 3.296875 -14.671875 "/></g></g></g></svg>