<svg xmlns="http://www.w3.org/2000/svg" xmlns:xlink="http://www.w3.org/1999/xlink" width="250" zoomAndPan="magnify" viewBox="0 0 187.5 187.499992" height="250" preserveAspectRatio="xMidYMid meet" version="1.0"><defs><clipPath id="9b9d2e6257"><path d="M 4.328125 4.328125 L 182.828125 4.328125 L 182.828125 182.828125 L 4.328125 182.828125 Z M 4.328125 4.328125 " clip-rule="nonzero"/></clipPath><clipPath id="370680f391"><path d="M 22 23 L 165 23 L 165 182.828125 L 22 182.828125 Z M 22 23 " clip-rule="nonzero"/></clipPath></defs><g clip-path="url(#9b9d2e6257)"><path fill="#e0ebef" d="M 182.828125 93.578125 C 182.828125 95.039062 182.792969 96.496094 182.71875 97.957031 C 182.648438 99.414062 182.539062 100.871094 182.398438 102.324219 C 182.253906 103.777344 182.074219 105.226562 181.859375 106.671875 C 181.648438 108.117188 181.398438 109.554688 181.113281 110.988281 C 180.828125 112.421875 180.507812 113.847656 180.152344 115.261719 C 179.796875 116.679688 179.40625 118.085938 178.984375 119.484375 C 178.558594 120.882812 178.101562 122.269531 177.609375 123.644531 C 177.117188 125.019531 176.59375 126.382812 176.03125 127.730469 C 175.472656 129.082031 174.882812 130.414062 174.257812 131.734375 C 173.632812 133.054688 172.976562 134.359375 172.289062 135.648438 C 171.601562 136.9375 170.878906 138.207031 170.128906 139.460938 C 169.378906 140.714844 168.597656 141.945312 167.785156 143.160156 C 166.972656 144.375 166.132812 145.570312 165.261719 146.742188 C 164.394531 147.917969 163.496094 149.066406 162.566406 150.195312 C 161.640625 151.324219 160.6875 152.429688 159.707031 153.511719 C 158.726562 154.597656 157.71875 155.652344 156.6875 156.6875 C 155.652344 157.71875 154.597656 158.726562 153.511719 159.707031 C 152.429688 160.6875 151.324219 161.640625 150.195312 162.566406 C 149.066406 163.496094 147.917969 164.394531 146.742188 165.261719 C 145.570312 166.132812 144.375 166.972656 143.160156 167.785156 C 141.945312 168.597656 140.714844 169.378906 139.460938 170.128906 C 138.207031 170.878906 136.9375 171.601562 135.648438 172.289062 C 134.359375 172.976562 133.054688 173.632812 131.734375 174.257812 C 130.414062 174.882812 129.082031 175.472656 127.730469 176.03125 C 126.382812 176.59375 125.019531 177.117188 123.644531 177.609375 C 122.269531 178.101562 120.882812 178.558594 119.484375 178.984375 C 118.085938 179.40625 116.679688 179.796875 115.261719 180.152344 C 113.847656 180.507812 112.421875 180.828125 110.988281 181.113281 C 109.554688 181.398438 108.117188 181.648438 106.671875 181.859375 C 105.226562 182.074219 103.777344 182.253906 102.324219 182.398438 C 100.871094 182.539062 99.414062 182.648438 97.957031 182.71875 C 96.496094 182.792969 95.039062 182.828125 93.578125 182.828125 C 92.117188 182.828125 90.65625 182.792969 89.199219 182.71875 C 87.738281 182.648438 86.28125 182.539062 84.828125 182.398438 C 83.375 182.253906 81.925781 182.074219 80.480469 181.859375 C 79.035156 181.648438 77.597656 181.398438 76.164062 181.113281 C 74.734375 180.828125 73.308594 180.507812 71.890625 180.152344 C 70.472656 179.796875 69.066406 179.40625 67.667969 178.984375 C 66.269531 178.558594 64.882812 178.101562 63.507812 177.609375 C 62.132812 177.117188 60.773438 176.59375 59.421875 176.03125 C 58.074219 175.472656 56.738281 174.882812 55.417969 174.257812 C 54.097656 173.632812 52.792969 172.976562 51.503906 172.289062 C 50.214844 171.601562 48.945312 170.878906 47.691406 170.128906 C 46.441406 169.378906 45.207031 168.597656 43.992188 167.785156 C 42.777344 166.972656 41.582031 166.132812 40.410156 165.261719 C 39.238281 164.394531 38.085938 163.496094 36.957031 162.566406 C 35.828125 161.640625 34.722656 160.6875 33.640625 159.707031 C 32.558594 158.726562 31.5 157.71875 30.46875 156.6875 C 29.433594 155.652344 28.429688 154.597656 27.445312 153.511719 C 26.464844 152.429688 25.511719 151.324219 24.585938 150.195312 C 23.660156 149.066406 22.761719 147.917969 21.890625 146.742188 C 21.019531 145.570312 20.179688 144.375 19.367188 143.160156 C 18.558594 141.945312 17.777344 140.714844 17.023438 139.460938 C 16.273438 138.207031 15.554688 136.9375 14.867188 135.648438 C 14.175781 134.359375 13.519531 133.054688 12.894531 131.734375 C 12.269531 130.414062 11.679688 129.082031 11.121094 127.730469 C 10.5625 126.382812 10.035156 125.019531 9.542969 123.644531 C 9.050781 122.269531 8.59375 120.882812 8.171875 119.484375 C 7.746094 118.085938 7.355469 116.679688 7 115.261719 C 6.648438 113.847656 6.328125 112.421875 6.042969 110.988281 C 5.757812 109.554688 5.507812 108.117188 5.292969 106.671875 C 5.078125 105.226562 4.898438 103.777344 4.757812 102.324219 C 4.613281 100.871094 4.507812 99.414062 4.433594 97.957031 C 4.363281 96.496094 4.328125 95.039062 4.328125 93.578125 C 4.328125 92.117188 4.363281 90.65625 4.433594 89.199219 C 4.507812 87.738281 4.613281 86.28125 4.757812 84.828125 C 4.898438 83.375 5.078125 81.925781 5.292969 80.480469 C 5.507812 79.035156 5.757812 77.597656 6.042969 76.164062 C 6.328125 74.734375 6.648438 73.308594 7 71.890625 C 7.355469 70.472656 7.746094 69.066406 8.171875 67.667969 C 8.59375 66.269531 9.050781 64.882812 9.542969 63.507812 C 10.035156 62.132812 10.5625 60.773438 11.121094 59.421875 C 11.679688 58.074219 12.269531 56.738281 12.894531 55.417969 C 13.519531 54.097656 14.175781 52.792969 14.867188 51.503906 C 15.554688 50.214844 16.273438 48.945312 17.023438 47.691406 C 17.777344 46.441406 18.558594 45.207031 19.367188 43.992188 C 20.179688 42.777344 21.019531 41.582031 21.890625 40.410156 C 22.761719 39.238281 23.660156 38.085938 24.585938 36.957031 C 25.511719 35.828125 26.464844 34.722656 27.445312 33.640625 C 28.429688 32.558594 29.433594 31.5 30.46875 30.46875 C 31.5 29.433594 32.558594 28.429688 33.640625 27.445312 C 34.722656 26.464844 35.828125 25.511719 36.957031 24.585938 C 38.085938 23.660156 39.238281 22.761719 40.410156 21.890625 C 41.582031 21.019531 42.777344 20.179688 43.992188 19.367188 C 45.207031 18.558594 46.441406 17.777344 47.691406 17.023438 C 48.945312 16.273438 50.214844 15.554688 51.503906 14.867188 C 52.792969 14.175781 54.097656 13.519531 55.417969 12.894531 C 56.738281 12.269531 58.074219 11.679688 59.421875 11.121094 C 60.773438 10.5625 62.132812 10.035156 63.507812 9.542969 C 64.882812 9.050781 66.269531 8.59375 67.667969 8.171875 C 69.066406 7.746094 70.472656 7.355469 71.890625 7 C 73.308594 6.648438 74.734375 6.328125 76.164062 6.042969 C 77.597656 5.757812 79.035156 5.507812 80.480469 5.292969 C 81.925781 5.078125 83.375 4.898438 84.828125 4.757812 C 86.28125 4.613281 87.738281 4.507812 89.199219 4.433594 C 90.65625 4.363281 92.117188 4.328125 93.578125 4.328125 C 95.039062 4.328125 96.496094 4.363281 97.957031 4.433594 C 99.414062 4.507812 100.871094 4.613281 102.324219 4.757812 C 103.777344 4.898438 105.226562 5.078125 106.671875 5.292969 C 108.117188 5.507812 109.554688 5.757812 110.988281 6.042969 C 112.421875 6.328125 113.847656 6.648438 115.261719 7 C 116.679688 7.355469 118.085938 7.746094 119.484375 8.171875 C 120.882812 8.59375 122.269531 9.050781 123.644531 9.542969 C 125.019531 10.035156 126.382812 10.5625 127.730469 11.121094 C 129.082031 11.679688 130.414062 12.269531 131.734375 12.894531 C 133.054688 13.519531 134.359375 14.175781 135.648438 14.867188 C 136.9375 15.554688 138.207031 16.273438 139.460938 17.023438 C 140.714844 17.777344 141.945312 18.558594 143.160156 19.367188 C 144.375 20.179688 145.570312 21.019531 146.742188 21.890625 C 147.917969 22.761719 149.066406 23.660156 150.195312 24.585938 C 151.324219 25.511719 152.429688 26.464844 153.511719 27.445312 C 154.597656 28.429688 155.652344 29.433594 156.6875 30.46875 C 157.71875 31.5 158.726562 32.558594 159.707031 33.640625 C 160.6875 34.722656 161.640625 35.828125 162.566406 36.957031 C 163.496094 38.085938 164.394531 39.238281 165.261719 40.410156 C 166.132812 41.582031 166.972656 42.777344 167.785156 43.992188 C 168.597656 45.207031 169.378906 46.441406 170.128906 47.691406 C 170.878906 48.945312 171.601562 50.214844 172.289062 51.503906 C 172.976562 52.792969 173.632812 54.097656 174.257812 55.417969 C 174.882812 56.738281 175.472656 58.074219 176.03125 59.421875 C 176.59375 60.773438 177.117188 62.132812 177.609375 63.507812 C 178.101562 64.882812 178.558594 66.269531 178.984375 67.667969 C 179.40625 69.066406 179.796875 70.472656 180.152344 71.890625 C 180.507812 73.308594 180.828125 74.734375 181.113281 76.164062 C 181.398438 77.597656 181.648438 79.035156 181.859375 80.480469 C 182.074219 81.925781 182.253906 83.375 182.398438 84.828125 C 182.539062 86.28125 182.648438 87.738281 182.71875 89.199219 C 182.792969 90.65625 182.828125 92.117188 182.828125 93.578125 Z M 182.828125 93.578125 " fill-opacity="1" fill-rule="nonzero"/></g><g clip-path="url(#370680f391)"><path fill="#8ba8be" d="M 153.136719 141.238281 C 146.054688 138.378906 121.542969 128.207031 121.542969 128.207031 C 118.863281 124.875 116.007812 124.457031 116.007812 124.457031 L 115.769531 116.066406 C 122.375 103.691406 122.195312 101.492188 122.195312 101.492188 C 133.261719 87.390625 136.121094 71.679688 128.382812 70.550781 C 130.167969 57.101562 129.695312 42.289062 123.503906 40.742188 C 121.957031 25.746094 99.230469 20.867188 83.757812 24.199219 C 54.84375 29.496094 54.605469 57.996094 57.460938 70.550781 C 49.726562 71.679688 52.582031 87.328125 63.648438 101.492188 C 63.648438 101.492188 63.410156 103.691406 70.074219 116.066406 L 69.835938 124.457031 C 69.835938 124.457031 66.980469 124.875 64.304688 128.207031 C 64.304688 128.207031 39.789062 138.378906 32.707031 141.238281 C 28.78125 142.84375 25.152344 144.570312 22.238281 147.246094 C 38.539062 168.84375 64.363281 182.765625 93.515625 182.765625 C 122.316406 182.765625 147.902344 169.140625 164.203125 147.960938 C 161.289062 144.867188 157.359375 142.960938 153.136719 141.238281 Z M 153.136719 141.238281 " fill-opacity="1" fill-rule="nonzero"/></g></svg>