<svg xmlns="http://www.w3.org/2000/svg" xmlns:xlink="http://www.w3.org/1999/xlink" width="500" zoomAndPan="magnify" viewBox="0 0 375 374.999991" height="500" preserveAspectRatio="xMidYMid meet" version="1.0"><defs><g/><clipPath id="10971d4df8"><path d="M 26.367188 118 L 92 118 L 92 207.234375 L 26.367188 207.234375 Z M 26.367188 118 " clip-rule="nonzero"/></clipPath></defs><g clip-path="url(#10971d4df8)"><path fill="#eb690a" d="M 91.816406 155.65625 L 90.308594 142.269531 C 90.039062 139.925781 88.058594 138.140625 85.707031 138.140625 L 78.210938 138.140625 L 78.210938 134.320312 C 78.210938 125.351562 70.96875 118.066406 62.050781 118.066406 C 53.132812 118.066406 45.886719 125.351562 45.886719 134.320312 L 45.886719 138.140625 L 38.394531 138.140625 C 36.042969 138.140625 34.058594 139.925781 33.792969 142.269531 L 27.023438 202.023438 C 26.691406 204.890625 28.921875 207.378906 31.789062 207.378906 L 34.308594 207.378906 C 44.710938 162.484375 78.046875 156.257812 91.816406 155.65625 Z M 76.148438 143.015625 C 77.285156 143.015625 78.210938 143.949219 78.210938 145.09375 C 78.210938 146.234375 77.285156 147.167969 76.148438 147.167969 C 75.011719 147.167969 74.085938 146.234375 74.085938 145.09375 C 74.085938 143.949219 75.011719 143.015625 76.148438 143.015625 Z M 50.015625 134.339844 C 50.015625 127.679688 55.402344 122.238281 62.050781 122.238281 C 68.695312 122.238281 74.085938 127.679688 74.085938 134.339844 L 74.085938 138.160156 L 50.015625 138.160156 Z M 47.953125 143.015625 C 49.085938 143.015625 50.015625 143.949219 50.015625 145.09375 C 50.015625 146.234375 49.085938 147.167969 47.953125 147.167969 C 46.816406 147.167969 45.886719 146.234375 45.886719 145.09375 C 45.886719 143.949219 46.816406 143.015625 47.953125 143.015625 Z M 47.953125 143.015625 " fill-opacity="1" fill-rule="nonzero"/></g><g fill="#545454" fill-opacity="1"><g transform="translate(62.513643, 207.708799)"><g><path d="M 15.480469 0.695312 C 22.671875 0.695312 28.625 -2.925781 28.625 -10.417969 C 28.625 -18.207031 21.976562 -19.84375 16.71875 -21.183594 C 13 -22.078125 10.023438 -22.820312 10.023438 -25.253906 C 10.023438 -27.535156 12.453125 -28.578125 14.882812 -28.578125 C 17.710938 -28.578125 20.191406 -27.1875 20.191406 -24.160156 L 27.585938 -24.160156 C 27.585938 -31.105469 23.070312 -35.375 15.082031 -35.375 C 7.390625 -35.375 2.480469 -31.601562 2.480469 -24.957031 C 2.480469 -17.464844 8.832031 -15.925781 14.089844 -14.636719 C 17.859375 -13.792969 21.035156 -13.046875 21.035156 -10.320312 C 21.035156 -7.738281 18.257812 -6.25 15.429688 -6.25 C 12.355469 -6.25 9.574219 -7.886719 9.574219 -11.210938 L 1.984375 -11.210938 C 1.984375 -3.769531 7.492188 0.695312 15.480469 0.695312 Z M 15.480469 0.695312 "/></g></g></g><g fill="#545454" fill-opacity="1"><g transform="translate(93.218508, 207.708799)"><g><path d="M 18.804688 -27.386719 C 15.578125 -27.386719 12.75 -26.195312 10.714844 -24.261719 L 10.714844 -36.414062 L 3.472656 -36.414062 L 3.472656 0 L 10.714844 0 L 10.714844 -14.039062 C 10.714844 -18.40625 13.097656 -21.035156 16.71875 -21.035156 C 19.945312 -21.035156 21.382812 -19.050781 21.382812 -15.03125 L 21.382812 0 L 28.625 0 L 28.625 -16.273438 C 28.625 -23.070312 24.855469 -27.386719 18.804688 -27.386719 Z M 18.804688 -27.386719 "/></g></g></g><g fill="#545454" fill-opacity="1"><g transform="translate(125.014658, 207.708799)"><g><path d="M 16.171875 0.792969 C 24.460938 0.792969 30.660156 -5.308594 30.660156 -13.394531 C 30.660156 -21.480469 24.460938 -27.535156 16.171875 -27.535156 C 7.886719 -27.535156 1.6875 -21.480469 1.6875 -13.394531 C 1.6875 -5.308594 7.886719 0.792969 16.171875 0.792969 Z M 16.171875 -6.054688 C 12.007812 -6.054688 9.03125 -9.03125 9.03125 -13.394531 C 9.03125 -17.710938 12.007812 -20.738281 16.171875 -20.738281 C 20.339844 -20.738281 23.316406 -17.710938 23.316406 -13.394531 C 23.316406 -9.03125 20.339844 -6.054688 16.171875 -6.054688 Z M 16.171875 -6.054688 "/></g></g></g><g fill="#545454" fill-opacity="1"><g transform="translate(157.406055, 207.708799)"><g><path d="M 18.058594 -27.535156 C 14.734375 -27.535156 11.757812 -26.34375 9.476562 -24.308594 L 8.234375 -26.789062 L 3.472656 -26.789062 L 3.472656 9.675781 L 10.714844 9.675781 L 10.714844 -1.4375 C 12.75 0 15.28125 0.84375 18.058594 0.84375 C 26.144531 0.84375 32.097656 -5.257812 32.097656 -13.394531 C 32.097656 -21.480469 26.144531 -27.535156 18.058594 -27.535156 Z M 17.464844 -6.054688 C 13.246094 -6.054688 10.171875 -9.179688 10.171875 -13.394531 C 10.171875 -17.5625 13.246094 -20.738281 17.464844 -20.738281 C 21.679688 -20.738281 24.757812 -17.5625 24.757812 -13.394531 C 24.757812 -9.179688 21.679688 -6.054688 17.464844 -6.054688 Z M 17.464844 -6.054688 "/></g></g></g><g fill="#545454" fill-opacity="1"><g transform="translate(191.235972, 207.708799)"><g><path d="M 24.855469 -18.308594 C 27.285156 -19.992188 28.777344 -22.773438 28.777344 -25.75 C 28.777344 -30.859375 24.308594 -34.679688 18.308594 -34.679688 L 3.96875 -34.679688 L 3.96875 0.0507812 L 18.703125 0.0507812 C 24.757812 0.0507812 29.667969 -4.414062 29.667969 -9.972656 C 29.667969 -13.691406 27.882812 -16.667969 24.855469 -18.308594 Z M 21.480469 -24.609375 C 21.480469 -22.425781 19.945312 -20.886719 17.613281 -20.886719 L 11.3125 -20.886719 L 11.3125 -28.28125 L 17.613281 -28.28125 C 19.945312 -28.28125 21.480469 -26.789062 21.480469 -24.609375 Z M 18.007812 -6.847656 L 11.3125 -6.847656 L 11.3125 -14.636719 L 18.007812 -14.636719 C 20.488281 -14.636719 22.128906 -13 22.128906 -10.765625 C 22.128906 -8.484375 20.488281 -6.847656 18.007812 -6.847656 Z M 18.007812 -6.847656 "/></g></g></g><g fill="#545454" fill-opacity="1"><g transform="translate(223.081726, 207.708799)"><g><path d="M 25.300781 -26.789062 L 24.558594 -24.261719 C 22.226562 -26.292969 19.199219 -27.535156 15.726562 -27.535156 C 7.691406 -27.535156 1.6875 -21.480469 1.6875 -13.394531 C 1.6875 -5.308594 7.691406 0.792969 15.726562 0.792969 C 19.152344 0.792969 22.128906 -0.398438 24.410156 -2.429688 L 25.054688 0 L 30.710938 0 L 30.710938 -26.789062 Z M 16.324219 -6.054688 C 12.105469 -6.054688 9.03125 -9.226562 9.03125 -13.394531 C 9.03125 -17.613281 12.105469 -20.738281 16.324219 -20.738281 C 20.539062 -20.738281 23.617188 -17.613281 23.617188 -13.394531 C 23.617188 -9.179688 20.539062 -6.054688 16.324219 -6.054688 Z M 16.324219 -6.054688 "/></g></g></g><g fill="#545454" fill-opacity="1"><g transform="translate(257.308478, 207.708799)"><g><path d="M 25.105469 -26.789062 L 23.914062 -24.113281 C 21.582031 -26.246094 18.503906 -27.535156 15.03125 -27.535156 C 7.542969 -27.535156 1.6875 -21.582031 1.6875 -14.089844 C 1.6875 -6.550781 7.542969 -0.644531 15.03125 -0.644531 C 17.910156 -0.644531 20.539062 -1.539062 22.671875 -3.027344 L 22.671875 -2.035156 C 22.671875 1.886719 19.648438 4.265625 15.976562 4.265625 C 13.296875 4.265625 10.46875 3.027344 9.625 0.59375 L 2.429688 0.59375 C 3.671875 6.699219 8.832031 10.417969 16.074219 10.417969 C 24.558594 10.417969 29.769531 5.308594 29.769531 -3.074219 L 29.769531 -26.742188 Z M 15.875 -7.144531 C 11.90625 -7.144531 9.03125 -10.070312 9.03125 -14.039062 C 9.03125 -18.058594 11.90625 -20.984375 15.875 -20.984375 C 19.84375 -20.984375 22.722656 -18.058594 22.722656 -14.039062 C 22.722656 -10.070312 19.84375 -7.144531 15.875 -7.144531 Z M 15.875 -7.144531 "/></g></g></g></svg>